<?xml version="1.0" encoding="UTF-8"?>
<svg xmlns="http://www.w3.org/2000/svg" width="840" height="230" viewBox="0 0 840 230">
<defs>
  <marker id="arrow-classic" viewBox="0 0 10 10" refX="9" refY="5" markerWidth="8" markerHeight="8" orient="auto-start-reverse">
    <path d="M 0 0 L 10 5 L 0 10 z" fill="#000"/>
  </marker>
  <marker id="arrow-open" viewBox="0 0 10 10" refX="9" refY="5" markerWidth="8" markerHeight="8" orient="auto-start-reverse">
    <path d="M 0 0 L 10 5 L 0 10" fill="none" stroke="#000" stroke-width="1.5"/>
  </marker>
  <marker id="arrow-block" viewBox="0 0 10 10" refX="9" refY="5" markerWidth="8" markerHeight="8" orient="auto-start-reverse">
    <path d="M 0 0 L 10 5 L 0 10 z" fill="#000"/>
  </marker>
  <marker id="arrow-diamond" viewBox="0 0 14 10" refX="13" refY="5" markerWidth="10" markerHeight="8" orient="auto-start-reverse">
    <path d="M 0 5 L 7 0 L 14 5 L 7 10 z" fill="#000"/>
  </marker>
  <marker id="arrow-diamond-open" viewBox="0 0 14 10" refX="13" refY="5" markerWidth="10" markerHeight="8" orient="auto-start-reverse">
    <path d="M 0 5 L 7 0 L 14 5 L 7 10 z" fill="#fff" stroke="#000" stroke-width="1"/>
  </marker>
  <marker id="arrow-oval" viewBox="0 0 10 10" refX="5" refY="5" markerWidth="8" markerHeight="8" orient="auto-start-reverse">
    <circle cx="5" cy="5" r="4" fill="#000"/>
  </marker>
  <filter id="shadow" x="-10%" y="-10%" width="130%" height="130%">
    <feDropShadow dx="2" dy="2" stdDeviation="2" flood-color="#00000033"/>
  </filter>
</defs>
<rect width="100%" height="100%" fill="#ffffff"/>
<g transform="translate(-50.0, -40.0)">
  <path d="M 100.0 105.0 L 100.0 110.0 L 320.0 110.0" fill="none" stroke="#000000" stroke-width="1.0" marker-end="url(#arrow-classic)"/>
  <path d="M 320.0 110.0 L 320.0 100.0 L 510.0 100.0" fill="none" stroke="#000000" stroke-width="1.0" marker-end="url(#arrow-classic)"/>
  <path d="M 510.0 100.0 L 690.0 100.0" fill="none" stroke="#000000" stroke-width="1.0" marker-end="url(#arrow-classic)"/>
  <path d="M 510.0 100.0 L 510.0 180.0 L 690.0 180.0" fill="none" stroke="#000000" stroke-width="1.0" marker-end="url(#arrow-classic)"/>
  <path d="M 690.0 100.0 L 690.0 110.0 L 830.0 110.0" fill="none" stroke="#000000" stroke-width="1.0" marker-end="url(#arrow-classic)"/>
  <path d="M 690.0 180.0 L 690.0 110.0 L 830.0 110.0" fill="none" stroke="#000000" stroke-width="1.0" marker-end="url(#arrow-classic)"/>
  <circle cx="100.0" cy="82.0" r="12.0" fill="#ffffff" stroke="#000000" stroke-width="1.0"/>
  <line x1="100.0" y1="94.0" x2="100.0" y2="115.5" stroke="#000000" stroke-width="1.0"/>
  <line x1="80.0" y1="99.4" x2="120.0" y2="99.4" stroke="#000000" stroke-width="1.0"/>
  <line x1="100.0" y1="115.5" x2="80.0" y2="140.0" stroke="#000000" stroke-width="1.0"/>
  <line x1="100.0" y1="115.5" x2="120.0" y2="140.0" stroke="#000000" stroke-width="1.0"/>
  <text x="100.0" y="144.0" fill="#000000" font-size="12" font-family="sans-serif" text-anchor="middle" dominant-baseline="hanging">Customer</text>
  <path d="M 290.0,130.0 A 24.0,24.0 0 0,1 266.0,106.0 A 24.0,20.0 0 0,1 278.0,82.0 A 30.0,16.0 0 0,1 314.0,74.0 A 24.0,16.0 0 0,1 350.0,78.0 A 24.0,20.0 0 0,1 374.0,98.0 A 18.0,20.0 0 0,1 368.0,126.0 A 24.0,16.0 0 0,1 332.0,138.0 Z" fill="#ffffff" stroke="#000000" stroke-width="1.0"/>
  <text x="320.0" y="114.2" fill="#000000" font-size="12" font-family="sans-serif" text-anchor="middle" dominant-baseline="auto" font-weight="normal" font-style="normal">Internet</text>
  <rect x="440.0" y="70.0" width="140.0" height="60.0" rx="0.0" fill="#ffffff" stroke="#000000" stroke-width="1.0"/>
  <text x="510.0" y="104.2" fill="#000000" font-size="12" font-family="sans-serif" text-anchor="middle" dominant-baseline="auto" font-weight="normal" font-style="normal">Load Balancer</text>
  <rect x="620.0" y="70.0" width="140.0" height="60.0" rx="0.0" fill="#ffffff" stroke="#000000" stroke-width="1.0"/>
  <text x="690.0" y="104.2" fill="#000000" font-size="12" font-family="sans-serif" text-anchor="middle" dominant-baseline="auto" font-weight="normal" font-style="normal">Web Server 1</text>
  <rect x="620.0" y="150.0" width="140.0" height="60.0" rx="0.0" fill="#ffffff" stroke="#000000" stroke-width="1.0"/>
  <text x="690.0" y="184.2" fill="#000000" font-size="12" font-family="sans-serif" text-anchor="middle" dominant-baseline="auto" font-weight="normal" font-style="normal">Web Server 2</text>
  <path d="M 800.0 82.0 L 800.0 138.0 A 30.0 12.0 0 0 0 860.0 138.0 L 860.0 82.0 A 30.0 12.0 0 0 0 800.0 82.0 Z" fill="#ffffff" stroke="#000000" stroke-width="1.0"/>
  <ellipse cx="830.0" cy="82.0" rx="30.0" ry="12.0" fill="#ffffff" stroke="#000000" stroke-width="1.0"/>
  <text x="830.0" y="106.4" fill="#000000" font-size="12" font-family="sans-serif" text-anchor="middle" dominant-baseline="auto" font-weight="normal" font-style="normal">Primary</text>
  <text x="830.0" y="122.0" fill="#000000" font-size="12" font-family="sans-serif" text-anchor="middle" dominant-baseline="auto" font-weight="normal" font-style="normal">Database</text>
</g>
</svg>
