<?xml version="1.0" encoding="UTF-8"?>
<svg xmlns="http://www.w3.org/2000/svg" width="900" height="270" viewBox="0 0 900 270">
<defs>
  <marker id="arrow-classic" viewBox="0 0 10 10" refX="9" refY="5" markerWidth="8" markerHeight="8" orient="auto-start-reverse">
    <path d="M 0 0 L 10 5 L 0 10 z" fill="#000"/>
  </marker>
  <marker id="arrow-open" viewBox="0 0 10 10" refX="9" refY="5" markerWidth="8" markerHeight="8" orient="auto-start-reverse">
    <path d="M 0 0 L 10 5 L 0 10" fill="none" stroke="#000" stroke-width="1.5"/>
  </marker>
  <marker id="arrow-block" viewBox="0 0 10 10" refX="9" refY="5" markerWidth="8" markerHeight="8" orient="auto-start-reverse">
    <path d="M 0 0 L 10 5 L 0 10 z" fill="#000"/>
  </marker>
  <marker id="arrow-diamond" viewBox="0 0 14 10" refX="13" refY="5" markerWidth="10" markerHeight="8" orient="auto-start-reverse">
    <path d="M 0 5 L 7 0 L 14 5 L 7 10 z" fill="#000"/>
  </marker>
  <marker id="arrow-diamond-open" viewBox="0 0 14 10" refX="13" refY="5" markerWidth="10" markerHeight="8" orient="auto-start-reverse">
    <path d="M 0 5 L 7 0 L 14 5 L 7 10 z" fill="#fff" stroke="#000" stroke-width="1"/>
  </marker>
  <marker id="arrow-oval" viewBox="0 0 10 10" refX="5" refY="5" markerWidth="8" markerHeight="8" orient="auto-start-reverse">
    <circle cx="5" cy="5" r="4" fill="#000"/>
  </marker>
  <filter id="shadow" x="-10%" y="-10%" width="130%" height="130%">
    <feDropShadow dx="2" dy="2" stdDeviation="2" flood-color="#00000033"/>
  </filter>
</defs>
<rect width="100%" height="100%" fill="#ffffff"/>
<g transform="translate(-50.0, -40.0)">
  <path d="M 140.0 110.0 L 320.0 110.0" fill="none" stroke="#000000" stroke-width="1.0" marker-end="url(#arrow-classic)"/>
  <rect x="174.2" y="101.8" width="111.6" height="16.4" fill="white" rx="2"/>
  <text x="230.0" y="110.0" fill="#000000" font-size="12" font-family="sans-serif" text-anchor="middle" dominant-baseline="middle">payment received</text>
  <path d="M 320.0 110.0 L 500.0 110.0" fill="none" stroke="#000000" stroke-width="1.0" marker-end="url(#arrow-classic)"/>
  <path d="M 500.0 110.0 L 680.0 110.0" fill="none" stroke="#000000" stroke-width="1.0" marker-end="url(#arrow-classic)"/>
  <path d="M 680.0 110.0 L 860.0 110.0" fill="none" stroke="#000000" stroke-width="1.0" marker-end="url(#arrow-classic)"/>
  <path d="M 140.0 110.0 L 140.0 210.0 L 500.0 210.0" fill="none" stroke="#000000" stroke-width="1.0" marker-end="url(#arrow-classic)"/>
  <rect x="84.2" y="151.8" width="111.6" height="16.4" fill="white" rx="2"/>
  <text x="140.0" y="160.0" fill="#000000" font-size="12" font-family="sans-serif" text-anchor="middle" dominant-baseline="middle">customer cancels</text>
  <path d="M 320.0 110.0 L 320.0 210.0 L 500.0 210.0" fill="none" stroke="#000000" stroke-width="1.0" marker-end="url(#arrow-classic)"/>
  <rect x="264.2" y="151.8" width="111.6" height="16.4" fill="white" rx="2"/>
  <text x="320.0" y="160.0" fill="#000000" font-size="12" font-family="sans-serif" text-anchor="middle" dominant-baseline="middle">customer cancels</text>
  <path d="M 500.0 210.0 L 680.0 210.0" fill="none" stroke="#000000" stroke-width="1.0" marker-end="url(#arrow-classic)"/>
  <rect x="547.4" y="201.8" width="85.2" height="16.4" fill="white" rx="2"/>
  <text x="590.0" y="210.0" fill="#000000" font-size="12" font-family="sans-serif" text-anchor="middle" dominant-baseline="middle">issue refund</text>
  <ellipse cx="140.0" cy="110.0" rx="60.0" ry="40.0" fill="#ffffff" stroke="#000000" stroke-width="1.0"/>
  <text x="140.0" y="114.2" fill="#000000" font-size="12" font-family="sans-serif" text-anchor="middle" dominant-baseline="auto" font-weight="normal" font-style="normal">Created</text>
  <ellipse cx="320.0" cy="110.0" rx="60.0" ry="40.0" fill="#ffffff" stroke="#000000" stroke-width="1.0"/>
  <text x="320.0" y="114.2" fill="#000000" font-size="12" font-family="sans-serif" text-anchor="middle" dominant-baseline="auto" font-weight="normal" font-style="normal">Paid</text>
  <ellipse cx="500.0" cy="110.0" rx="60.0" ry="40.0" fill="#ffffff" stroke="#000000" stroke-width="1.0"/>
  <text x="500.0" y="114.2" fill="#000000" font-size="12" font-family="sans-serif" text-anchor="middle" dominant-baseline="auto" font-weight="normal" font-style="normal">Packed</text>
  <ellipse cx="680.0" cy="110.0" rx="60.0" ry="40.0" fill="#ffffff" stroke="#000000" stroke-width="1.0"/>
  <text x="680.0" y="114.2" fill="#000000" font-size="12" font-family="sans-serif" text-anchor="middle" dominant-baseline="auto" font-weight="normal" font-style="normal">Shipped</text>
  <ellipse cx="860.0" cy="110.0" rx="60.0" ry="40.0" fill="#ffffff" stroke="#000000" stroke-width="1.0"/>
  <text x="860.0" y="114.2" fill="#000000" font-size="12" font-family="sans-serif" text-anchor="middle" dominant-baseline="auto" font-weight="normal" font-style="normal">Delivered</text>
  <ellipse cx="500.0" cy="210.0" rx="60.0" ry="40.0" fill="#ffffff" stroke="#000000" stroke-width="1.0"/>
  <text x="500.0" y="214.2" fill="#000000" font-size="12" font-family="sans-serif" text-anchor="middle" dominant-baseline="auto" font-weight="normal" font-style="normal">Cancelled</text>
  <ellipse cx="680.0" cy="210.0" rx="60.0" ry="40.0" fill="#ffffff" stroke="#000000" stroke-width="1.0"/>
  <text x="680.0" y="214.2" fill="#000000" font-size="12" font-family="sans-serif" text-anchor="middle" dominant-baseline="auto" font-weight="normal" font-style="normal">Refunded</text>
</g>
</svg>
