<?xml version="1.0" encoding="UTF-8"?>
<svg xmlns="http://www.w3.org/2000/svg" width="740" height="230" viewBox="0 0 740 230">
<defs>
  <marker id="arrow-classic" viewBox="0 0 10 10" refX="9" refY="5" markerWidth="8" markerHeight="8" orient="auto-start-reverse">
    <path d="M 0 0 L 10 5 L 0 10 z" fill="#000"/>
  </marker>
  <marker id="arrow-open" viewBox="0 0 10 10" refX="9" refY="5" markerWidth="8" markerHeight="8" orient="auto-start-reverse">
    <path d="M 0 0 L 10 5 L 0 10" fill="none" stroke="#000" stroke-width="1.5"/>
  </marker>
  <marker id="arrow-block" viewBox="0 0 10 10" refX="9" refY="5" markerWidth="8" markerHeight="8" orient="auto-start-reverse">
    <path d="M 0 0 L 10 5 L 0 10 z" fill="#000"/>
  </marker>
  <marker id="arrow-diamond" viewBox="0 0 14 10" refX="13" refY="5" markerWidth="10" markerHeight="8" orient="auto-start-reverse">
    <path d="M 0 5 L 7 0 L 14 5 L 7 10 z" fill="#000"/>
  </marker>
  <marker id="arrow-diamond-open" viewBox="0 0 14 10" refX="13" refY="5" markerWidth="10" markerHeight="8" orient="auto-start-reverse">
    <path d="M 0 5 L 7 0 L 14 5 L 7 10 z" fill="#fff" stroke="#000" stroke-width="1"/>
  </marker>
  <marker id="arrow-oval" viewBox="0 0 10 10" refX="5" refY="5" markerWidth="8" markerHeight="8" orient="auto-start-reverse">
    <circle cx="5" cy="5" r="4" fill="#000"/>
  </marker>
  <filter id="shadow" x="-10%" y="-10%" width="130%" height="130%">
    <feDropShadow dx="2" dy="2" stdDeviation="2" flood-color="#00000033"/>
  </filter>
</defs>
<rect width="100%" height="100%" fill="#ffffff"/>
<g transform="translate(-50.0, -40.0)">
  <path d="M 150.0 100.0 L 330.0 100.0" fill="none" stroke="#000000" stroke-width="1.0" marker-end="url(#arrow-classic)"/>
  <rect x="217.2" y="91.8" width="45.6" height="16.4" fill="white" rx="2"/>
  <text x="240.0" y="100.0" fill="#000000" font-size="12" font-family="sans-serif" text-anchor="middle" dominant-baseline="middle">places</text>
  <path d="M 330.0 100.0 L 510.0 100.0" fill="none" stroke="#000000" stroke-width="1.0" marker-end="url(#arrow-classic)"/>
  <rect x="390.6" y="91.8" width="58.8" height="16.4" fill="white" rx="2"/>
  <text x="420.0" y="100.0" fill="#000000" font-size="12" font-family="sans-serif" text-anchor="middle" dominant-baseline="middle">contains</text>
  <path d="M 510.0 100.0 L 690.0 100.0" fill="none" stroke="#000000" stroke-width="1.0" marker-end="url(#arrow-classic)"/>
  <rect x="564.0" y="91.8" width="72.0" height="16.4" fill="white" rx="2"/>
  <text x="600.0" y="100.0" fill="#000000" font-size="12" font-family="sans-serif" text-anchor="middle" dominant-baseline="middle">references</text>
  <path d="M 330.0 100.0 L 330.0 180.0 L 510.0 180.0" fill="none" stroke="#000000" stroke-width="1.0" marker-end="url(#arrow-classic)"/>
  <rect x="303.9" y="131.8" width="52.2" height="16.4" fill="white" rx="2"/>
  <text x="330.0" y="140.0" fill="#000000" font-size="12" font-family="sans-serif" text-anchor="middle" dominant-baseline="middle">paid by</text>
  <rect x="80.0" y="70.0" width="140.0" height="60.0" rx="0.0" fill="#ffffff" stroke="#000000" stroke-width="1.0"/>
  <text x="150.0" y="104.2" fill="#000000" font-size="12" font-family="sans-serif" text-anchor="middle" dominant-baseline="auto" font-weight="normal" font-style="normal">Customer</text>
  <rect x="260.0" y="70.0" width="140.0" height="60.0" rx="0.0" fill="#ffffff" stroke="#000000" stroke-width="1.0"/>
  <text x="330.0" y="104.2" fill="#000000" font-size="12" font-family="sans-serif" text-anchor="middle" dominant-baseline="auto" font-weight="normal" font-style="normal">Order</text>
  <rect x="440.0" y="70.0" width="140.0" height="60.0" rx="0.0" fill="#ffffff" stroke="#000000" stroke-width="1.0"/>
  <text x="510.0" y="104.2" fill="#000000" font-size="12" font-family="sans-serif" text-anchor="middle" dominant-baseline="auto" font-weight="normal" font-style="normal">OrderItem</text>
  <rect x="620.0" y="70.0" width="140.0" height="60.0" rx="0.0" fill="#ffffff" stroke="#000000" stroke-width="1.0"/>
  <text x="690.0" y="104.2" fill="#000000" font-size="12" font-family="sans-serif" text-anchor="middle" dominant-baseline="auto" font-weight="normal" font-style="normal">Product</text>
  <rect x="440.0" y="150.0" width="140.0" height="60.0" rx="0.0" fill="#ffffff" stroke="#000000" stroke-width="1.0"/>
  <text x="510.0" y="184.2" fill="#000000" font-size="12" font-family="sans-serif" text-anchor="middle" dominant-baseline="auto" font-weight="normal" font-style="normal">Payment</text>
</g>
</svg>
