<?xml version="1.0" encoding="UTF-8"?>
<svg xmlns="http://www.w3.org/2000/svg" width="1250" height="600" viewBox="0 0 1250 600">
<defs>
  <marker id="arrow-classic" viewBox="0 0 10 10" refX="9" refY="5" markerWidth="8" markerHeight="8" orient="auto-start-reverse">
    <path d="M 0 0 L 10 5 L 0 10 z" fill="#000"/>
  </marker>
  <marker id="arrow-open" viewBox="0 0 10 10" refX="9" refY="5" markerWidth="8" markerHeight="8" orient="auto-start-reverse">
    <path d="M 0 0 L 10 5 L 0 10" fill="none" stroke="#000" stroke-width="1.5"/>
  </marker>
  <marker id="arrow-block" viewBox="0 0 10 10" refX="9" refY="5" markerWidth="8" markerHeight="8" orient="auto-start-reverse">
    <path d="M 0 0 L 10 5 L 0 10 z" fill="#000"/>
  </marker>
  <marker id="arrow-diamond" viewBox="0 0 14 10" refX="13" refY="5" markerWidth="10" markerHeight="8" orient="auto-start-reverse">
    <path d="M 0 5 L 7 0 L 14 5 L 7 10 z" fill="#000"/>
  </marker>
  <marker id="arrow-diamond-open" viewBox="0 0 14 10" refX="13" refY="5" markerWidth="10" markerHeight="8" orient="auto-start-reverse">
    <path d="M 0 5 L 7 0 L 14 5 L 7 10 z" fill="#fff" stroke="#000" stroke-width="1"/>
  </marker>
  <marker id="arrow-oval" viewBox="0 0 10 10" refX="5" refY="5" markerWidth="8" markerHeight="8" orient="auto-start-reverse">
    <circle cx="5" cy="5" r="4" fill="#000"/>
  </marker>
  <filter id="shadow" x="-10%" y="-10%" width="130%" height="130%">
    <feDropShadow dx="2" dy="2" stdDeviation="2" flood-color="#00000033"/>
  </filter>
</defs>
<rect width="100%" height="100%" fill="#ffffff"/>
<g transform="translate(-10.0, -10.0)">
  <rect x="40.0" y="40.0" width="1190.0" height="510.0" fill="transparent" stroke="#000000" stroke-width="1.0"/>
  <rect x="40.0" y="40.0" width="30.0" height="510.0" fill="#ffffff" stroke="#000000" stroke-width="1.0"/>
  <text x="55.0" y="295.0" fill="#000000" font-size="12" font-family="sans-serif" text-anchor="middle" dominant-baseline="middle" transform="rotate(-90, 55.0, 295.0)">Support Center</text>
  <rect x="70.0" y="40.0" width="1160.0" height="150.0" fill="transparent" stroke="#000000" stroke-width="1.0"/>
  <rect x="70.0" y="40.0" width="0.0" height="150.0" fill="#e6e6e6" stroke="#000000" stroke-width="1.0"/>
  <text x="70.0" y="115.0" fill="#000000" font-size="12" font-family="sans-serif" text-anchor="middle" dominant-baseline="middle" transform="rotate(-90, 70.0, 115.0)">Helpdesk</text>
  <rect x="70.0" y="230.0" width="1160.0" height="150.0" fill="transparent" stroke="#000000" stroke-width="1.0"/>
  <rect x="70.0" y="230.0" width="0.0" height="150.0" fill="#e6e6e6" stroke="#000000" stroke-width="1.0"/>
  <text x="70.0" y="305.0" fill="#000000" font-size="12" font-family="sans-serif" text-anchor="middle" dominant-baseline="middle" transform="rotate(-90, 70.0, 305.0)">L2 Support</text>
  <rect x="70.0" y="420.0" width="1160.0" height="130.0" fill="transparent" stroke="#000000" stroke-width="1.0"/>
  <rect x="70.0" y="420.0" width="0.0" height="130.0" fill="#e6e6e6" stroke="#000000" stroke-width="1.0"/>
  <text x="70.0" y="485.0" fill="#000000" font-size="12" font-family="sans-serif" text-anchor="middle" dominant-baseline="middle" transform="rotate(-90, 70.0, 485.0)">Engineering</text>
  <path d="M 170.0 110.0 L 170.0 100.0 L 360.0 100.0" fill="none" stroke="#000000" stroke-width="1.0" marker-end="url(#arrow-classic)"/>
  <path d="M 360.0 100.0 L 360.0 290.0 L 540.0 290.0" fill="none" stroke="#000000" stroke-width="1.0" marker-end="url(#arrow-classic)"/>
  <path d="M 540.0 290.0 L 540.0 300.0 L 695.0 300.0" fill="none" stroke="#000000" stroke-width="1.0" marker-end="url(#arrow-classic)"/>
  <path d="M 695.0 300.0 L 695.0 110.0 L 1070.0 110.0" fill="none" stroke="#000000" stroke-width="1.0" marker-end="url(#arrow-classic)"/>
  <rect x="682.1" y="196.8" width="25.8" height="16.4" fill="white" rx="2"/>
  <text x="695.0" y="205.0" fill="#000000" font-size="12" font-family="sans-serif" text-anchor="middle" dominant-baseline="middle">Yes</text>
  <path d="M 695.0 300.0 L 695.0 480.0 L 900.0 480.0" fill="none" stroke="#000000" stroke-width="1.0" marker-end="url(#arrow-classic)"/>
  <rect x="685.4" y="381.8" width="19.2" height="16.4" fill="white" rx="2"/>
  <text x="695.0" y="390.0" fill="#000000" font-size="12" font-family="sans-serif" text-anchor="middle" dominant-baseline="middle">No</text>
  <path d="M 900.0 480.0 L 900.0 290.0 L 540.0 290.0" fill="none" stroke="#000000" stroke-width="1.0" marker-end="url(#arrow-classic)"/>
  <path d="M 900.0 480.0 L 900.0 110.0 L 1070.0 110.0" fill="none" stroke="#000000" stroke-width="1.0" marker-end="url(#arrow-classic)"/>
  <ellipse cx="170.0" cy="110.0" rx="60.0" ry="40.0" fill="#ffffff" stroke="#000000" stroke-width="1.0"/>
  <text x="170.0" y="114.2" fill="#000000" font-size="12" font-family="sans-serif" text-anchor="middle" dominant-baseline="auto" font-weight="normal" font-style="normal">Incident Reported</text>
  <rect x="290.0" y="70.0" width="140.0" height="60.0" rx="0.0" fill="#ffffff" stroke="#000000" stroke-width="1.0"/>
  <text x="360.0" y="104.2" fill="#000000" font-size="12" font-family="sans-serif" text-anchor="middle" dominant-baseline="auto" font-weight="normal" font-style="normal">Log Ticket</text>
  <rect x="470.0" y="260.0" width="140.0" height="60.0" rx="0.0" fill="#ffffff" stroke="#000000" stroke-width="1.0"/>
  <text x="540.0" y="294.2" fill="#000000" font-size="12" font-family="sans-serif" text-anchor="middle" dominant-baseline="auto" font-weight="normal" font-style="normal">Investigate</text>
  <polygon points="695.0,260.0 740.0,300.0 695.0,340.0 650.0,300.0" fill="#ffffff" stroke="#000000" stroke-width="1.0"/>
  <text x="695.0" y="304.2" fill="#000000" font-size="12" font-family="sans-serif" text-anchor="middle" dominant-baseline="auto" font-weight="normal" font-style="normal">Resolved?</text>
  <rect x="830.0" y="450.0" width="140.0" height="60.0" rx="0.0" fill="#ffffff" stroke="#000000" stroke-width="1.0"/>
  <text x="900.0" y="484.2" fill="#000000" font-size="12" font-family="sans-serif" text-anchor="middle" dominant-baseline="auto" font-weight="normal" font-style="normal">Root Cause Fix</text>
  <ellipse cx="1070.0" cy="110.0" rx="60.0" ry="40.0" fill="#ffffff" stroke="#000000" stroke-width="1.0"/>
  <text x="1070.0" y="114.2" fill="#000000" font-size="12" font-family="sans-serif" text-anchor="middle" dominant-baseline="auto" font-weight="normal" font-style="normal">Ticket Closed</text>
  <path d="M 110.0 260.0 L 238.0 260.0 L 250.0 272.0 L 250.0 320.0 L 110.0 320.0 Z" fill="#ffffff" stroke="#000000" stroke-width="1.0"/>
  <path d="M 238.0 260.0 L 238.0 272.0 L 250.0 272.0" fill="none" stroke="#000000" stroke-width="1.0"/>
  <text x="180.0" y="286.4" fill="#000000" font-size="12" font-family="sans-serif" text-anchor="middle" dominant-baseline="auto" font-weight="normal" font-style="normal">SLA: 4 hours for P1</text>
  <text x="180.0" y="302.0" fill="#000000" font-size="12" font-family="sans-serif" text-anchor="middle" dominant-baseline="auto" font-weight="normal" font-style="normal">incidents</text>
</g>
</svg>
