<?xml version="1.0" encoding="UTF-8"?>
<svg xmlns="http://www.w3.org/2000/svg" width="1400" height="650" viewBox="0 0 1400 650">
<defs>
  <marker id="arrow-classic" viewBox="0 0 10 10" refX="9" refY="5" markerWidth="8" markerHeight="8" orient="auto-start-reverse">
    <path d="M 0 0 L 10 5 L 0 10 z" fill="#000"/>
  </marker>
  <marker id="arrow-open" viewBox="0 0 10 10" refX="9" refY="5" markerWidth="8" markerHeight="8" orient="auto-start-reverse">
    <path d="M 0 0 L 10 5 L 0 10" fill="none" stroke="#000" stroke-width="1.5"/>
  </marker>
  <marker id="arrow-block" viewBox="0 0 10 10" refX="9" refY="5" markerWidth="8" markerHeight="8" orient="auto-start-reverse">
    <path d="M 0 0 L 10 5 L 0 10 z" fill="#000"/>
  </marker>
  <marker id="arrow-diamond" viewBox="0 0 14 10" refX="13" refY="5" markerWidth="10" markerHeight="8" orient="auto-start-reverse">
    <path d="M 0 5 L 7 0 L 14 5 L 7 10 z" fill="#000"/>
  </marker>
  <marker id="arrow-diamond-open" viewBox="0 0 14 10" refX="13" refY="5" markerWidth="10" markerHeight="8" orient="auto-start-reverse">
    <path d="M 0 5 L 7 0 L 14 5 L 7 10 z" fill="#fff" stroke="#000" stroke-width="1"/>
  </marker>
  <marker id="arrow-oval" viewBox="0 0 10 10" refX="5" refY="5" markerWidth="8" markerHeight="8" orient="auto-start-reverse">
    <circle cx="5" cy="5" r="4" fill="#000"/>
  </marker>
  <filter id="shadow" x="-10%" y="-10%" width="130%" height="130%">
    <feDropShadow dx="2" dy="2" stdDeviation="2" flood-color="#00000033"/>
  </filter>
</defs>
<rect width="100%" height="100%" fill="#ffffff"/>
<g transform="translate(-10.0, 230.0)">
  <rect x="40.0" y="40.0" width="1340.0" height="130.0" rx="0.0" fill="transparent" stroke="#666666" stroke-width="1.0" stroke-dasharray="8 4"/>
  <text x="710.0" y="52.0" fill="#000000" font-size="12" font-family="sans-serif" text-anchor="middle" dominant-baseline="auto" font-weight="normal" font-style="normal">Public Subnet</text>
  <rect x="40.0" y="210.0" width="1340.0" height="150.0" rx="0.0" fill="transparent" stroke="#666666" stroke-width="1.0" stroke-dasharray="8 4"/>
  <text x="710.0" y="222.0" fill="#000000" font-size="12" font-family="sans-serif" text-anchor="middle" dominant-baseline="auto" font-weight="normal" font-style="normal">Private Subnet</text>
  <path d="M 90.0 -165.0 L 90.0 10.0 L 280.0 10.0" fill="none" stroke="#000000" stroke-width="1.0" marker-end="url(#arrow-classic)"/>
  <path d="M 280.0 10.0 L 280.0 100.0 L 510.0 100.0" fill="none" stroke="#000000" stroke-width="1.0" marker-end="url(#arrow-classic)"/>
  <path d="M 510.0 100.0 L 690.0 100.0" fill="none" stroke="#000000" stroke-width="1.0" marker-end="url(#arrow-classic)"/>
  <path d="M 690.0 100.0 L 690.0 270.0 L 870.0 270.0" fill="none" stroke="#000000" stroke-width="1.0" marker-end="url(#arrow-classic)"/>
  <path d="M 870.0 270.0 L 870.0 280.0 L 1010.0 280.0" fill="none" stroke="#000000" stroke-width="1.0" marker-end="url(#arrow-classic)"/>
  <path d="M 1010.0 280.0 L 1190.0 280.0" fill="none" stroke="#000000" stroke-width="1.0" stroke-dasharray="8 4" marker-end="url(#arrow-classic)"/>
  <rect x="1060.7" y="271.8" width="78.6" height="16.4" fill="white" rx="2"/>
  <text x="1100.0" y="280.0" fill="#000000" font-size="12" font-family="sans-serif" text-anchor="middle" dominant-baseline="middle">replication</text>
  <rect x="440.0" y="70.0" width="140.0" height="60.0" rx="0.0" fill="#ffffff" stroke="#000000" stroke-width="1.0"/>
  <text x="510.0" y="104.2" fill="#000000" font-size="12" font-family="sans-serif" text-anchor="middle" dominant-baseline="auto" font-weight="normal" font-style="normal">Load Balancer</text>
  <rect x="620.0" y="70.0" width="140.0" height="60.0" rx="0.0" fill="#ffffff" stroke="#000000" stroke-width="1.0"/>
  <text x="690.0" y="104.2" fill="#000000" font-size="12" font-family="sans-serif" text-anchor="middle" dominant-baseline="auto" font-weight="normal" font-style="normal">Reverse Proxy</text>
  <rect x="800.0" y="240.0" width="140.0" height="60.0" rx="0.0" fill="#ffffff" stroke="#000000" stroke-width="1.0"/>
  <text x="870.0" y="274.2" fill="#000000" font-size="12" font-family="sans-serif" text-anchor="middle" dominant-baseline="auto" font-weight="normal" font-style="normal">App Server</text>
  <path d="M 980.0 252.0 L 980.0 308.0 A 30.0 12.0 0 0 0 1040.0 308.0 L 1040.0 252.0 A 30.0 12.0 0 0 0 980.0 252.0 Z" fill="#ffffff" stroke="#000000" stroke-width="1.0"/>
  <ellipse cx="1010.0" cy="252.0" rx="30.0" ry="12.0" fill="#ffffff" stroke="#000000" stroke-width="1.0"/>
  <text x="1010.0" y="276.4" fill="#000000" font-size="12" font-family="sans-serif" text-anchor="middle" dominant-baseline="auto" font-weight="normal" font-style="normal">Primary</text>
  <text x="1010.0" y="292.0" fill="#000000" font-size="12" font-family="sans-serif" text-anchor="middle" dominant-baseline="auto" font-weight="normal" font-style="normal">DB</text>
  <path d="M 1160.0 252.0 L 1160.0 308.0 A 30.0 12.0 0 0 0 1220.0 308.0 L 1220.0 252.0 A 30.0 12.0 0 0 0 1160.0 252.0 Z" fill="#ffffff" stroke="#000000" stroke-width="1.0"/>
  <ellipse cx="1190.0" cy="252.0" rx="30.0" ry="12.0" fill="#ffffff" stroke="#000000" stroke-width="1.0"/>
  <text x="1190.0" y="276.4" fill="#000000" font-size="12" font-family="sans-serif" text-anchor="middle" dominant-baseline="auto" font-weight="normal" font-style="normal">Replica</text>
  <text x="1190.0" y="292.0" fill="#000000" font-size="12" font-family="sans-serif" text-anchor="middle" dominant-baseline="auto" font-weight="normal" font-style="normal">DB</text>
  <circle cx="90.0" cy="-188.0" r="12.0" fill="#ffffff" stroke="#000000" stroke-width="1.0"/>
  <line x1="90.0" y1="-176.0" x2="90.0" y2="-154.5" stroke="#000000" stroke-width="1.0"/>
  <line x1="70.0" y1="-170.6" x2="110.0" y2="-170.6" stroke="#000000" stroke-width="1.0"/>
  <line x1="90.0" y1="-154.5" x2="70.0" y2="-130.0" stroke="#000000" stroke-width="1.0"/>
  <line x1="90.0" y1="-154.5" x2="110.0" y2="-130.0" stroke="#000000" stroke-width="1.0"/>
  <text x="90.0" y="-126.0" fill="#000000" font-size="12" font-family="sans-serif" text-anchor="middle" dominant-baseline="hanging">End User</text>
  <path d="M 250.0,30.0 A 24.0,24.0 0 0,1 226.0,6.0 A 24.0,20.0 0 0,1 238.0,-18.0 A 30.0,16.0 0 0,1 274.0,-26.0 A 24.0,16.0 0 0,1 310.0,-22.0 A 24.0,20.0 0 0,1 334.0,-2.0 A 18.0,20.0 0 0,1 328.0,26.0 A 24.0,16.0 0 0,1 292.0,38.0 Z" fill="#ffffff" stroke="#000000" stroke-width="1.0"/>
  <text x="280.0" y="14.2" fill="#000000" font-size="12" font-family="sans-serif" text-anchor="middle" dominant-baseline="auto" font-weight="normal" font-style="normal">Internet</text>
</g>
</svg>
