<svg role="img" xmlns="http://www.w3.org/2000/svg" width="2253.44" height="1193" viewBox="0 0 2253.44 1193" font-family="sans-serif" font-size="14">
  <rect width="100%" height="100%" fill="#ffffff"/>
  <g transform="translate(16,16)">
    <path d="M832.66,184 L649.01,299 M744.99,92 L497.64,401 M788.82,184 L617.06,618 M920.33,184 L1329.2,678 M876.49,184 L1010.68,359 M591.19,503 L517.25,618 M706.83,503 L567.15,618 M1503.97,67.2 L1531.97,67.2 L1531.97,16 L1338.41,16 L1338.41,30 M1393.59,154 L1260.73,279 M1202.68,523 L1123.74,678 M1318.78,523 L1447.16,678 M1163.98,401 L957.6,750 M1558.97,92 L1357.48,401 M1123.74,822 L1202.2,997 M1012.6,706.8 L514.37,1069 M1012.6,793.2 L799.44,1069 M2145.31,144 L1343.52,997 M399.34,463 L399.34,1007 M1123.69,174 L666.97,618 M592.11,882 L684.4,987 M467.34,750 L229.3,1069 M716.87,750 L854.44,1069 M1907.71,144 L977.27,977 M1010.68,443 L864.74,698" fill="none" stroke="#333333"/>
    <path d="M829.38,191.95 L824.07,183.48 M659.18,292.63 L645.82,293.91 M659.18,292.63 L652.19,304.09 M659.18,292.63 L649.01,299 M744.51,100.59 L736.71,94.34 M498.74,391.63 L506.54,397.88 M790.89,192.35 L781.6,188.67 M621.48,606.84 L611.48,615.79 M621.48,606.84 L622.64,620.21 M621.48,606.84 L617.06,618 M928.64,186.2 L920.94,192.58 M1321.55,668.76 L1324.58,681.83 M1321.55,668.76 L1333.82,674.17 M1321.55,668.76 L1329.2,678 M884.72,186.51 L876.78,192.6 M1001.84,355.69 L1009.78,349.61 M591.61,511.59 L583.2,506.18 M523.74,607.91 L512.2,614.76 M523.74,607.91 L522.29,621.24 M523.74,607.91 L517.25,618 M704.6,511.31 L698.24,503.59 M576.42,610.37 L563.34,613.37 M576.42,610.37 L570.97,622.63 M576.42,610.37 L567.15,618 M1510.97,62.2 L1510.97,72.2 M1338.41,18 L1332.41,30 M1338.41,18 L1344.41,30 M1338.41,18 L1338.41,30 M1391.92,162.44 L1385.07,155.16 M1269.47,270.78 L1256.62,274.63 M1269.47,270.78 L1264.84,283.37 M1269.47,270.78 L1260.73,279 M1203.96,531.51 L1195.05,526.97 M1129.19,667.31 L1118.39,675.28 M1129.19,667.31 L1129.09,680.72 M1129.19,667.31 L1123.74,678 M1125.64,663.26 L1134.55,667.79 M1327.1,525.2 L1319.4,531.58 M1439.51,668.76 L1442.54,681.83 M1439.51,668.76 L1451.78,674.17 M1439.51,668.76 L1447.16,678 M1164.72,409.57 L1156.12,404.48 M963.71,739.67 L952.44,746.95 M963.71,739.67 L962.77,753.05 M963.71,739.67 L957.6,750 M1559.33,100.59 L1550.95,95.13 M1364.04,390.95 L1352.46,397.72 M1364.04,390.95 L1362.51,404.28 M1364.04,390.95 L1357.48,401 M1131.17,826.34 L1122.04,830.43 M1197.29,986.05 L1196.72,999.45 M1197.29,986.05 L1207.67,994.55 M1197.29,986.05 L1202.2,997 M1009.88,714.96 L1004,706.87 M524.08,1061.94 L510.84,1064.15 M524.08,1061.94 L517.9,1073.85 M524.08,1061.94 L514.37,1069 M1012.28,801.8 L1004.37,795.68 M806.78,1059.51 L794.69,1065.33 M806.78,1059.51 L804.19,1072.67 M806.78,1059.51 L799.44,1069 M2144.16,152.52 L2136.88,145.68 M1351.73,988.26 L1339.14,992.89 M1351.73,988.26 L1347.89,1001.11 M1351.73,988.26 L1343.52,997 M404.34,470 L394.34,470 M399.34,995 L393.34,1007 M399.34,995 L405.34,1007 M399.34,995 L399.34,1007 M1122.16,182.46 L1115.19,175.29 M675.57,609.64 L662.78,613.7 M675.57,609.64 L671.15,622.3 M675.57,609.64 L666.97,618 M600.48,883.96 L592.97,890.56 M676.48,977.99 L679.9,990.96 M676.48,977.99 L688.91,983.04 M676.48,977.99 L684.4,987 M671.41,979.79 L678.92,973.18 M467.16,758.6 L459.15,752.62 M236.48,1059.38 L224.49,1065.41 M236.48,1059.38 L234.11,1072.59 M236.48,1059.38 L229.3,1069 M233.67,1054.79 L241.68,1060.77 M724.24,754.45 L715.05,758.41 M849.69,1057.98 L848.93,1071.38 M849.69,1057.98 L859.95,1066.62 M849.69,1057.98 L854.44,1069 M844.3,1058.12 L853.49,1054.16 M1905.83,152.39 L1899.16,144.94 M986.21,969 L973.26,972.53 M986.21,969 L981.27,981.47 M986.21,969 L977.27,977 M1011.54,451.56 L1002.86,446.59 M870.7,687.59 L859.53,695.02 M870.7,687.59 L869.95,700.98 M870.7,687.59 L864.74,698" fill="none" stroke="#333333"/>
    <path d="M660.26,289.45 A4,4 0 1,0 668.26,289.45 A4,4 0 1,0 660.26,289.45 Z M503.01,389.29 A4,4 0 1,0 511.01,389.29 A4,4 0 1,0 503.01,389.29 Z M619.68,601.26 A4,4 0 1,0 627.68,601.26 A4,4 0 1,0 619.68,601.26 Z M1313.72,664.13 A4,4 0 1,0 1321.72,664.13 A4,4 0 1,0 1313.72,664.13 Z M997.55,347.1 A4,4 0 1,0 1005.55,347.1 A4,4 0 1,0 997.55,347.1 Z M522.98,602.86 A4,4 0 1,0 530.98,602.86 A4,4 0 1,0 522.98,602.86 Z M577.05,606.56 A4,4 0 1,0 585.05,606.56 A4,4 0 1,0 577.05,606.56 Z M1334.41,12 A4,4 0 1,0 1342.41,12 A4,4 0 1,0 1334.41,12 Z M1269.84,266.67 A4,4 0 1,0 1277.84,266.67 A4,4 0 1,0 1269.84,266.67 Z M1431.68,664.14 A4,4 0 1,0 1439.68,664.14 A4,4 0 1,0 1431.68,664.14 Z M962.77,734.51 A4,4 0 1,0 970.77,734.51 A4,4 0 1,0 962.77,734.51 Z M1363.32,385.92 A4,4 0 1,0 1371.32,385.92 A4,4 0 1,0 1363.32,385.92 Z M1190.83,980.58 A4,4 0 1,0 1198.83,980.58 A4,4 0 1,0 1190.83,980.58 Z M524.93,1058.42 A4,4 0 1,0 532.93,1058.42 A4,4 0 1,0 524.93,1058.42 Z M806.45,1054.76 A4,4 0 1,0 814.45,1054.76 A4,4 0 1,0 806.45,1054.76 Z M1351.84,983.88 A4,4 0 1,0 1359.84,983.88 A4,4 0 1,0 1351.84,983.88 Z M395.34,989 A4,4 0 1,0 403.34,989 A4,4 0 1,0 395.34,989 Z M675.87,605.45 A4,4 0 1,0 683.87,605.45 A4,4 0 1,0 675.87,605.45 Z M986.68,964.99 A4,4 0 1,0 994.68,964.99 A4,4 0 1,0 986.68,964.99 Z M869.68,682.38 A4,4 0 1,0 877.68,682.38 A4,4 0 1,0 869.68,682.38 Z" fill="#ffffff" stroke="#333333"/>
    <text x="740.83" y="241.5" fill="#333333" text-anchor="middle" dy="-2">has</text>
    <text x="621.31" y="246.5" fill="#333333" text-anchor="middle" dy="-2">owns</text>
    <text x="702.94" y="401" fill="#333333" text-anchor="middle" dy="-2">places</text>
    <text x="1124.76" y="431" fill="#333333" text-anchor="middle" dy="-2">writes</text>
    <text x="943.58" y="271.5" fill="#333333" text-anchor="middle" dy="-2">maintains</text>
    <text x="554.22" y="560.5" fill="#333333" text-anchor="middle" dy="-2">&quot;shipping_address&quot;</text>
    <text x="636.99" y="560.5" fill="#333333" text-anchor="middle" dy="-2">&quot;billing_address&quot;</text>
    <text x="1467.79" y="16" fill="#333333" text-anchor="middle" dy="-2">&quot;parent_category&quot;</text>
    <text x="1327.16" y="216.5" fill="#333333" text-anchor="middle" dy="-2">contains</text>
    <text x="1163.21" y="600.5" fill="#333333" text-anchor="middle" dy="-2">&quot;has_variants&quot;</text>
    <text x="1382.97" y="600.5" fill="#333333" text-anchor="middle" dy="-2">&quot;receives&quot;</text>
    <text x="1060.79" y="575.5" fill="#333333" text-anchor="middle" dy="-2">&quot;appears_in&quot;</text>
    <text x="1458.22" y="246.5" fill="#333333" text-anchor="middle" dy="-2">supplies</text>
    <text x="1162.97" y="909.5" fill="#333333" text-anchor="middle" dy="-2">tracked_in</text>
    <text x="763.49" y="887.9" fill="#333333" text-anchor="middle" dy="-2">&quot;in_cart&quot;</text>
    <text x="906.02" y="931.1" fill="#333333" text-anchor="middle" dy="-2">&quot;in_order&quot;</text>
    <text x="1744.42" y="570.5" fill="#333333" text-anchor="middle" dy="-2">contains</text>
    <text x="399.34" y="735" fill="#333333" text-anchor="middle" dy="-2">contains</text>
    <text x="895.33" y="396" fill="#333333" text-anchor="middle" dy="-2">applied_to</text>
    <text x="638.26" y="934.5" fill="#333333" text-anchor="middle" dy="-2">contains</text>
    <text x="348.32" y="909.5" fill="#333333" text-anchor="middle" dy="-2">receives</text>
    <text x="785.66" y="909.5" fill="#333333" text-anchor="middle" dy="-2">generates</text>
    <text x="1442.49" y="560.5" fill="#333333" text-anchor="middle" dy="-2">used_by</text>
    <text x="937.71" y="570.5" fill="#333333" text-anchor="middle" dy="-2">contains</text>
    <path d="M744.99,0 H964.16 V184 H744.99 Z M552.64,299 H745.37 V503 H552.64 Z M301.03,339 H497.64 V463 H301.03 Z M467.34,618 H716.87 V882 H467.34 Z M1289.88,678 H1486.49 V822 H1289.88 Z M912.37,359 H1108.98 V443 H912.37 Z M1283.22,30 H1503.97 V154 H1283.22 Z M1163.98,279 H1357.48 V523 H1163.98 Z M1012.6,678 H1234.88 V822 H1012.6 Z M771.87,698 H957.6 V802 H771.87 Z M1558.97,30 H1746.24 V154 H1558.97 Z M1155.09,997 H1390.62 V1141 H1155.09 Z M284.3,1007 H514.37 V1131 H284.3 Z M569.37,987 H799.44 V1151 H569.37 Z M2069.19,40 H2221.44 V144 H2069.19 Z M1019.16,10 H1228.22 V174 H1019.16 Z M0,987 H229.3 V1151 H0 Z M854.44,977 H1100.09 V1161 H854.44 Z M1801.24,40 H2014.19 V144 H1801.24 Z" fill="#ECECFF" stroke="#9370DB"/>
    <path d="M744.99,24 L964.16,24 M744.99,44 L964.16,44 M744.99,64 L964.16,64 M744.99,84 L964.16,84 M744.99,104 L964.16,104 M744.99,124 L964.16,124 M744.99,144 L964.16,144 M744.99,164 L964.16,164 M814.68,24 L814.68,184 M928.72,24 L928.72,184 M552.64,323 L745.37,323 M552.64,343 L745.37,343 M552.64,363 L745.37,363 M552.64,383 L745.37,383 M552.64,403 L745.37,403 M552.64,423 L745.37,423 M552.64,443 L745.37,443 M552.64,463 L745.37,463 M552.64,483 L745.37,483 M618.45,323 L618.45,503 M710.7,323 L710.7,503 M301.03,363 L497.64,363 M301.03,383 L497.64,383 M301.03,403 L497.64,403 M301.03,423 L497.64,423 M301.03,443 L497.64,443 M370.72,363 L370.72,463 M462.96,363 L462.96,463 M467.34,642 L716.87,642 M467.34,662 L716.87,662 M467.34,682 L716.87,682 M467.34,702 L716.87,702 M467.34,722 L716.87,722 M467.34,742 L716.87,742 M467.34,762 L716.87,762 M467.34,782 L716.87,782 M467.34,802 L716.87,802 M467.34,822 L716.87,822 M467.34,842 L716.87,842 M467.34,862 L716.87,862 M537.03,642 L537.03,882 M681.43,642 L681.43,882 M1289.88,702 L1486.49,702 M1289.88,722 L1486.49,722 M1289.88,742 L1486.49,742 M1289.88,762 L1486.49,762 M1289.88,782 L1486.49,782 M1289.88,802 L1486.49,802 M1359.57,702 L1359.57,822 M1451.81,702 L1451.81,822 M912.37,383 L1108.98,383 M912.37,403 L1108.98,403 M912.37,423 L1108.98,423 M982.06,383 L982.06,443 M1074.31,383 L1074.31,443 M1283.22,54 L1503.97,54 M1283.22,74 L1503.97,74 M1283.22,94 L1503.97,94 M1283.22,114 L1503.97,114 M1283.22,134 L1503.97,134 M1333.45,54 L1333.45,154 M1469.29,54 L1469.29,154 M1163.98,303 L1357.48,303 M1163.98,323 L1357.48,323 M1163.98,343 L1357.48,343 M1163.98,363 L1357.48,363 M1163.98,383 L1357.48,383 M1163.98,403 L1357.48,403 M1163.98,423 L1357.48,423 M1163.98,443 L1357.48,443 M1163.98,463 L1357.48,463 M1163.98,483 L1357.48,483 M1163.98,503 L1357.48,503 M1233.67,303 L1233.67,523 M1322.04,303 L1322.04,523 M1012.6,702 L1234.88,702 M1012.6,722 L1234.88,722 M1012.6,742 L1234.88,742 M1012.6,762 L1234.88,762 M1012.6,782 L1234.88,782 M1012.6,802 L1234.88,802 M1076.83,702 L1076.83,822 M1199.43,702 L1199.43,822 M771.87,722 L957.6,722 M771.87,742 L957.6,742 M771.87,762 L957.6,762 M771.87,782 L957.6,782 M841.56,722 L841.56,802 M922.93,722 L922.93,802 M1558.97,54 L1746.24,54 M1558.97,74 L1746.24,74 M1558.97,94 L1746.24,94 M1558.97,114 L1746.24,114 M1558.97,134 L1746.24,134 M1609.2,54 L1609.2,154 M1711.56,54 L1711.56,154 M1155.09,1021 L1390.62,1021 M1155.09,1041 L1390.62,1041 M1155.09,1061 L1390.62,1061 M1155.09,1081 L1390.62,1081 M1155.09,1101 L1390.62,1101 M1155.09,1121 L1390.62,1121 M1224.78,1021 L1224.78,1141 M1355.95,1021 L1355.95,1141 M284.3,1031 L514.37,1031 M284.3,1051 L514.37,1051 M284.3,1071 L514.37,1071 M284.3,1091 L514.37,1091 M284.3,1111 L514.37,1111 M348.53,1031 L348.53,1131 M479.69,1031 L479.69,1131 M569.37,1011 L799.44,1011 M569.37,1031 L799.44,1031 M569.37,1051 L799.44,1051 M569.37,1071 L799.44,1071 M569.37,1091 L799.44,1091 M569.37,1111 L799.44,1111 M569.37,1131 L799.44,1131 M633.6,1011 L633.6,1151 M764.76,1011 L764.76,1151 M2069.19,64 L2221.44,64 M2069.19,84 L2221.44,84 M2069.19,104 L2221.44,104 M2069.19,124 L2221.44,124 M2119.42,64 L2119.42,144 M2186.77,64 L2186.77,144 M1019.16,34 L1228.22,34 M1019.16,54 L1228.22,54 M1019.16,74 L1228.22,74 M1019.16,94 L1228.22,94 M1019.16,114 L1228.22,114 M1019.16,134 L1228.22,134 M1019.16,154 L1228.22,154 M1083.39,34 L1083.39,174 M1192.77,34 L1192.77,174 M0,1011 L229.3,1011 M0,1031 L229.3,1031 M0,1051 L229.3,1051 M0,1071 L229.3,1071 M0,1091 L229.3,1091 M0,1111 L229.3,1111 M0,1131 L229.3,1131 M69.69,1011 L69.69,1151 M193.85,1011 L193.85,1151 M854.44,1001 L1100.09,1001 M854.44,1021 L1100.09,1021 M854.44,1041 L1100.09,1041 M854.44,1061 L1100.09,1061 M854.44,1081 L1100.09,1081 M854.44,1101 L1100.09,1101 M854.44,1121 L1100.09,1121 M854.44,1141 L1100.09,1141 M924.13,1001 L924.13,1161 M1065.42,1001 L1065.42,1161 M1801.24,64 L2014.19,64 M1801.24,84 L2014.19,84 M1801.24,104 L2014.19,104 M1801.24,124 L2014.19,124 M1865.47,64 L1865.47,144 M1979.51,64 L1979.51,144" fill="none" stroke="#9370DB"/>
    <text x="854.57" y="14" fill="#333333" text-anchor="middle" font-weight="bold">CUSTOMER</text>
    <text x="752.99" y="41" fill="#333333">int</text>
    <text x="752.99" y="61" fill="#333333">string</text>
    <text x="752.99" y="81" fill="#333333">string</text>
    <text x="752.99" y="101" fill="#333333">string</text>
    <text x="752.99" y="121" fill="#333333">string</text>
    <text x="752.99" y="141" fill="#333333">string</text>
    <text x="752.99" y="161" fill="#333333">datetime</text>
    <text x="752.99" y="181" fill="#333333">boolean</text>
    <text x="822.68" y="41" fill="#333333">id</text>
    <text x="822.68" y="61" fill="#333333">first_name</text>
    <text x="822.68" y="81" fill="#333333">last_name</text>
    <text x="822.68" y="101" fill="#333333">email</text>
    <text x="822.68" y="121" fill="#333333">phone</text>
    <text x="822.68" y="141" fill="#333333">password_hash</text>
    <text x="822.68" y="161" fill="#333333">created_at</text>
    <text x="822.68" y="181" fill="#333333">is_active</text>
    <text x="936.72" y="41" fill="#333333">PK</text>
    <text x="936.72" y="101" fill="#333333">UK</text>
    <text x="649.01" y="313" fill="#333333" text-anchor="middle" font-weight="bold">ADDRESS</text>
    <text x="560.64" y="340" fill="#333333">int</text>
    <text x="560.64" y="360" fill="#333333">int</text>
    <text x="560.64" y="380" fill="#333333">string</text>
    <text x="560.64" y="400" fill="#333333">string</text>
    <text x="560.64" y="420" fill="#333333">string</text>
    <text x="560.64" y="440" fill="#333333">string</text>
    <text x="560.64" y="460" fill="#333333">string</text>
    <text x="560.64" y="480" fill="#333333">string</text>
    <text x="560.64" y="500" fill="#333333">boolean</text>
    <text x="626.45" y="340" fill="#333333">id</text>
    <text x="626.45" y="360" fill="#333333">customer_id</text>
    <text x="626.45" y="380" fill="#333333">label</text>
    <text x="626.45" y="400" fill="#333333">street</text>
    <text x="626.45" y="420" fill="#333333">city</text>
    <text x="626.45" y="440" fill="#333333">state</text>
    <text x="626.45" y="460" fill="#333333">postal_code</text>
    <text x="626.45" y="480" fill="#333333">country</text>
    <text x="626.45" y="500" fill="#333333">is_default</text>
    <text x="718.7" y="340" fill="#333333">PK</text>
    <text x="718.7" y="360" fill="#333333">FK</text>
    <text x="399.34" y="353" fill="#333333" text-anchor="middle" font-weight="bold">CART</text>
    <text x="309.03" y="380" fill="#333333">int</text>
    <text x="309.03" y="400" fill="#333333">int</text>
    <text x="309.03" y="420" fill="#333333">datetime</text>
    <text x="309.03" y="440" fill="#333333">datetime</text>
    <text x="309.03" y="460" fill="#333333">string</text>
    <text x="378.72" y="380" fill="#333333">id</text>
    <text x="378.72" y="400" fill="#333333">customer_id</text>
    <text x="378.72" y="420" fill="#333333">created_at</text>
    <text x="378.72" y="440" fill="#333333">updated_at</text>
    <text x="378.72" y="460" fill="#333333">status</text>
    <text x="470.96" y="380" fill="#333333">PK</text>
    <text x="470.96" y="400" fill="#333333">FK</text>
    <text x="592.11" y="632" fill="#333333" text-anchor="middle" font-weight="bold">ORDER</text>
    <text x="475.34" y="659" fill="#333333">int</text>
    <text x="475.34" y="679" fill="#333333">int</text>
    <text x="475.34" y="699" fill="#333333">int</text>
    <text x="475.34" y="719" fill="#333333">int</text>
    <text x="475.34" y="739" fill="#333333">int</text>
    <text x="475.34" y="759" fill="#333333">string</text>
    <text x="475.34" y="779" fill="#333333">datetime</text>
    <text x="475.34" y="799" fill="#333333">string</text>
    <text x="475.34" y="819" fill="#333333">decimal</text>
    <text x="475.34" y="839" fill="#333333">decimal</text>
    <text x="475.34" y="859" fill="#333333">decimal</text>
    <text x="475.34" y="879" fill="#333333">decimal</text>
    <text x="545.03" y="659" fill="#333333">id</text>
    <text x="545.03" y="679" fill="#333333">customer_id</text>
    <text x="545.03" y="699" fill="#333333">shipping_address_id</text>
    <text x="545.03" y="719" fill="#333333">billing_address_id</text>
    <text x="545.03" y="739" fill="#333333">coupon_id</text>
    <text x="545.03" y="759" fill="#333333">order_number</text>
    <text x="545.03" y="779" fill="#333333">order_date</text>
    <text x="545.03" y="799" fill="#333333">status</text>
    <text x="545.03" y="819" fill="#333333">subtotal</text>
    <text x="545.03" y="839" fill="#333333">tax_amount</text>
    <text x="545.03" y="859" fill="#333333">shipping_cost</text>
    <text x="545.03" y="879" fill="#333333">total_amount</text>
    <text x="689.43" y="659" fill="#333333">PK</text>
    <text x="689.43" y="679" fill="#333333">FK</text>
    <text x="689.43" y="699" fill="#333333">FK</text>
    <text x="689.43" y="719" fill="#333333">FK</text>
    <text x="689.43" y="739" fill="#333333">FK</text>
    <text x="689.43" y="759" fill="#333333">UK</text>
    <text x="1388.18" y="692" fill="#333333" text-anchor="middle" font-weight="bold">REVIEW</text>
    <text x="1297.88" y="719" fill="#333333">int</text>
    <text x="1297.88" y="739" fill="#333333">int</text>
    <text x="1297.88" y="759" fill="#333333">int</text>
    <text x="1297.88" y="779" fill="#333333">int</text>
    <text x="1297.88" y="799" fill="#333333">string</text>
    <text x="1297.88" y="819" fill="#333333">datetime</text>
    <text x="1367.57" y="719" fill="#333333">id</text>
    <text x="1367.57" y="739" fill="#333333">product_id</text>
    <text x="1367.57" y="759" fill="#333333">customer_id</text>
    <text x="1367.57" y="779" fill="#333333">rating</text>
    <text x="1367.57" y="799" fill="#333333">comment</text>
    <text x="1367.57" y="819" fill="#333333">created_at</text>
    <text x="1459.81" y="719" fill="#333333">PK</text>
    <text x="1459.81" y="739" fill="#333333">FK</text>
    <text x="1459.81" y="759" fill="#333333">FK</text>
    <text x="1010.68" y="373" fill="#333333" text-anchor="middle" font-weight="bold">WISHLIST</text>
    <text x="920.37" y="400" fill="#333333">int</text>
    <text x="920.37" y="420" fill="#333333">int</text>
    <text x="920.37" y="440" fill="#333333">datetime</text>
    <text x="990.06" y="400" fill="#333333">id</text>
    <text x="990.06" y="420" fill="#333333">customer_id</text>
    <text x="990.06" y="440" fill="#333333">created_at</text>
    <text x="1082.31" y="400" fill="#333333">PK</text>
    <text x="1082.31" y="420" fill="#333333">FK</text>
    <text x="1393.59" y="44" fill="#333333" text-anchor="middle" font-weight="bold">CATEGORY</text>
    <text x="1291.22" y="71" fill="#333333">int</text>
    <text x="1291.22" y="91" fill="#333333">int</text>
    <text x="1291.22" y="111" fill="#333333">string</text>
    <text x="1291.22" y="131" fill="#333333">string</text>
    <text x="1291.22" y="151" fill="#333333">string</text>
    <text x="1341.45" y="71" fill="#333333">id</text>
    <text x="1341.45" y="91" fill="#333333">parent_category_id</text>
    <text x="1341.45" y="111" fill="#333333">name</text>
    <text x="1341.45" y="131" fill="#333333">slug</text>
    <text x="1341.45" y="151" fill="#333333">description</text>
    <text x="1477.29" y="71" fill="#333333">PK</text>
    <text x="1477.29" y="91" fill="#333333">FK</text>
    <text x="1260.73" y="293" fill="#333333" text-anchor="middle" font-weight="bold">PRODUCT</text>
    <text x="1171.98" y="320" fill="#333333">int</text>
    <text x="1171.98" y="340" fill="#333333">int</text>
    <text x="1171.98" y="360" fill="#333333">int</text>
    <text x="1171.98" y="380" fill="#333333">string</text>
    <text x="1171.98" y="400" fill="#333333">string</text>
    <text x="1171.98" y="420" fill="#333333">string</text>
    <text x="1171.98" y="440" fill="#333333">decimal</text>
    <text x="1171.98" y="460" fill="#333333">string</text>
    <text x="1171.98" y="480" fill="#333333">decimal</text>
    <text x="1171.98" y="500" fill="#333333">boolean</text>
    <text x="1171.98" y="520" fill="#333333">datetime</text>
    <text x="1241.67" y="320" fill="#333333">id</text>
    <text x="1241.67" y="340" fill="#333333">category_id</text>
    <text x="1241.67" y="360" fill="#333333">supplier_id</text>
    <text x="1241.67" y="380" fill="#333333">sku</text>
    <text x="1241.67" y="400" fill="#333333">name</text>
    <text x="1241.67" y="420" fill="#333333">description</text>
    <text x="1241.67" y="440" fill="#333333">price</text>
    <text x="1241.67" y="460" fill="#333333">currency</text>
    <text x="1241.67" y="480" fill="#333333">weight_kg</text>
    <text x="1241.67" y="500" fill="#333333">is_active</text>
    <text x="1241.67" y="520" fill="#333333">created_at</text>
    <text x="1330.04" y="320" fill="#333333">PK</text>
    <text x="1330.04" y="340" fill="#333333">FK</text>
    <text x="1330.04" y="360" fill="#333333">FK</text>
    <text x="1330.04" y="380" fill="#333333">UK</text>
    <text x="1123.74" y="692" fill="#333333" text-anchor="middle" font-weight="bold">PRODUCT_VARIANT</text>
    <text x="1020.6" y="719" fill="#333333">int</text>
    <text x="1020.6" y="739" fill="#333333">int</text>
    <text x="1020.6" y="759" fill="#333333">string</text>
    <text x="1020.6" y="779" fill="#333333">string</text>
    <text x="1020.6" y="799" fill="#333333">string</text>
    <text x="1020.6" y="819" fill="#333333">decimal</text>
    <text x="1084.83" y="719" fill="#333333">id</text>
    <text x="1084.83" y="739" fill="#333333">product_id</text>
    <text x="1084.83" y="759" fill="#333333">sku</text>
    <text x="1084.83" y="779" fill="#333333">size</text>
    <text x="1084.83" y="799" fill="#333333">color</text>
    <text x="1084.83" y="819" fill="#333333">price_adjustment</text>
    <text x="1207.43" y="719" fill="#333333">PK</text>
    <text x="1207.43" y="739" fill="#333333">FK</text>
    <text x="1207.43" y="759" fill="#333333">UK</text>
    <text x="864.74" y="712" fill="#333333" text-anchor="middle" font-weight="bold">WISHLIST_ITEM</text>
    <text x="779.87" y="739" fill="#333333">int</text>
    <text x="779.87" y="759" fill="#333333">int</text>
    <text x="779.87" y="779" fill="#333333">int</text>
    <text x="779.87" y="799" fill="#333333">datetime</text>
    <text x="849.56" y="739" fill="#333333">id</text>
    <text x="849.56" y="759" fill="#333333">wishlist_id</text>
    <text x="849.56" y="779" fill="#333333">product_id</text>
    <text x="849.56" y="799" fill="#333333">added_at</text>
    <text x="930.93" y="739" fill="#333333">PK</text>
    <text x="930.93" y="759" fill="#333333">FK</text>
    <text x="930.93" y="779" fill="#333333">FK</text>
    <text x="1652.6" y="44" fill="#333333" text-anchor="middle" font-weight="bold">SUPPLIER</text>
    <text x="1566.97" y="71" fill="#333333">int</text>
    <text x="1566.97" y="91" fill="#333333">string</text>
    <text x="1566.97" y="111" fill="#333333">string</text>
    <text x="1566.97" y="131" fill="#333333">string</text>
    <text x="1566.97" y="151" fill="#333333">string</text>
    <text x="1617.2" y="71" fill="#333333">id</text>
    <text x="1617.2" y="91" fill="#333333">name</text>
    <text x="1617.2" y="111" fill="#333333">contact_email</text>
    <text x="1617.2" y="131" fill="#333333">phone</text>
    <text x="1617.2" y="151" fill="#333333">address</text>
    <text x="1719.56" y="71" fill="#333333">PK</text>
    <text x="1272.86" y="1011" fill="#333333" text-anchor="middle" font-weight="bold">INVENTORY</text>
    <text x="1163.09" y="1038" fill="#333333">int</text>
    <text x="1163.09" y="1058" fill="#333333">int</text>
    <text x="1163.09" y="1078" fill="#333333">int</text>
    <text x="1163.09" y="1098" fill="#333333">int</text>
    <text x="1163.09" y="1118" fill="#333333">int</text>
    <text x="1163.09" y="1138" fill="#333333">datetime</text>
    <text x="1232.78" y="1038" fill="#333333">id</text>
    <text x="1232.78" y="1058" fill="#333333">product_variant_id</text>
    <text x="1232.78" y="1078" fill="#333333">warehouse_id</text>
    <text x="1232.78" y="1098" fill="#333333">quantity_on_hand</text>
    <text x="1232.78" y="1118" fill="#333333">reorder_level</text>
    <text x="1232.78" y="1138" fill="#333333">updated_at</text>
    <text x="1363.95" y="1038" fill="#333333">PK</text>
    <text x="1363.95" y="1058" fill="#333333">FK</text>
    <text x="1363.95" y="1078" fill="#333333">FK</text>
    <text x="399.34" y="1021" fill="#333333" text-anchor="middle" font-weight="bold">CART_ITEM</text>
    <text x="292.3" y="1048" fill="#333333">int</text>
    <text x="292.3" y="1068" fill="#333333">int</text>
    <text x="292.3" y="1088" fill="#333333">int</text>
    <text x="292.3" y="1108" fill="#333333">int</text>
    <text x="292.3" y="1128" fill="#333333">decimal</text>
    <text x="356.53" y="1048" fill="#333333">id</text>
    <text x="356.53" y="1068" fill="#333333">cart_id</text>
    <text x="356.53" y="1088" fill="#333333">product_variant_id</text>
    <text x="356.53" y="1108" fill="#333333">quantity</text>
    <text x="356.53" y="1128" fill="#333333">unit_price</text>
    <text x="487.69" y="1048" fill="#333333">PK</text>
    <text x="487.69" y="1068" fill="#333333">FK</text>
    <text x="487.69" y="1088" fill="#333333">FK</text>
    <text x="684.4" y="1001" fill="#333333" text-anchor="middle" font-weight="bold">ORDER_ITEM</text>
    <text x="577.37" y="1028" fill="#333333">int</text>
    <text x="577.37" y="1048" fill="#333333">int</text>
    <text x="577.37" y="1068" fill="#333333">int</text>
    <text x="577.37" y="1088" fill="#333333">int</text>
    <text x="577.37" y="1108" fill="#333333">decimal</text>
    <text x="577.37" y="1128" fill="#333333">decimal</text>
    <text x="577.37" y="1148" fill="#333333">decimal</text>
    <text x="641.6" y="1028" fill="#333333">id</text>
    <text x="641.6" y="1048" fill="#333333">order_id</text>
    <text x="641.6" y="1068" fill="#333333">product_variant_id</text>
    <text x="641.6" y="1088" fill="#333333">quantity</text>
    <text x="641.6" y="1108" fill="#333333">unit_price</text>
    <text x="641.6" y="1128" fill="#333333">discount_amount</text>
    <text x="641.6" y="1148" fill="#333333">line_total</text>
    <text x="772.76" y="1028" fill="#333333">PK</text>
    <text x="772.76" y="1048" fill="#333333">FK</text>
    <text x="772.76" y="1068" fill="#333333">FK</text>
    <text x="2145.31" y="54" fill="#333333" text-anchor="middle" font-weight="bold">WAREHOUSE</text>
    <text x="2077.19" y="81" fill="#333333">int</text>
    <text x="2077.19" y="101" fill="#333333">string</text>
    <text x="2077.19" y="121" fill="#333333">string</text>
    <text x="2077.19" y="141" fill="#333333">int</text>
    <text x="2127.42" y="81" fill="#333333">id</text>
    <text x="2127.42" y="101" fill="#333333">name</text>
    <text x="2127.42" y="121" fill="#333333">location</text>
    <text x="2127.42" y="141" fill="#333333">capacity</text>
    <text x="2194.77" y="81" fill="#333333">PK</text>
    <text x="1123.69" y="24" fill="#333333" text-anchor="middle" font-weight="bold">COUPON</text>
    <text x="1027.16" y="51" fill="#333333">int</text>
    <text x="1027.16" y="71" fill="#333333">string</text>
    <text x="1027.16" y="91" fill="#333333">string</text>
    <text x="1027.16" y="111" fill="#333333">decimal</text>
    <text x="1027.16" y="131" fill="#333333">date</text>
    <text x="1027.16" y="151" fill="#333333">date</text>
    <text x="1027.16" y="171" fill="#333333">int</text>
    <text x="1091.39" y="51" fill="#333333">id</text>
    <text x="1091.39" y="71" fill="#333333">code</text>
    <text x="1091.39" y="91" fill="#333333">discount_type</text>
    <text x="1091.39" y="111" fill="#333333">discount_value</text>
    <text x="1091.39" y="131" fill="#333333">valid_from</text>
    <text x="1091.39" y="151" fill="#333333">valid_until</text>
    <text x="1091.39" y="171" fill="#333333">usage_limit</text>
    <text x="1200.77" y="51" fill="#333333">PK</text>
    <text x="1200.77" y="71" fill="#333333">UK</text>
    <text x="114.65" y="1001" fill="#333333" text-anchor="middle" font-weight="bold">PAYMENT</text>
    <text x="8" y="1028" fill="#333333">int</text>
    <text x="8" y="1048" fill="#333333">int</text>
    <text x="8" y="1068" fill="#333333">string</text>
    <text x="8" y="1088" fill="#333333">string</text>
    <text x="8" y="1108" fill="#333333">decimal</text>
    <text x="8" y="1128" fill="#333333">string</text>
    <text x="8" y="1148" fill="#333333">datetime</text>
    <text x="77.69" y="1028" fill="#333333">id</text>
    <text x="77.69" y="1048" fill="#333333">order_id</text>
    <text x="77.69" y="1068" fill="#333333">payment_method</text>
    <text x="77.69" y="1088" fill="#333333">transaction_id</text>
    <text x="77.69" y="1108" fill="#333333">amount</text>
    <text x="77.69" y="1128" fill="#333333">status</text>
    <text x="77.69" y="1148" fill="#333333">paid_at</text>
    <text x="201.85" y="1028" fill="#333333">PK</text>
    <text x="201.85" y="1048" fill="#333333">FK</text>
    <text x="201.85" y="1088" fill="#333333">UK</text>
    <text x="977.27" y="991" fill="#333333" text-anchor="middle" font-weight="bold">SHIPMENT</text>
    <text x="862.44" y="1018" fill="#333333">int</text>
    <text x="862.44" y="1038" fill="#333333">int</text>
    <text x="862.44" y="1058" fill="#333333">int</text>
    <text x="862.44" y="1078" fill="#333333">string</text>
    <text x="862.44" y="1098" fill="#333333">string</text>
    <text x="862.44" y="1118" fill="#333333">datetime</text>
    <text x="862.44" y="1138" fill="#333333">datetime</text>
    <text x="862.44" y="1158" fill="#333333">string</text>
    <text x="932.13" y="1018" fill="#333333">id</text>
    <text x="932.13" y="1038" fill="#333333">order_id</text>
    <text x="932.13" y="1058" fill="#333333">shipping_method_id</text>
    <text x="932.13" y="1078" fill="#333333">tracking_number</text>
    <text x="932.13" y="1098" fill="#333333">carrier</text>
    <text x="932.13" y="1118" fill="#333333">shipped_at</text>
    <text x="932.13" y="1138" fill="#333333">delivered_at</text>
    <text x="932.13" y="1158" fill="#333333">status</text>
    <text x="1073.42" y="1018" fill="#333333">PK</text>
    <text x="1073.42" y="1038" fill="#333333">FK</text>
    <text x="1073.42" y="1058" fill="#333333">FK</text>
    <text x="1907.71" y="54" fill="#333333" text-anchor="middle" font-weight="bold">SHIPPING_METHOD</text>
    <text x="1809.24" y="81" fill="#333333">int</text>
    <text x="1809.24" y="101" fill="#333333">string</text>
    <text x="1809.24" y="121" fill="#333333">int</text>
    <text x="1809.24" y="141" fill="#333333">decimal</text>
    <text x="1873.47" y="81" fill="#333333">id</text>
    <text x="1873.47" y="101" fill="#333333">name</text>
    <text x="1873.47" y="121" fill="#333333">estimated_days</text>
    <text x="1873.47" y="141" fill="#333333">cost</text>
    <text x="1987.51" y="81" fill="#333333">PK</text>
  </g>
</svg>
