<svg role="img" xmlns="http://www.w3.org/2000/svg" width="792" height="254.6" viewBox="0 0 792 254.6" font-family="sans-serif" font-size="14">
  <rect width="100%" height="100%" fill="#ffffff"/>
  <text x="396" y="30" fill="#333333" text-anchor="middle" font-weight="bold">Web Development History</text>
  <line x1="16" y1="107.8" x2="776" y2="107.8" stroke="#333333" stroke-width="2"/>
  <rect x="16" y="47.6" width="760" height="22" fill="#5B8FF9" fill-opacity="0.3" stroke="#A4C1FB"/>
  <text x="111" y="93.6" fill="#333333" text-anchor="middle" font-weight="bold">1989</text>
  <circle cx="111" cy="107.8" r="5" fill="#ECECFF" stroke="#A4C1FB" stroke-width="2"/>
  <rect x="24" y="125.8" width="174" height="48.4" rx="4" fill="#5B8FF9" fill-opacity="0.18" stroke="#A4C1FB" stroke-width="2"/>
  <text x="111" y="143.7" fill="#333333" text-anchor="middle">Tim Berners-Lee invents</text>
  <text x="111" y="161.9" fill="#333333" text-anchor="middle">the World Wide Web</text>
  <text x="301" y="93.6" fill="#333333" text-anchor="middle" font-weight="bold">1995</text>
  <circle cx="301" cy="107.8" r="5" fill="#ECECFF" stroke="#A4C1FB" stroke-width="2"/>
  <rect x="214" y="125.8" width="174" height="48.4" rx="4" fill="#5B8FF9" fill-opacity="0.18" stroke="#A4C1FB" stroke-width="2"/>
  <text x="301" y="143.7" fill="#333333" text-anchor="middle">Netscape releases</text>
  <text x="301" y="161.9" fill="#333333" text-anchor="middle">JavaScript</text>
  <rect x="214" y="182.2" width="174" height="30.2" rx="4" fill="#5B8FF9" fill-opacity="0.18" stroke="#A4C1FB" stroke-width="2"/>
  <text x="301" y="200.1" fill="#333333" text-anchor="middle">PHP is created</text>
  <text x="491" y="93.6" fill="#333333" text-anchor="middle" font-weight="bold">2005</text>
  <circle cx="491" cy="107.8" r="5" fill="#ECECFF" stroke="#A4C1FB" stroke-width="2"/>
  <rect x="404" y="125.8" width="174" height="30.2" rx="4" fill="#5B8FF9" fill-opacity="0.18" stroke="#A4C1FB" stroke-width="2"/>
  <text x="491" y="143.7" fill="#333333" text-anchor="middle">AJAX is coined</text>
  <rect x="404" y="182.2" width="174" height="48.4" rx="4" fill="#5B8FF9" fill-opacity="0.18" stroke="#A4C1FB" stroke-width="2"/>
  <text x="491" y="200.1" fill="#333333" text-anchor="middle">Git is released by Linus</text>
  <text x="491" y="218.3" fill="#333333" text-anchor="middle">Torvalds</text>
  <text x="681" y="93.6" fill="#333333" text-anchor="middle" font-weight="bold">2013</text>
  <circle cx="681" cy="107.8" r="5" fill="#ECECFF" stroke="#A4C1FB" stroke-width="2"/>
  <rect x="594" y="125.8" width="174" height="48.4" rx="4" fill="#5B8FF9" fill-opacity="0.18" stroke="#A4C1FB" stroke-width="2"/>
  <text x="681" y="143.7" fill="#333333" text-anchor="middle">React is open-sourced by</text>
  <text x="681" y="161.9" fill="#333333" text-anchor="middle">Facebook</text>
</svg>
