<svg role="img" xmlns="http://www.w3.org/2000/svg" width="984.2" height="270" viewBox="0 0 984.2 270" font-family="sans-serif" font-size="16">
  <rect width="100%" height="100%" fill="#ffffff"/>
  <rect x="441.84" y="46" width="20" height="208" fill="#000000" fill-opacity="0.06"/>
  <rect x="461.84" y="46" width="20" height="208" fill="#000000" fill-opacity="0.06"/>
  <rect x="581.84" y="46" width="20" height="208" fill="#000000" fill-opacity="0.06"/>
  <rect x="601.84" y="46" width="20" height="208" fill="#000000" fill-opacity="0.06"/>
  <rect x="721.84" y="46" width="20" height="208" fill="#000000" fill-opacity="0.06"/>
  <rect x="741.84" y="46" width="20" height="208" fill="#000000" fill-opacity="0.06"/>
  <rect x="861.84" y="46" width="20" height="208" fill="#000000" fill-opacity="0.06"/>
  <rect x="881.84" y="46" width="20" height="208" fill="#000000" fill-opacity="0.06"/>
  <line x1="401.84" y1="46" x2="401.84" y2="254" stroke="#9370DB" stroke-opacity="0.25"/>
  <text x="401.84" y="38" fill="#333333" text-anchor="middle" font-size="12.8">10-01</text>
  <line x1="461.84" y1="46" x2="461.84" y2="254" stroke="#9370DB" stroke-opacity="0.25"/>
  <text x="461.84" y="38" fill="#333333" text-anchor="middle" font-size="12.8">10-04</text>
  <line x1="521.84" y1="46" x2="521.84" y2="254" stroke="#9370DB" stroke-opacity="0.25"/>
  <text x="521.84" y="38" fill="#333333" text-anchor="middle" font-size="12.8">10-07</text>
  <line x1="581.84" y1="46" x2="581.84" y2="254" stroke="#9370DB" stroke-opacity="0.25"/>
  <text x="581.84" y="38" fill="#333333" text-anchor="middle" font-size="12.8">10-10</text>
  <line x1="641.84" y1="46" x2="641.84" y2="254" stroke="#9370DB" stroke-opacity="0.25"/>
  <text x="641.84" y="38" fill="#333333" text-anchor="middle" font-size="12.8">10-13</text>
  <line x1="701.84" y1="46" x2="701.84" y2="254" stroke="#9370DB" stroke-opacity="0.25"/>
  <text x="701.84" y="38" fill="#333333" text-anchor="middle" font-size="12.8">10-16</text>
  <line x1="761.84" y1="46" x2="761.84" y2="254" stroke="#9370DB" stroke-opacity="0.25"/>
  <text x="761.84" y="38" fill="#333333" text-anchor="middle" font-size="12.8">10-19</text>
  <line x1="821.84" y1="46" x2="821.84" y2="254" stroke="#9370DB" stroke-opacity="0.25"/>
  <text x="821.84" y="38" fill="#333333" text-anchor="middle" font-size="12.8">10-22</text>
  <line x1="881.84" y1="46" x2="881.84" y2="254" stroke="#9370DB" stroke-opacity="0.25"/>
  <text x="881.84" y="38" fill="#333333" text-anchor="middle" font-size="12.8">10-25</text>
  <line x1="961.84" y1="46" x2="961.84" y2="254" stroke="#9370DB" stroke-opacity="0.25"/>
  <text x="961.84" y="38" fill="#333333" text-anchor="middle" font-size="12.8">10-29</text>
  <line x1="401.84" y1="46" x2="961.84" y2="46" stroke="#9370DB"/>
  <rect x="30" y="46" width="924.2" height="78" fill="#5B8FF9" fill-opacity="0.15"/>
  <text x="40" y="90.6" fill="#333333" font-weight="bold">Phase 1: Disc…</text>
  <rect x="30" y="124" width="924.2" height="78" fill="#61DDAA" fill-opacity="0.15"/>
  <text x="40" y="168.6" fill="#333333" font-weight="bold">Phase 2: Exec…</text>
  <rect x="30" y="202" width="924.2" height="52" fill="#F6BD16" fill-opacity="0.15"/>
  <text x="40" y="233.6" fill="#333333" font-weight="bold">Phase 3: Go-L…</text>
  <text x="156" y="64.6" fill="#333333">Infrastructure Audit</text>
  <rect x="401.84" y="49" width="80" height="20" rx="3" fill="#BFBFBF" stroke="#888888" stroke-width="1.5"/>
  <text x="156" y="90.6" fill="#333333">Risk Assessment</text>
  <rect x="401.84" y="75" width="40" height="20" rx="3" fill="#BFBFBF" stroke="#888888" stroke-width="1.5"/>
  <text x="156" y="116.6" fill="#333333">Migration Strategy Formulation</text>
  <rect x="481.84" y="101" width="100" height="20" rx="3" fill="#5B8FF9" stroke="#9370DB" stroke-width="1.5"/>
  <text x="156" y="142.6" fill="#333333">Database Replication Setup</text>
  <rect x="581.84" y="127" width="160" height="20" rx="3" fill="#FF8888" stroke="#CC3333" stroke-width="1.5"/>
  <text x="156" y="168.6" fill="#333333">App Refactoring</text>
  <rect x="581.84" y="153" width="280" height="20" rx="3" fill="#FF8888" stroke="#CC3333" stroke-width="1.5"/>
  <text x="156" y="194.6" fill="#333333">Data Sync</text>
  <rect x="741.84" y="179" width="60" height="20" rx="3" fill="#61DDAA" stroke="#9370DB" stroke-width="1.5"/>
  <text x="156" y="220.6" fill="#333333">User Acceptance Testing (UAT)</text>
  <rect x="861.84" y="205" width="100" height="20" rx="3" fill="#F6BD16" stroke="#9370DB" stroke-width="1.5"/>
  <text x="156" y="246.6" fill="#333333">Production Cutover</text>
  <polygon points="961.84,229 973.84,241 961.84,253 949.84,241" fill="#F6BD16" stroke="#9370DB" stroke-width="1.5"/>
</svg>
