<svg role="img" xmlns="http://www.w3.org/2000/svg" width="643.6" height="303.6" viewBox="0 0 643.6 303.6" font-family="sans-serif" font-size="14">
  <title>Marketing Budget Allocation Q3</title>
  <rect width="100%" height="100%" fill="#ffffff"/>
  <text x="136" y="30" fill="#1a1a1a" text-anchor="middle" font-weight="bold">Marketing Budget Allocation Q3</text>
  <path d="M136,167.6 L136,47.6 A120,120 0 0 1 220.85,252.45 Z" fill="#5B8FF9" stroke="#ffffff"/>
  <path d="M136,167.6 L220.85,252.45 A120,120 0 0 1 51.15,252.45 Z" fill="#61DDAA" stroke="#ffffff"/>
  <path d="M136,167.6 L51.15,252.45 A120,120 0 0 1 29.08,113.12 Z" fill="#65789B" stroke="#ffffff"/>
  <path d="M136,167.6 L29.08,113.12 A120,120 0 0 1 81.52,60.68 Z" fill="#F6BD16" stroke="#ffffff"/>
  <path d="M136,167.6 L81.52,60.68 A120,120 0 0 1 136,47.6 Z" fill="#7262FD" stroke="#ffffff"/>
  <rect x="280" y="47.6" width="14" height="14" fill="#5B8FF9"/>
  <text x="300" y="59.5" fill="#1a1a1a">Social Media Ads: 15000 (37.5%)</text>
  <rect x="280" y="69.6" width="14" height="14" fill="#61DDAA"/>
  <text x="300" y="81.5" fill="#1a1a1a">SEO and Content Marketing: 10000 (25.0%)</text>
  <rect x="280" y="91.6" width="14" height="14" fill="#65789B"/>
  <text x="300" y="103.5" fill="#1a1a1a">Email Marketing: 8000 (20.0%)</text>
  <rect x="280" y="113.6" width="14" height="14" fill="#F6BD16"/>
  <text x="300" y="125.5" fill="#1a1a1a">Influencer Collaborations: 4000 (10.0%)</text>
  <rect x="280" y="135.6" width="14" height="14" fill="#7262FD"/>
  <text x="300" y="147.5" fill="#1a1a1a">Admin and Tools: 3000 (7.5%)</text>
</svg>
