<svg role="img" xmlns="http://www.w3.org/2000/svg" width="404" height="453.6" viewBox="0 0 404 453.6" font-family="sans-serif" font-size="14">
  <rect width="100%" height="100%" fill="#ffffff"/>
  <text x="202" y="30" fill="#333333" text-anchor="middle" font-weight="bold">Feature Prioritization - Reach vs Effort</text>
  <rect x="202" y="73.6" width="160" height="160" fill="#e8f5e9"/>
  <rect x="42" y="73.6" width="160" height="160" fill="#fff8e1"/>
  <rect x="42" y="233.6" width="160" height="160" fill="#fbe9e7"/>
  <rect x="202" y="233.6" width="160" height="160" fill="#e3f2fd"/>
  <rect x="42" y="73.6" width="320" height="320" fill="none" stroke="#9370DB"/>
  <line x1="202" y1="73.6" x2="202" y2="393.6" stroke="#9370DB"/><line x1="42" y1="233.6" x2="362" y2="233.6" stroke="#9370DB"/>
  <text x="282" y="89.6" fill="#333333" text-anchor="middle">Major Projects</text>
  <text x="122" y="89.6" fill="#333333" text-anchor="middle">Quick Wins</text>
  <text x="122" y="249.6" fill="#333333" text-anchor="middle">Fill Ins</text>
  <text x="282" y="249.6" fill="#333333" text-anchor="middle">Thankless Tasks</text>
  <text x="42" y="411.6" fill="#333333" text-anchor="start">Low</text>
  <text x="362" y="411.6" fill="#333333" text-anchor="end">High</text>
  <text x="28" y="153.6" fill="#333333" text-anchor="middle" transform="rotate(-90 28 153.6)">High</text>
  <text x="28" y="313.6" fill="#333333" text-anchor="middle" transform="rotate(-90 28 313.6)">Low</text>
  <circle cx="298" cy="329.6" r="6" fill="#ECECFF" stroke="#9370DB" stroke-width="1"/>
  <text x="313" y="334.5" fill="#333333" text-anchor="start">Dark Mode</text>
  <circle cx="298" cy="137.6" r="6" fill="#ECECFF" stroke="#9370DB" stroke-width="1"/>
  <text x="283" y="142.5" fill="#333333" text-anchor="end">Advanced Search</text>
  <circle cx="106" cy="329.6" r="6" fill="#ECECFF" stroke="#9370DB" stroke-width="1"/>
  <text x="121" y="334.5" fill="#333333" text-anchor="start">Custom Themes</text>
  <circle cx="298" cy="153.6" r="6" fill="#ECECFF" stroke="#9370DB" stroke-width="1"/>
  <text x="283" y="158.5" fill="#333333" text-anchor="end">Multi-Factor Auth</text>
  <circle cx="106" cy="313.6" r="6" fill="#ECECFF" stroke="#9370DB" stroke-width="1"/>
  <text x="121" y="318.5" fill="#333333" text-anchor="start">Keyboard Shortcuts</text>
  <circle cx="298" cy="121.6" r="6" fill="#ECECFF" stroke="#9370DB" stroke-width="1"/>
  <text x="283" y="126.5" fill="#333333" text-anchor="end">Offline Mode</text>
</svg>
