<svg role="img" xmlns="http://www.w3.org/2000/svg" width="712" height="372" viewBox="0 0 712 372" font-family="sans-serif" font-size="14">
  <rect width="100%" height="100%" fill="#ffffff"/>
  <path d="M140.27,186.25 C163.14,186.25 163.14,54.5 186,54.5" fill="none" stroke="#333333"/>
  <path d="M340.61,54.5 C348.31,54.5 348.31,29 356,29" fill="none" stroke="#333333"/>
  <path d="M465.47,29 C495.74,29 495.74,29 526,29" fill="none" stroke="#333333"/>
  <path d="M340.61,54.5 C348.31,54.5 348.31,80 356,80" fill="none" stroke="#333333"/>
  <path d="M446.03,80 C486.01,80 486.01,63 526,63" fill="none" stroke="#333333"/>
  <path d="M446.03,80 C486.01,80 486.01,97 526,97" fill="none" stroke="#333333"/>
  <path d="M140.27,186.25 C163.14,186.25 163.14,148 186,148" fill="none" stroke="#333333"/>
  <path d="M314.15,148 C335.08,148 335.08,131 356,131" fill="none" stroke="#333333"/>
  <path d="M314.15,148 C335.08,148 335.08,165 356,165" fill="none" stroke="#333333"/>
  <path d="M140.27,186.25 C163.14,186.25 163.14,224.5 186,224.5" fill="none" stroke="#333333"/>
  <path d="M307.95,224.5 C331.97,224.5 331.97,199 356,199" fill="none" stroke="#333333"/>
  <path d="M307.95,224.5 C331.97,224.5 331.97,250 356,250" fill="none" stroke="#333333"/>
  <path d="M449.14,250 C487.57,250 487.57,233 526,233" fill="none" stroke="#333333"/>
  <path d="M449.14,250 C487.57,250 487.57,267 526,267" fill="none" stroke="#333333"/>
  <path d="M140.27,186.25 C163.14,186.25 163.14,318 186,318" fill="none" stroke="#333333"/>
  <path d="M329.7,318 C342.85,318 342.85,301 356,301" fill="none" stroke="#333333"/>
  <path d="M329.7,318 C342.85,318 342.85,335 356,335" fill="none" stroke="#333333"/>
  <rect x="16" y="173.25" width="124.27" height="26" rx="13" fill="#ECECFF" stroke="#9370DB"/>
<text fill="#333333" text-anchor="middle"><tspan x="78.14" y="191.15">Software Startup</tspan></text>
  <rect x="186" y="41.5" width="154.61" height="26" rx="13" fill="#ECECFF" stroke="#9370DB"/>
<text fill="#333333" text-anchor="middle"><tspan x="263.31" y="59.4">Product Development</tspan></text>
  <rect x="356" y="16" width="109.47" height="26" rx="13" fill="#ECECFF" stroke="#9370DB"/>
<text fill="#333333" text-anchor="middle"><tspan x="410.74" y="33.9">MVP Features</tspan></text>
  <rect x="526" y="16" width="123.49" height="26" rx="13" fill="#ECECFF" stroke="#9370DB"/>
<text fill="#333333" text-anchor="middle"><tspan x="587.74" y="33.9">Core Value Prop</tspan></text>
  <rect x="356" y="67" width="90.03" height="26" rx="13" fill="#ECECFF" stroke="#9370DB"/>
<text fill="#333333" text-anchor="middle"><tspan x="401.01" y="84.9">Tech Stack</tspan></text>
  <rect x="526" y="50" width="76.03" height="26" rx="13" fill="#ECECFF" stroke="#9370DB"/>
<text fill="#333333" text-anchor="middle"><tspan x="564.01" y="67.9">Frontend</tspan></text>
  <rect x="526" y="84" width="74.47" height="26" rx="13" fill="#ECECFF" stroke="#9370DB"/>
<text fill="#333333" text-anchor="middle"><tspan x="563.24" y="101.9">Backend</tspan></text>
  <rect x="186" y="135" width="128.15" height="26" rx="13" fill="#ECECFF" stroke="#9370DB"/>
<text fill="#333333" text-anchor="middle"><tspan x="250.08" y="152.9">Market Validation</tspan></text>
  <rect x="356" y="118" width="116.46" height="26" rx="13" fill="#ECECFF" stroke="#9370DB"/>
<text fill="#333333" text-anchor="middle"><tspan x="414.23" y="135.9">User Interviews</tspan></text>
  <rect x="356" y="152" width="144.47" height="26" rx="13" fill="#ECECFF" stroke="#9370DB"/>
<text fill="#333333" text-anchor="middle"><tspan x="428.24" y="169.9">Competitor Analysis</tspan></text>
  <rect x="186" y="211.5" width="121.95" height="26" rx="13" fill="#ECECFF" stroke="#9370DB"/>
<text fill="#333333" text-anchor="middle"><tspan x="246.97" y="229.4">Funding &amp; Legal</tspan></text>
  <rect x="356" y="186" width="101.7" height="26" rx="13" fill="#ECECFF" stroke="#9370DB"/>
<text fill="#333333" text-anchor="middle"><tspan x="406.85" y="203.9">Incorporation</tspan></text>
  <rect x="356" y="237" width="93.14" height="26" rx="13" fill="#ECECFF" stroke="#9370DB"/>
<text fill="#333333" text-anchor="middle"><tspan x="402.57" y="254.9">Fundraising</tspan></text>
  <rect x="526" y="220" width="116.49" height="26" rx="13" fill="#ECECFF" stroke="#9370DB"/>
<text fill="#333333" text-anchor="middle"><tspan x="584.24" y="237.9">Angel Investors</tspan></text>
  <rect x="526" y="254" width="116.49" height="26" rx="13" fill="#ECECFF" stroke="#9370DB"/>
<text fill="#333333" text-anchor="middle"><tspan x="584.24" y="271.9">Venture Capital</tspan></text>
  <rect x="186" y="305" width="143.7" height="26" rx="13" fill="#ECECFF" stroke="#9370DB"/>
<text fill="#333333" text-anchor="middle"><tspan x="257.85" y="322.9">Growth &amp; Marketing</tspan></text>
  <rect x="356" y="288" width="121.95" height="26" rx="13" fill="#ECECFF" stroke="#9370DB"/>
<text fill="#333333" text-anchor="middle"><tspan x="416.97" y="305.9">Launch Strategy</tspan></text>
  <rect x="356" y="322" width="152.26" height="26" rx="13" fill="#ECECFF" stroke="#9370DB"/>
<text fill="#333333" text-anchor="middle"><tspan x="432.13" y="339.9">Customer Acquisition</tspan></text>
</svg>
