<svg role="img" xmlns="http://www.w3.org/2000/svg" width="540" height="199" viewBox="0 0 540 199" font-family="sans-serif" font-size="14">
  <rect width="100%" height="100%" fill="#ffffff"/>
  <rect x="16" y="16" width="160" height="30" rx="4" fill="#5B8FF9"/>
  <text x="96" y="35.8" fill="#ffffff" text-anchor="middle" font-weight="bold">To-Do</text>
  <rect x="22" y="54" width="148" height="56.5" rx="4" fill="#ECECFF" stroke="#9370DB"/>
  <text x="32" y="70.5" fill="#333333">Design checkout</text>
  <text x="32" y="86.5" fill="#333333">database schema</text>
  <rect x="22" y="118.5" width="148" height="56.5" rx="4" fill="#ECECFF" stroke="#9370DB"/>
  <text x="32" y="135" fill="#333333">Write API</text>
  <text x="32" y="151" fill="#333333">documentation</text>
  <rect x="190" y="16" width="160" height="30" rx="4" fill="#61DDAA"/>
  <text x="270" y="35.8" fill="#ffffff" text-anchor="middle" font-weight="bold">In Progress</text>
  <rect x="196" y="54" width="148" height="56.5" rx="4" fill="#ECECFF" stroke="#9370DB"/>
  <text x="206" y="70.5" fill="#333333">Implement OAuth2</text>
  <text x="206" y="86.5" fill="#333333">authentication flow</text>
  <rect x="196" y="118.5" width="148" height="56.5" rx="4" fill="#ECECFF" stroke="#9370DB"/>
  <text x="206" y="135" fill="#333333">Fix memory leak in</text>
  <text x="206" y="151" fill="#333333">background worker</text>
  <rect x="364" y="16" width="160" height="30" rx="4" fill="#F6BD16"/>
  <text x="444" y="35.8" fill="#ffffff" text-anchor="middle" font-weight="bold">Done</text>
  <rect x="370" y="54" width="148" height="56.5" rx="4" fill="#ECECFF" stroke="#9370DB"/>
  <text x="380" y="70.5" fill="#333333">Set up staging</text>
  <text x="380" y="86.5" fill="#333333">environment</text>
  <rect x="370" y="118.5" width="148" height="56.5" rx="4" fill="#ECECFF" stroke="#9370DB"/>
  <text x="380" y="135" fill="#333333">Initial project</text>
  <text x="380" y="151" fill="#333333">scaffolding</text>
</svg>
