<svg role="img" xmlns="http://www.w3.org/2000/svg" width="932" height="452" viewBox="0 0 932 452" font-family="sans-serif" font-size="14">
  <rect width="100%" height="100%" fill="#ffffff"/>
  <rect x="19" y="19" width="894" height="414" fill="#5B8FF9" stroke="#A4C1FB" stroke-width="2"/>
  <text x="23" y="34" fill="#333333" font-size="14">Global Corporate Budget</text>
  <text x="909" y="34" fill="#333333" font-size="10.5" text-anchor="end">11100000</text>
  <rect x="26" y="44" width="880" height="235.19" fill="#61DDAA" stroke="#A8ECD0" stroke-width="2"/>
  <text x="30" y="59" fill="#333333" font-size="14">Engineering &amp; Product</text>
  <text x="902" y="59" fill="#333333" font-size="10.5" text-anchor="end">6900000</text>
  <rect x="33" y="69" width="670.12" height="203.19" fill="#F6BD16" stroke="#FADA7E" stroke-width="2"/>
  <text x="37" y="84" fill="#333333" font-size="14">Talent</text>
  <text x="699.12" y="84" fill="#333333" font-size="10.5" text-anchor="end">5350000</text>
  <rect x="40" y="94" width="656.12" height="143.04" fill="#7262FD" stroke="#B1A8FD" stroke-width="2"/>
  <text x="44" y="109" fill="#333333" font-size="14">Core Developers</text>
  <text x="692.12" y="109" fill="#333333" font-size="10.5" text-anchor="end">4500000</text>
  <rect x="40" y="243.04" width="656.12" height="22.15" fill="#7262FD" stroke="#B1A8FD" stroke-width="2"/>
  <text x="44" y="258.04" fill="#333333" font-size="14">QA Automation</text>
  <text x="692.12" y="258.04" fill="#333333" font-size="10.5" text-anchor="end">850000</text>
  <rect x="709.12" y="69" width="189.88" height="203.19" fill="#F6BD16" stroke="#FADA7E" stroke-width="2"/>
  <text x="713.12" y="84" fill="#333333" font-size="14">Infrastructure</text>
  <text x="895" y="84" fill="#333333" font-size="10.5" text-anchor="end">1550000</text>
  <rect x="716.12" y="94" width="175.88" height="131.18" fill="#78D3F8" stroke="#B4E6FB" stroke-width="2"/>
  <text x="720.12" y="109" fill="#333333" font-size="14">Cloud Hosting</text>
  <text x="888" y="109" fill="#333333" font-size="10.5" text-anchor="end">1200000</text>
  <rect x="716.12" y="231.18" width="175.88" height="34.01" fill="#78D3F8" stroke="#B4E6FB" stroke-width="2"/>
  <text x="720.12" y="246.18" fill="#333333" font-size="14">Security Tools</text>
  <text x="888" y="246.18" fill="#333333" font-size="10.5" text-anchor="end">350000</text>
  <rect x="26" y="285.19" width="880" height="100.61" fill="#61DDAA" stroke="#A8ECD0" stroke-width="2"/>
  <text x="30" y="300.19" fill="#333333" font-size="14">Growth &amp; Marketing</text>
  <text x="902" y="300.19" fill="#333333" font-size="10.5" text-anchor="end">3050000</text>
  <rect x="33" y="310.19" width="651.57" height="68.61" fill="#9661BC" stroke="#C5A8DA" stroke-width="2"/>
  <text x="37" y="325.19" fill="#333333" font-size="14">Paid Acquisition</text>
  <text x="680.57" y="325.19" fill="#333333" font-size="10.5" text-anchor="end">2300000</text>
  <rect x="38" y="333.19" width="641.57" height="23.94" fill="#F6903D" stroke="#FAC194" stroke-width="2"/>
  <text x="42" y="348.19" fill="#333333" font-size="14">Social Media</text>
  <text x="675.57" y="348.19" fill="#333333" font-size="10.5" text-anchor="end">1400000</text>
  <rect x="38" y="359.13" width="641.57" height="14.67" fill="#F6903D" stroke="#FAC194" stroke-width="2"/>
  <text x="42" y="371.8" fill="#333333" font-size="11.67">Search Ads</text>
  <text x="675.57" y="371.8" fill="#333333" font-size="8.76" text-anchor="end">900000</text>
  <rect x="690.57" y="310.19" width="208.43" height="68.61" fill="#9661BC" stroke="#C5A8DA" stroke-width="2"/>
  <text x="694.57" y="325.19" fill="#333333" font-size="14">Brand &amp; PR</text>
  <text x="895" y="325.19" fill="#333333" font-size="10.5" text-anchor="end">750000</text>
  <rect x="695.57" y="333.19" width="198.43" height="26.41" fill="#008685" stroke="#72BCBB" stroke-width="2"/>
  <text x="699.57" y="348.19" fill="#333333" font-size="14">Conferences</text>
  <text x="890" y="348.19" fill="#333333" font-size="10.5" text-anchor="end">500000</text>
  <rect x="695.57" y="361.6" width="198.43" height="12.2" fill="#008685" stroke="#72BCBB" stroke-width="2"/>
  <text x="699.57" y="371.8" fill="#333333" font-size="9.2">Sponsorships</text>
  <text x="890" y="371.8" fill="#333333" font-size="6.9" text-anchor="end">250000</text>
  <rect x="26" y="391.8" width="880" height="34.2" fill="#61DDAA" stroke="#A8ECD0" stroke-width="2"/>
  <text x="30" y="406.8" fill="#333333" font-size="14">Operations &amp; Legal</text>
  <text x="902" y="406.8" fill="#333333" font-size="10.5" text-anchor="end">1150000</text>
  <rect x="28.5" y="409.69" width="570.3" height="13.81" fill="#F08BB4" stroke="#F6BFD5" stroke-width="2"/>
  <text x="32.5" y="421.5" fill="#333333" font-size="10.81">Office Leases</text>
  <text x="594.8" y="421.5" fill="#333333" font-size="8.11" text-anchor="end">750000</text>
  <rect x="599.8" y="409.69" width="303.7" height="13.81" fill="#F08BB4" stroke="#F6BFD5" stroke-width="2"/>
  <text x="603.8" y="421.5" fill="#333333" font-size="10.81">Legal Counsel</text>
  <text x="899.5" y="421.5" fill="#333333" font-size="8.11" text-anchor="end">400000</text>
</svg>
