<svg role="img" xmlns="http://www.w3.org/2000/svg" width="556" height="387.6" viewBox="0 0 556 387.6" font-family="sans-serif" font-size="14">
  <rect width="100%" height="100%" fill="#ffffff"/>
  <text x="278" y="30" fill="#333333" text-anchor="middle" font-weight="bold">Q1-Q2 Growth Metrics</text>
  <line x1="60" y1="47.6" x2="60" y2="327.6" stroke="#9370DB"/><line x1="60" y1="327.6" x2="540" y2="327.6" stroke="#9370DB"/>
  <text x="54" y="327.6" fill="#333333" text-anchor="end">0</text>
  <text x="54" y="61.6" fill="#333333" text-anchor="end">100</text>
  <text x="100" y="345.6" fill="#333333" text-anchor="middle">Jan</text>
  <text x="180" y="345.6" fill="#333333" text-anchor="middle">Feb</text>
  <text x="260" y="345.6" fill="#333333" text-anchor="middle">Mar</text>
  <text x="340" y="345.6" fill="#333333" text-anchor="middle">Apr</text>
  <text x="420" y="345.6" fill="#333333" text-anchor="middle">May</text>
  <text x="500" y="345.6" fill="#333333" text-anchor="middle">Jun</text>
  <rect x="72" y="201.6" width="56" height="126" fill="#5B8FF9"/>
  <rect x="152" y="182" width="56" height="145.6" fill="#5B8FF9"/>
  <rect x="232" y="137.2" width="56" height="190.4" fill="#5B8FF9"/>
  <rect x="312" y="156.8" width="56" height="170.8" fill="#5B8FF9"/>
  <rect x="392" y="117.6" width="56" height="210" fill="#5B8FF9"/>
  <rect x="472" y="75.6" width="56" height="252" fill="#5B8FF9"/>
  <path d="M100,215.6 L180,193.2 L260,173.6 L340,145.6 L420,109.2 L500,89.6" fill="none" stroke="#F6BD16" stroke-width="2"/>
</svg>
