<svg role="img" xmlns="http://www.w3.org/2000/svg" width="566" height="392" viewBox="0 0 566 392" font-family="sans-serif" font-size="14">
  <rect width="100%" height="100%" fill="#ffffff"/>
  <path d="M30,16 C113,16 113,16 196,16 L196,208 C113,208 113,208 30,208 Z" fill="#5B8FF9" fill-opacity="0.4"/>
  <path d="M30,218 C113,218 113,208 196,208 L196,304 C113,304 113,314 30,314 Z" fill="#65789B" fill-opacity="0.4"/>
  <path d="M30,324 C113,324 113,304 196,304 L196,336 C113,336 113,356 30,356 Z" fill="#F6BD16" fill-opacity="0.4"/>
  <path d="M210,16 C293,16 293,16 376,16 L376,176 C293,176 293,176 210,176 Z" fill="#61DDAA" fill-opacity="0.4"/>
  <path d="M210,176 C293,176 293,186 376,186 L376,234 C293,234 293,224 210,224 Z" fill="#61DDAA" fill-opacity="0.4"/>
  <path d="M210,224 C293,224 293,244 376,244 L376,282.4 C293,282.4 293,262.4 210,262.4 Z" fill="#61DDAA" fill-opacity="0.4"/>
  <path d="M210,262.4 C293,262.4 293,292.4 376,292.4 L376,318 C293,318 293,288 210,288 Z" fill="#61DDAA" fill-opacity="0.4"/>
  <path d="M210,288 C293,288 293,328 376,328 L376,376 C293,376 293,336 210,336 Z" fill="#61DDAA" fill-opacity="0.4"/>
  <rect x="16" y="16" width="14" height="192" fill="#5B8FF9"/>
  <text x="34" y="116.9" fill="#333333">Product Sales</text>
  <rect x="196" y="16" width="14" height="320" fill="#61DDAA"/>
  <text x="214" y="180.9" fill="#333333">Total Revenue</text>
  <rect x="16" y="218" width="14" height="96" fill="#65789B"/>
  <text x="34" y="270.9" fill="#333333">Subscriptions</text>
  <rect x="16" y="324" width="14" height="32" fill="#F6BD16"/>
  <text x="34" y="344.9" fill="#333333">Consulting</text>
  <rect x="376" y="16" width="14" height="160" fill="#7262FD"/>
  <text x="394" y="100.9" fill="#333333">Salaries</text>
  <rect x="376" y="186" width="14" height="48" fill="#78D3F8"/>
  <text x="394" y="214.9" fill="#333333">Marketing</text>
  <rect x="376" y="244" width="14" height="38.4" fill="#9661BC"/>
  <text x="394" y="268.1" fill="#333333">Cloud Infrastructure</text>
  <rect x="376" y="292.4" width="14" height="25.6" fill="#F6903D"/>
  <text x="394" y="310.1" fill="#333333">Office and Facilities</text>
  <rect x="376" y="328" width="14" height="48" fill="#008685"/>
  <text x="394" y="356.9" fill="#333333">Retained Earnings</text>
</svg>
