<?xml version="1.0" encoding="UTF-8"?>
<svg xmlns="http://www.w3.org/2000/svg" width="1932" height="880" viewBox="0 0 1932 880">
<defs>
  <marker id="arrowhead" markerWidth="12" markerHeight="9" refX="9" refY="4.5" orient="auto" markerUnits="userSpaceOnUse">
    <path d="M0,0 L9,4.5 L0,9 L2.5,4.5 Z" fill="#475569"/>
  </marker>
  <marker id="arrowhead-open" markerWidth="14" markerHeight="11" refX="12" refY="5.5" orient="auto" markerUnits="userSpaceOnUse">
    <path d="M0,0 L11,5.5 L0,11" fill="none" stroke="#475569" stroke-width="1.4"/>
  </marker>
  <marker id="dot" markerWidth="9" markerHeight="9" refX="4.5" refY="4.5" orient="auto" markerUnits="userSpaceOnUse">
    <circle cx="4.5" cy="4.5" r="3" fill="#ffffff" stroke="#475569" stroke-width="1.2"/>
  </marker>
  <linearGradient id="grad-task" x1="0" y1="0" x2="0" y2="1">
    <stop offset="0%" stop-color="#ffffff"/>
    <stop offset="100%" stop-color="#eff6ff"/>
  </linearGradient>
  <linearGradient id="grad-subprocess" x1="0" y1="0" x2="0" y2="1">
    <stop offset="0%" stop-color="#ffffff"/>
    <stop offset="100%" stop-color="#f5f3ff"/>
  </linearGradient>
  <linearGradient id="grad-start" x1="0" y1="0" x2="0" y2="1">
    <stop offset="0%" stop-color="#ffffff"/>
    <stop offset="100%" stop-color="#dcfce7"/>
  </linearGradient>
  <linearGradient id="grad-end" x1="0" y1="0" x2="0" y2="1">
    <stop offset="0%" stop-color="#ffffff"/>
    <stop offset="100%" stop-color="#fee2e2"/>
  </linearGradient>
  <linearGradient id="grad-intermediate" x1="0" y1="0" x2="0" y2="1">
    <stop offset="0%" stop-color="#ffffff"/>
    <stop offset="100%" stop-color="#fef3c7"/>
  </linearGradient>
  <linearGradient id="grad-gateway" x1="0" y1="0" x2="0" y2="1">
    <stop offset="0%" stop-color="#ffffff"/>
    <stop offset="100%" stop-color="#fefce8"/>
  </linearGradient>
  <filter id="shadow" x="-20%" y="-20%" width="140%" height="140%">
    <feDropShadow dx="1.5" dy="2" stdDeviation="2" flood-color="#0f172a" flood-opacity="0.18"/>
  </filter>
</defs>
<style>
  .bpmn-task { fill: url(#grad-task); stroke: #2563eb; stroke-width: 2; filter: url(#shadow); }
  .bpmn-subprocess { fill: url(#grad-subprocess); stroke: #7c3aed; stroke-width: 2; filter: url(#shadow); }
  .bpmn-event-start { fill: url(#grad-start); stroke: #16a34a; stroke-width: 2; filter: url(#shadow); }
  .bpmn-event-intermediate { fill: url(#grad-intermediate); stroke: #d97706; stroke-width: 2; }
  .bpmn-event-end { fill: url(#grad-end); stroke: #dc2626; stroke-width: 3.5; filter: url(#shadow); }
  .bpmn-gateway { fill: url(#grad-gateway); stroke: #ca8a04; stroke-width: 2; filter: url(#shadow); }
  .bpmn-gateway-marker { stroke: #a16207; fill: none; }
  .bpmn-flow { fill: none; stroke: #475569; stroke-width: 1.6; marker-end: url(#arrowhead); stroke-linejoin: round; stroke-linecap: round; }
  .bpmn-label { font-family: 'Segoe UI', Arial, sans-serif; font-size: 12px; font-weight: 500; fill: #1e293b; text-anchor: middle; dominant-baseline: central; }
  .bpmn-flow-label { font-family: 'Segoe UI', Arial, sans-serif; font-size: 11px; fill: #475569; text-anchor: middle; dominant-baseline: central; }
  .bpmn-pool { fill: #ffffff; stroke: #475569; stroke-width: 2; }
  .bpmn-pool-header { fill: #f1f5f9; stroke: #475569; stroke-width: 2; }
  .bpmn-lane { fill: none; stroke: #94a3b8; stroke-width: 1; }
  .bpmn-lane-header { fill: #f1f5f9; stroke: #475569; stroke-width: 1; }
  .bpmn-annotation { fill: none; stroke: #94a3b8; stroke-width: 1; }
  .bpmn-annotation-text { font-family: 'Segoe UI', Arial, sans-serif; font-size: 11px; fill: #1e293b; }
  .bpmn-icon { stroke: #334155; fill: none; }
  .bpmn-data-object { fill: #ffffff; stroke: #1e293b; stroke-width: 1.4; }
  .bpmn-data-object-fold { fill: #f3f4f6; stroke: #1e293b; stroke-width: 1.4; }
  .bpmn-data-store { fill: #ffffff; stroke: #1e293b; stroke-width: 1.4; }
  .bpmn-data-store-ridge { fill: none; stroke: #1e293b; stroke-width: 1; }
  .bpmn-group { fill: none; stroke: #475569; stroke-width: 1.5; stroke-dasharray: 10,4,2,4; }
  .bpmn-message-flow { fill: none; stroke: #1e293b; stroke-width: 1.4; stroke-dasharray: 6,4; marker-end: url(#arrowhead-open); marker-start: url(#dot); stroke-linejoin: round; stroke-linecap: round; }
  .bpmn-association-flow { fill: none; stroke: #1e293b; stroke-width: 1; stroke-dasharray: 2,3; }
  .bpmn-data-association-flow { fill: none; stroke: #1e293b; stroke-width: 1.2; stroke-dasharray: 4,3; marker-end: url(#arrowhead-open); stroke-linejoin: round; stroke-linecap: round; }
</style>
<rect x="0" y="0" width="1932" height="880" fill="#ffffff"/>
  <rect x="30.0" y="30.0" width="1872.0" height="100.0" class="bpmn-pool"/>
  <rect x="30.0" y="30.0" width="30" height="100.0" class="bpmn-pool-header"/>
  <text x="45.0" y="80.0" transform="rotate(-90,45.0,80.0)" class="bpmn-label">Traveler</text>
  <rect x="30.0" y="170.0" width="1872.0" height="400.0" class="bpmn-pool"/>
  <rect x="30.0" y="170.0" width="30" height="400.0" class="bpmn-pool-header"/>
  <text x="45.0" y="370.0" transform="rotate(-90,45.0,370.0)" class="bpmn-label">Travel Agency</text>
  <circle cx="88.0" cy="250.0" r="18.0" class="bpmn-event-start"/>
  <text x="88.0" y="280.0" class="bpmn-label">Receive trip</text>
  <text x="88.0" y="294.0" class="bpmn-label">request</text>
  <rect x="186.0" y="210.0" width="100.0" height="80.0" rx="10" ry="10" class="bpmn-task"/>
  <text x="232.0" y="250.0" class="bpmn-label">Open request</text>
  <polygon points="391.0,225.0 416.0,250.0 391.0,275.0 366.0,250.0" class="bpmn-gateway"/>
  <line x1="391.0" y1="238.8" x2="391.0" y2="261.2" class="bpmn-gateway-marker" stroke-width="3"/>
  <line x1="379.8" y1="250.0" x2="402.2" y2="250.0" class="bpmn-gateway-marker" stroke-width="3"/>
  <rect x="496.0" y="210.0" width="100.0" height="80.0" rx="10" ry="10" class="bpmn-task"/>
  <text x="542.0" y="243.0" class="bpmn-label">Request seat</text>
  <text x="546.0" y="257.0" class="bpmn-label">availability</text>
  <rect x="496.0" y="330.0" width="100.0" height="80.0" rx="10" ry="10" class="bpmn-task"/>
  <text x="542.0" y="363.0" class="bpmn-label">Request room</text>
  <text x="546.0" y="377.0" class="bpmn-label">availability</text>
  <polygon points="701.0,225.0 726.0,250.0 701.0,275.0 676.0,250.0" class="bpmn-gateway"/>
  <line x1="701.0" y1="238.8" x2="701.0" y2="261.2" class="bpmn-gateway-marker" stroke-width="3"/>
  <line x1="689.8" y1="250.0" x2="712.2" y2="250.0" class="bpmn-gateway-marker" stroke-width="3"/>
  <rect x="806.0" y="210.0" width="100.0" height="80.0" rx="10" ry="10" class="bpmn-task"/>
  <text x="852.0" y="243.0" class="bpmn-label">Assemble trip</text>
  <text x="856.0" y="257.0" class="bpmn-label">offer</text>
  <rect x="986.0" y="210.0" width="100.0" height="80.0" rx="10" ry="10" class="bpmn-task"/>
  <text x="1032.0" y="243.0" class="bpmn-label">Send trip</text>
  <text x="1036.0" y="257.0" class="bpmn-label">offer</text>
  <polygon points="1191.0,225.0 1216.0,250.0 1191.0,275.0 1166.0,250.0" class="bpmn-gateway"/>
  <line x1="1181.0" y1="240.0" x2="1201.0" y2="260.0" class="bpmn-gateway-marker" stroke-width="2.5"/>
  <line x1="1201.0" y1="240.0" x2="1181.0" y2="260.0" class="bpmn-gateway-marker" stroke-width="2.5"/>
  <text x="1191.0" y="287.0" class="bpmn-label">Accept offer?</text>
  <rect x="1296.0" y="450.0" width="100.0" height="80.0" rx="10" ry="10" class="bpmn-task"/>
  <text x="1342.0" y="483.0" class="bpmn-label">Cancel draft</text>
  <text x="1346.0" y="497.0" class="bpmn-label">bookings</text>
  <rect x="1296.0" y="210.0" width="100.0" height="80.0" rx="10" ry="10" class="bpmn-task"/>
  <text x="1342.0" y="236.0" class="bpmn-label">Confirm</text>
  <text x="1346.0" y="250.0" class="bpmn-label">airline</text>
  <text x="1346.0" y="264.0" class="bpmn-label">booking</text>
  <rect x="1476.0" y="210.0" width="100.0" height="80.0" rx="10" ry="10" class="bpmn-task"/>
  <text x="1522.0" y="243.0" class="bpmn-label">Confirm hotel</text>
  <text x="1526.0" y="257.0" class="bpmn-label">booking</text>
  <rect x="1656.0" y="210.0" width="100.0" height="80.0" rx="10" ry="10" class="bpmn-task"/>
  <text x="1702.0" y="243.0" class="bpmn-label">Send final</text>
  <text x="1706.0" y="257.0" class="bpmn-label">itinerary</text>
  <circle cx="1854.0" cy="250.0" r="18.0" class="bpmn-event-end"/>
  <rect x="30.0" y="610.0" width="1872.0" height="100.0" class="bpmn-pool"/>
  <rect x="30.0" y="610.0" width="30" height="100.0" class="bpmn-pool-header"/>
  <text x="45.0" y="660.0" transform="rotate(-90,45.0,660.0)" class="bpmn-label">Airline</text>
  <rect x="30.0" y="750.0" width="1872.0" height="100.0" class="bpmn-pool"/>
  <rect x="30.0" y="750.0" width="30" height="100.0" class="bpmn-pool-header"/>
  <text x="45.0" y="800.0" transform="rotate(-90,45.0,800.0)" class="bpmn-label">Hotel</text>
  <polyline points="106.0,250.0 186.0,250.0" class="bpmn-flow"/>
  <polyline points="286.0,250.0 366.0,250.0" class="bpmn-flow"/>
  <polyline points="416.0,250.0 496.0,250.0" class="bpmn-flow"/>
  <polyline points="391.0,275.0 391.0,370.0 496.0,370.0" class="bpmn-flow"/>
  <polyline points="596.0,250.0 676.0,250.0" class="bpmn-flow"/>
  <polyline points="596.0,370.0 636.0,370.0 636.0,250.0 676.0,250.0" class="bpmn-flow"/>
  <polyline points="726.0,250.0 806.0,250.0" class="bpmn-flow"/>
  <polyline points="906.0,250.0 986.0,250.0" class="bpmn-flow"/>
  <polyline points="1086.0,250.0 1166.0,250.0" class="bpmn-flow"/>
  <polyline points="1191.0,275.0 1191.0,490.0 1296.0,490.0" class="bpmn-flow"/>
  <polyline points="1216.0,250.0 1296.0,250.0" class="bpmn-flow"/>
  <polyline points="1396.0,490.0 1616.0,490.0 1616.0,250.0 1836.0,250.0" class="bpmn-flow"/>
  <polyline points="1396.0,250.0 1476.0,250.0" class="bpmn-flow"/>
  <polyline points="1576.0,250.0 1656.0,250.0" class="bpmn-flow"/>
  <polyline points="1756.0,250.0 1836.0,250.0" class="bpmn-flow"/>
  <polyline points="966.0,130.0 966.0,181.0 88.0,181.0 88.0,232.0" class="bpmn-message-flow"/>
  <rect x="485.6" y="163.0" width="82.8" height="16" rx="3" fill="#ffffff" opacity="0.85"/>
  <text x="527.0" y="171.0" class="bpmn-flow-label">trip request</text>
  <polyline points="546.0,290.0 546.0,450.0 966.0,450.0 966.0,610.0" class="bpmn-message-flow"/>
  <rect x="673.0" y="452.0" width="166.0" height="16" rx="3" fill="#ffffff" opacity="0.85"/>
  <text x="756.0" y="460.0" class="bpmn-flow-label">seat availability request</text>
  <polyline points="546.0,410.0 546.0,580.0 966.0,580.0 966.0,750.0" class="bpmn-message-flow"/>
  <rect x="673.0" y="582.0" width="166.0" height="16" rx="3" fill="#ffffff" opacity="0.85"/>
  <text x="756.0" y="590.0" class="bpmn-flow-label">room availability request</text>
  <polyline points="966.0,610.0 966.0,442.5 701.0,442.5 701.0,275.0" class="bpmn-message-flow"/>
  <rect x="776.1" y="424.5" width="114.8" height="16" rx="3" fill="#ffffff" opacity="0.85"/>
  <text x="833.5" y="432.5" class="bpmn-flow-label">seat availability</text>
  <polyline points="966.0,750.0 966.0,512.5 701.0,512.5 701.0,275.0" class="bpmn-message-flow"/>
  <rect x="776.1" y="494.5" width="114.8" height="16" rx="3" fill="#ffffff" opacity="0.85"/>
  <text x="833.5" y="502.5" class="bpmn-flow-label">room availability</text>
  <polyline points="1036.0,210.0 1036.0,170.0 966.0,170.0 966.0,130.0" class="bpmn-message-flow"/>
  <rect x="966.0" y="152.0" width="70.0" height="16" rx="3" fill="#ffffff" opacity="0.85"/>
  <text x="1001.0" y="160.0" class="bpmn-flow-label">trip offer</text>
  <polyline points="1346.0,290.0 1346.0,450.0 966.0,450.0 966.0,610.0" class="bpmn-message-flow"/>
  <rect x="1089.0" y="432.0" width="134.0" height="16" rx="3" fill="#ffffff" opacity="0.85"/>
  <text x="1156.0" y="440.0" class="bpmn-flow-label">booking confirmation</text>
  <polyline points="1526.0,290.0 1526.0,520.0 966.0,520.0 966.0,750.0" class="bpmn-message-flow"/>
  <rect x="1179.0" y="502.0" width="134.0" height="16" rx="3" fill="#ffffff" opacity="0.85"/>
  <text x="1246.0" y="510.0" class="bpmn-flow-label">booking confirmation</text>
  <polyline points="1706.0,210.0 1706.0,170.0 966.0,170.0 966.0,130.0" class="bpmn-message-flow"/>
  <rect x="1285.0" y="152.0" width="102.0" height="16" rx="3" fill="#ffffff" opacity="0.85"/>
  <text x="1336.0" y="160.0" class="bpmn-flow-label">final itinerary</text>
</svg>
