<?xml version="1.0" encoding="UTF-8"?>
<svg xmlns="http://www.w3.org/2000/svg" width="1862" height="500" viewBox="0 0 1862 500">
<defs>
  <marker id="arrowhead" markerWidth="12" markerHeight="9" refX="9" refY="4.5" orient="auto" markerUnits="userSpaceOnUse">
    <path d="M0,0 L9,4.5 L0,9 L2.5,4.5 Z" fill="#475569"/>
  </marker>
  <marker id="arrowhead-open" markerWidth="14" markerHeight="11" refX="12" refY="5.5" orient="auto" markerUnits="userSpaceOnUse">
    <path d="M0,0 L11,5.5 L0,11" fill="none" stroke="#475569" stroke-width="1.4"/>
  </marker>
  <marker id="dot" markerWidth="9" markerHeight="9" refX="4.5" refY="4.5" orient="auto" markerUnits="userSpaceOnUse">
    <circle cx="4.5" cy="4.5" r="3" fill="#ffffff" stroke="#475569" stroke-width="1.2"/>
  </marker>
  <linearGradient id="grad-task" x1="0" y1="0" x2="0" y2="1">
    <stop offset="0%" stop-color="#ffffff"/>
    <stop offset="100%" stop-color="#eff6ff"/>
  </linearGradient>
  <linearGradient id="grad-subprocess" x1="0" y1="0" x2="0" y2="1">
    <stop offset="0%" stop-color="#ffffff"/>
    <stop offset="100%" stop-color="#f5f3ff"/>
  </linearGradient>
  <linearGradient id="grad-start" x1="0" y1="0" x2="0" y2="1">
    <stop offset="0%" stop-color="#ffffff"/>
    <stop offset="100%" stop-color="#dcfce7"/>
  </linearGradient>
  <linearGradient id="grad-end" x1="0" y1="0" x2="0" y2="1">
    <stop offset="0%" stop-color="#ffffff"/>
    <stop offset="100%" stop-color="#fee2e2"/>
  </linearGradient>
  <linearGradient id="grad-intermediate" x1="0" y1="0" x2="0" y2="1">
    <stop offset="0%" stop-color="#ffffff"/>
    <stop offset="100%" stop-color="#fef3c7"/>
  </linearGradient>
  <linearGradient id="grad-gateway" x1="0" y1="0" x2="0" y2="1">
    <stop offset="0%" stop-color="#ffffff"/>
    <stop offset="100%" stop-color="#fefce8"/>
  </linearGradient>
  <filter id="shadow" x="-20%" y="-20%" width="140%" height="140%">
    <feDropShadow dx="1.5" dy="2" stdDeviation="2" flood-color="#0f172a" flood-opacity="0.18"/>
  </filter>
</defs>
<style>
  .bpmn-task { fill: url(#grad-task); stroke: #2563eb; stroke-width: 2; filter: url(#shadow); }
  .bpmn-subprocess { fill: url(#grad-subprocess); stroke: #7c3aed; stroke-width: 2; filter: url(#shadow); }
  .bpmn-event-start { fill: url(#grad-start); stroke: #16a34a; stroke-width: 2; filter: url(#shadow); }
  .bpmn-event-intermediate { fill: url(#grad-intermediate); stroke: #d97706; stroke-width: 2; }
  .bpmn-event-end { fill: url(#grad-end); stroke: #dc2626; stroke-width: 3.5; filter: url(#shadow); }
  .bpmn-gateway { fill: url(#grad-gateway); stroke: #ca8a04; stroke-width: 2; filter: url(#shadow); }
  .bpmn-gateway-marker { stroke: #a16207; fill: none; }
  .bpmn-flow { fill: none; stroke: #475569; stroke-width: 1.6; marker-end: url(#arrowhead); stroke-linejoin: round; stroke-linecap: round; }
  .bpmn-label { font-family: 'Segoe UI', Arial, sans-serif; font-size: 12px; font-weight: 500; fill: #1e293b; text-anchor: middle; dominant-baseline: central; }
  .bpmn-flow-label { font-family: 'Segoe UI', Arial, sans-serif; font-size: 11px; fill: #475569; text-anchor: middle; dominant-baseline: central; }
  .bpmn-pool { fill: #ffffff; stroke: #475569; stroke-width: 2; }
  .bpmn-pool-header { fill: #f1f5f9; stroke: #475569; stroke-width: 2; }
  .bpmn-lane { fill: none; stroke: #94a3b8; stroke-width: 1; }
  .bpmn-lane-header { fill: #f1f5f9; stroke: #475569; stroke-width: 1; }
  .bpmn-annotation { fill: none; stroke: #94a3b8; stroke-width: 1; }
  .bpmn-annotation-text { font-family: 'Segoe UI', Arial, sans-serif; font-size: 11px; fill: #1e293b; }
  .bpmn-icon { stroke: #334155; fill: none; }
  .bpmn-data-object { fill: #ffffff; stroke: #1e293b; stroke-width: 1.4; }
  .bpmn-data-object-fold { fill: #f3f4f6; stroke: #1e293b; stroke-width: 1.4; }
  .bpmn-data-store { fill: #ffffff; stroke: #1e293b; stroke-width: 1.4; }
  .bpmn-data-store-ridge { fill: none; stroke: #1e293b; stroke-width: 1; }
  .bpmn-group { fill: none; stroke: #475569; stroke-width: 1.5; stroke-dasharray: 10,4,2,4; }
  .bpmn-message-flow { fill: none; stroke: #1e293b; stroke-width: 1.4; stroke-dasharray: 6,4; marker-end: url(#arrowhead-open); marker-start: url(#dot); stroke-linejoin: round; stroke-linecap: round; }
  .bpmn-association-flow { fill: none; stroke: #1e293b; stroke-width: 1; stroke-dasharray: 2,3; }
  .bpmn-data-association-flow { fill: none; stroke: #1e293b; stroke-width: 1.2; stroke-dasharray: 4,3; marker-end: url(#arrowhead-open); stroke-linejoin: round; stroke-linecap: round; }
</style>
<rect x="0" y="0" width="1862" height="500" fill="#ffffff"/>
  <circle cx="48.0" cy="70.0" r="18.0" class="bpmn-event-start"/>
  <rect x="146.0" y="30.0" width="100.0" height="80.0" rx="10" ry="10" class="bpmn-task"/>
  <text x="192.0" y="49.0" class="bpmn-label">Get</text>
  <text x="196.0" y="63.0" class="bpmn-label">information on</text>
  <text x="196.0" y="77.0" class="bpmn-label">possible</text>
  <text x="196.0" y="91.0" class="bpmn-label">subrogation</text>
  <rect x="326.0" y="30.0" width="100.0" height="80.0" rx="10" ry="10" class="bpmn-task"/>
  <text x="372.0" y="70.0" class="bpmn-label">Check case</text>
  <polygon points="531.0,45.0 556.0,70.0 531.0,95.0 506.0,70.0" class="bpmn-gateway"/>
  <line x1="521.0" y1="60.0" x2="541.0" y2="80.0" class="bpmn-gateway-marker" stroke-width="2.5"/>
  <line x1="541.0" y1="60.0" x2="521.0" y2="80.0" class="bpmn-gateway-marker" stroke-width="2.5"/>
  <text x="531.0" y="107.0" class="bpmn-label">Recourse</text>
  <text x="531.0" y="121.0" class="bpmn-label">possible?</text>
  <rect x="636.0" y="30.0" width="100.0" height="80.0" rx="10" ry="10" class="bpmn-task"/>
  <text x="682.0" y="70.0" class="bpmn-label">Close case</text>
  <rect x="636.0" y="150.0" width="100.0" height="80.0" rx="10" ry="10" class="bpmn-task"/>
  <text x="682.0" y="183.0" class="bpmn-label">Send payment</text>
  <text x="686.0" y="197.0" class="bpmn-label">request</text>
  <rect x="816.0" y="150.0" width="100.0" height="80.0" rx="10" ry="10" class="bpmn-task"/>
  <text x="862.0" y="190.0" class="bpmn-label">Make reminder</text>
  <polygon points="1021.0,165.0 1046.0,190.0 1021.0,215.0 996.0,190.0" class="bpmn-gateway"/>
  <line x1="1011.0" y1="180.0" x2="1031.0" y2="200.0" class="bpmn-gateway-marker" stroke-width="2.5"/>
  <line x1="1031.0" y1="180.0" x2="1011.0" y2="200.0" class="bpmn-gateway-marker" stroke-width="2.5"/>
  <text x="1021.0" y="227.0" class="bpmn-label">Payment</text>
  <text x="1021.0" y="241.0" class="bpmn-label">received?</text>
  <rect x="1126.0" y="150.0" width="100.0" height="80.0" rx="10" ry="10" class="bpmn-task"/>
  <text x="1172.0" y="190.0" class="bpmn-label">Make booking</text>
  <rect x="1306.0" y="150.0" width="100.0" height="80.0" rx="10" ry="10" class="bpmn-task"/>
  <text x="1352.0" y="190.0" class="bpmn-label">Close case</text>
  <polygon points="1151.0,285.0 1176.0,310.0 1151.0,335.0 1126.0,310.0" class="bpmn-gateway"/>
  <line x1="1141.0" y1="300.0" x2="1161.0" y2="320.0" class="bpmn-gateway-marker" stroke-width="2.5"/>
  <line x1="1161.0" y1="300.0" x2="1141.0" y2="320.0" class="bpmn-gateway-marker" stroke-width="2.5"/>
  <text x="1151.0" y="347.0" class="bpmn-label">Disagreement?</text>
  <rect x="1306.0" y="270.0" width="100.0" height="80.0" rx="10" ry="10" class="bpmn-task"/>
  <text x="1352.0" y="303.0" class="bpmn-label">Check</text>
  <text x="1356.0" y="317.0" class="bpmn-label">reasoning</text>
  <polygon points="1511.0,285.0 1536.0,310.0 1511.0,335.0 1486.0,310.0" class="bpmn-gateway"/>
  <line x1="1501.0" y1="300.0" x2="1521.0" y2="320.0" class="bpmn-gateway-marker" stroke-width="2.5"/>
  <line x1="1521.0" y1="300.0" x2="1501.0" y2="320.0" class="bpmn-gateway-marker" stroke-width="2.5"/>
  <text x="1511.0" y="347.0" class="bpmn-label">Disagreement</text>
  <text x="1511.0" y="361.0" class="bpmn-label">valid?</text>
  <rect x="1616.0" y="270.0" width="100.0" height="80.0" rx="10" ry="10" class="bpmn-task"/>
  <text x="1662.0" y="310.0" class="bpmn-label">Close case</text>
  <rect x="1616.0" y="390.0" width="100.0" height="80.0" rx="10" ry="10" class="bpmn-task"/>
  <text x="1662.0" y="416.0" class="bpmn-label">Forward to</text>
  <text x="1666.0" y="430.0" class="bpmn-label">collection</text>
  <text x="1666.0" y="444.0" class="bpmn-label">agency</text>
  <polygon points="1331.0,405.0 1356.0,430.0 1331.0,455.0 1306.0,430.0" class="bpmn-gateway"/>
  <line x1="1321.0" y1="420.0" x2="1341.0" y2="440.0" class="bpmn-gateway-marker" stroke-width="2.5"/>
  <line x1="1341.0" y1="420.0" x2="1321.0" y2="440.0" class="bpmn-gateway-marker" stroke-width="2.5"/>
  <text x="1331.0" y="467.0" class="bpmn-label">Deadline</text>
  <text x="1331.0" y="481.0" class="bpmn-label">reached?</text>
  <circle cx="1814.0" cy="70.0" r="18.0" class="bpmn-event-end"/>
  <polyline points="66.0,70.0 146.0,70.0" class="bpmn-flow"/>
  <polyline points="246.0,70.0 326.0,70.0" class="bpmn-flow"/>
  <polyline points="426.0,70.0 506.0,70.0" class="bpmn-flow"/>
  <polyline points="556.0,70.0 636.0,70.0" class="bpmn-flow"/>
  <polyline points="531.0,95.0 531.0,190.0 636.0,190.0" class="bpmn-flow"/>
  <polyline points="736.0,190.0 816.0,190.0" class="bpmn-flow"/>
  <polyline points="916.0,190.0 996.0,190.0" class="bpmn-flow"/>
  <polyline points="1021.0,215.0 1021.0,310.0 1126.0,310.0" class="bpmn-flow"/>
  <polyline points="1046.0,190.0 1126.0,190.0" class="bpmn-flow"/>
  <polyline points="1226.0,190.0 1306.0,190.0" class="bpmn-flow"/>
  <polyline points="1176.0,310.0 1306.0,310.0" class="bpmn-flow"/>
  <polyline points="1151.0,335.0 1151.0,430.0 1306.0,430.0" class="bpmn-flow"/>
  <polyline points="1406.0,310.0 1486.0,310.0" class="bpmn-flow"/>
  <polyline points="1536.0,310.0 1616.0,310.0" class="bpmn-flow"/>
  <polyline points="1511.0,335.0 1511.0,362.5 1666.0,362.5 1666.0,390.0" class="bpmn-flow"/>
  <polyline points="1356.0,430.0 1616.0,430.0" class="bpmn-flow"/>
  <polyline points="736.0,70.0 1796.0,70.0" class="bpmn-flow"/>
  <polyline points="1406.0,190.0 1601.0,190.0 1601.0,70.0 1796.0,70.0" class="bpmn-flow"/>
  <polyline points="1716.0,310.0 1756.0,310.0 1756.0,70.0 1796.0,70.0" class="bpmn-flow"/>
  <polyline points="1716.0,430.0 1756.0,430.0 1756.0,70.0 1796.0,70.0" class="bpmn-flow"/>
</svg>
