<?xml version="1.0" encoding="UTF-8"?>
<svg xmlns="http://www.w3.org/2000/svg" width="1428" height="800" viewBox="0 0 1428 800">
<defs>
  <marker id="arrowhead" markerWidth="12" markerHeight="9" refX="9" refY="4.5" orient="auto" markerUnits="userSpaceOnUse">
    <path d="M0,0 L9,4.5 L0,9 L2.5,4.5 Z" fill="#475569"/>
  </marker>
  <marker id="arrowhead-open" markerWidth="14" markerHeight="11" refX="12" refY="5.5" orient="auto" markerUnits="userSpaceOnUse">
    <path d="M0,0 L11,5.5 L0,11" fill="none" stroke="#475569" stroke-width="1.4"/>
  </marker>
  <marker id="dot" markerWidth="9" markerHeight="9" refX="4.5" refY="4.5" orient="auto" markerUnits="userSpaceOnUse">
    <circle cx="4.5" cy="4.5" r="3" fill="#ffffff" stroke="#475569" stroke-width="1.2"/>
  </marker>
  <linearGradient id="grad-task" x1="0" y1="0" x2="0" y2="1">
    <stop offset="0%" stop-color="#ffffff"/>
    <stop offset="100%" stop-color="#eff6ff"/>
  </linearGradient>
  <linearGradient id="grad-subprocess" x1="0" y1="0" x2="0" y2="1">
    <stop offset="0%" stop-color="#ffffff"/>
    <stop offset="100%" stop-color="#f5f3ff"/>
  </linearGradient>
  <linearGradient id="grad-start" x1="0" y1="0" x2="0" y2="1">
    <stop offset="0%" stop-color="#ffffff"/>
    <stop offset="100%" stop-color="#dcfce7"/>
  </linearGradient>
  <linearGradient id="grad-end" x1="0" y1="0" x2="0" y2="1">
    <stop offset="0%" stop-color="#ffffff"/>
    <stop offset="100%" stop-color="#fee2e2"/>
  </linearGradient>
  <linearGradient id="grad-intermediate" x1="0" y1="0" x2="0" y2="1">
    <stop offset="0%" stop-color="#ffffff"/>
    <stop offset="100%" stop-color="#fef3c7"/>
  </linearGradient>
  <linearGradient id="grad-gateway" x1="0" y1="0" x2="0" y2="1">
    <stop offset="0%" stop-color="#ffffff"/>
    <stop offset="100%" stop-color="#fefce8"/>
  </linearGradient>
  <filter id="shadow" x="-20%" y="-20%" width="140%" height="140%">
    <feDropShadow dx="1.5" dy="2" stdDeviation="2" flood-color="#0f172a" flood-opacity="0.18"/>
  </filter>
</defs>
<style>
  .bpmn-task { fill: url(#grad-task); stroke: #2563eb; stroke-width: 2; filter: url(#shadow); }
  .bpmn-subprocess { fill: url(#grad-subprocess); stroke: #7c3aed; stroke-width: 2; filter: url(#shadow); }
  .bpmn-event-start { fill: url(#grad-start); stroke: #16a34a; stroke-width: 2; filter: url(#shadow); }
  .bpmn-event-intermediate { fill: url(#grad-intermediate); stroke: #d97706; stroke-width: 2; }
  .bpmn-event-end { fill: url(#grad-end); stroke: #dc2626; stroke-width: 3.5; filter: url(#shadow); }
  .bpmn-gateway { fill: url(#grad-gateway); stroke: #ca8a04; stroke-width: 2; filter: url(#shadow); }
  .bpmn-gateway-marker { stroke: #a16207; fill: none; }
  .bpmn-flow { fill: none; stroke: #475569; stroke-width: 1.6; marker-end: url(#arrowhead); stroke-linejoin: round; stroke-linecap: round; }
  .bpmn-label { font-family: 'Segoe UI', Arial, sans-serif; font-size: 12px; font-weight: 500; fill: #1e293b; text-anchor: middle; dominant-baseline: central; }
  .bpmn-flow-label { font-family: 'Segoe UI', Arial, sans-serif; font-size: 11px; fill: #475569; text-anchor: middle; dominant-baseline: central; }
  .bpmn-pool { fill: #ffffff; stroke: #475569; stroke-width: 2; }
  .bpmn-pool-header { fill: #f1f5f9; stroke: #475569; stroke-width: 2; }
  .bpmn-lane { fill: none; stroke: #94a3b8; stroke-width: 1; }
  .bpmn-lane-header { fill: #f1f5f9; stroke: #475569; stroke-width: 1; }
  .bpmn-annotation { fill: none; stroke: #94a3b8; stroke-width: 1; }
  .bpmn-annotation-text { font-family: 'Segoe UI', Arial, sans-serif; font-size: 11px; fill: #1e293b; }
  .bpmn-icon { stroke: #334155; fill: none; }
  .bpmn-data-object { fill: #ffffff; stroke: #1e293b; stroke-width: 1.4; }
  .bpmn-data-object-fold { fill: #f3f4f6; stroke: #1e293b; stroke-width: 1.4; }
  .bpmn-data-store { fill: #ffffff; stroke: #1e293b; stroke-width: 1.4; }
  .bpmn-data-store-ridge { fill: none; stroke: #1e293b; stroke-width: 1; }
  .bpmn-group { fill: none; stroke: #475569; stroke-width: 1.5; stroke-dasharray: 10,4,2,4; }
  .bpmn-message-flow { fill: none; stroke: #1e293b; stroke-width: 1.4; stroke-dasharray: 6,4; marker-end: url(#arrowhead-open); marker-start: url(#dot); stroke-linejoin: round; stroke-linecap: round; }
  .bpmn-association-flow { fill: none; stroke: #1e293b; stroke-width: 1; stroke-dasharray: 2,3; }
  .bpmn-data-association-flow { fill: none; stroke: #1e293b; stroke-width: 1.2; stroke-dasharray: 4,3; marker-end: url(#arrowhead-open); stroke-linejoin: round; stroke-linecap: round; }
</style>
<rect x="0" y="0" width="1428" height="800" fill="#ffffff"/>
  <rect x="30.0" y="30.0" width="1368.0" height="100.0" class="bpmn-pool"/>
  <rect x="30.0" y="30.0" width="30" height="100.0" class="bpmn-pool-header"/>
  <text x="45.0" y="80.0" transform="rotate(-90,45.0,80.0)" class="bpmn-label">Banking Frontend</text>
  <rect x="30.0" y="170.0" width="1368.0" height="280.0" class="bpmn-pool"/>
  <rect x="30.0" y="170.0" width="30" height="280.0" class="bpmn-pool-header"/>
  <text x="45.0" y="310.0" transform="rotate(-90,45.0,310.0)" class="bpmn-label">Scoring (Bank)</text>
  <circle cx="88.0" cy="250.0" r="18.0" class="bpmn-event-start"/>
  <rect x="78.10" y="243.07" width="19.80" height="13.86" fill="none" stroke="#d97706" stroke-width="1.2"/>
  <path d="M78.10,243.07 L88.00,250.69 L97.90,243.07" fill="none" stroke="#d97706" stroke-width="1.2" stroke-linejoin="round"/>
  <rect x="186.0" y="210.0" width="100.0" height="80.0" rx="10" ry="10" class="bpmn-task"/>
  <rect x="194.0" y="220.0" width="16.0" height="11.0" fill="#334155" stroke="#334155" stroke-width="1"/>
  <path d="M194.0,220.0 L202.0,226.6 L210.0,220.0" fill="none" stroke="#ffffff" stroke-width="1" stroke-linejoin="round"/>
  <text x="254.0" y="243.0" class="bpmn-label">Send scoring</text>
  <text x="236.0" y="257.0" class="bpmn-label">request</text>
  <polygon points="391.0,225.0 416.0,250.0 391.0,275.0 366.0,250.0" class="bpmn-gateway"/>
  <line x1="381.0" y1="240.0" x2="401.0" y2="260.0" class="bpmn-gateway-marker" stroke-width="2.5"/>
  <line x1="401.0" y1="240.0" x2="381.0" y2="260.0" class="bpmn-gateway-marker" stroke-width="2.5"/>
  <text x="391.0" y="287.0" class="bpmn-label">Result</text>
  <text x="391.0" y="301.0" class="bpmn-label">available?</text>
  <rect x="496.0" y="330.0" width="100.0" height="80.0" rx="10" ry="10" class="bpmn-task"/>
  <rect x="504.0" y="340.0" width="16.0" height="11.0" fill="none" stroke="#334155" stroke-width="1"/>
  <path d="M504.0,340.0 L512.0,346.6 L520.0,340.0" fill="none" stroke="#334155" stroke-width="1" stroke-linejoin="round"/>
  <text x="564.0" y="356.0" class="bpmn-label">Receive</text>
  <text x="546.0" y="370.0" class="bpmn-label">immediate</text>
  <text x="546.0" y="384.0" class="bpmn-label">result</text>
  <rect x="496.0" y="210.0" width="100.0" height="80.0" rx="10" ry="10" class="bpmn-task"/>
  <rect x="504.0" y="220.0" width="16.0" height="11.0" fill="none" stroke="#334155" stroke-width="1"/>
  <path d="M504.0,220.0 L512.0,226.6 L520.0,220.0" fill="none" stroke="#334155" stroke-width="1" stroke-linejoin="round"/>
  <text x="564.0" y="243.0" class="bpmn-label">Receive delay</text>
  <text x="546.0" y="257.0" class="bpmn-label">notification</text>
  <rect x="676.0" y="210.0" width="100.0" height="80.0" rx="10" ry="10" class="bpmn-task"/>
  <circle cx="689.0" cy="221.0" r="5" class="bpmn-icon" stroke-width="1.2"/>
  <path d="M684.0,232.0 Q689.0,228.0 694.0,232.0" class="bpmn-icon" stroke-width="1.2"/>
  <text x="742.0" y="236.0" class="bpmn-label">Display delay</text>
  <text x="726.0" y="250.0" class="bpmn-label">message to</text>
  <text x="726.0" y="264.0" class="bpmn-label">clerk</text>
  <circle cx="874.0" cy="250.0" r="18.0" class="bpmn-event-intermediate"/>
  <circle cx="874.0" cy="250.0" r="14.0" fill="none" stroke="#d97706" stroke-width="1.5"/>
  <rect x="864.10" y="243.07" width="19.80" height="13.86" fill="none" stroke="#d97706" stroke-width="1.2"/>
  <path d="M864.10,243.07 L874.00,250.69 L883.90,243.07" fill="none" stroke="#d97706" stroke-width="1.2" stroke-linejoin="round"/>
  <text x="874.0" y="280.0" class="bpmn-label">Wait for level</text>
  <text x="874.0" y="294.0" class="bpmn-label">2 result</text>
  <rect x="972.0" y="210.0" width="100.0" height="80.0" rx="10" ry="10" class="bpmn-task"/>
  <rect x="980.0" y="220.0" width="16.0" height="11.0" fill="none" stroke="#334155" stroke-width="1"/>
  <path d="M980.0,220.0 L988.0,226.6 L996.0,220.0" fill="none" stroke="#334155" stroke-width="1" stroke-linejoin="round"/>
  <text x="1040.0" y="243.0" class="bpmn-label">Receive level</text>
  <text x="1022.0" y="257.0" class="bpmn-label">2 result</text>
  <rect x="1152.0" y="210.0" width="100.0" height="80.0" rx="10" ry="10" class="bpmn-task"/>
  <circle cx="1165.0" cy="221.0" r="5" class="bpmn-icon" stroke-width="1.2"/>
  <path d="M1160.0,232.0 Q1165.0,228.0 1170.0,232.0" class="bpmn-icon" stroke-width="1.2"/>
  <text x="1218.0" y="243.0" class="bpmn-label">Display result</text>
  <text x="1202.0" y="257.0" class="bpmn-label">to clerk</text>
  <circle cx="1350.0" cy="250.0" r="18.0" class="bpmn-event-end"/>
  <rect x="30.0" y="490.0" width="1368.0" height="280.0" class="bpmn-pool"/>
  <rect x="30.0" y="490.0" width="30" height="280.0" class="bpmn-pool-header"/>
  <text x="45.0" y="630.0" transform="rotate(-90,45.0,630.0)" class="bpmn-label">Scoring (Credit protection agency)</text>
  <circle cx="88.0" cy="570.0" r="18.0" class="bpmn-event-start"/>
  <rect x="78.10" y="563.07" width="19.80" height="13.86" fill="none" stroke="#d97706" stroke-width="1.2"/>
  <path d="M78.10,563.07 L88.00,570.69 L97.90,563.07" fill="none" stroke="#d97706" stroke-width="1.2" stroke-linejoin="round"/>
  <rect x="186.0" y="530.0" width="100.0" height="80.0" rx="10" ry="10" class="bpmn-task"/>
  <text x="232.0" y="563.0" class="bpmn-label">Perform level</text>
  <text x="236.0" y="577.0" class="bpmn-label">1 scoring</text>
  <polygon points="391.0,545.0 416.0,570.0 391.0,595.0 366.0,570.0" class="bpmn-gateway"/>
  <line x1="381.0" y1="560.0" x2="401.0" y2="580.0" class="bpmn-gateway-marker" stroke-width="2.5"/>
  <line x1="401.0" y1="560.0" x2="381.0" y2="580.0" class="bpmn-gateway-marker" stroke-width="2.5"/>
  <text x="391.0" y="607.0" class="bpmn-label">Result</text>
  <text x="391.0" y="621.0" class="bpmn-label">available?</text>
  <rect x="496.0" y="530.0" width="100.0" height="80.0" rx="10" ry="10" class="bpmn-task"/>
  <rect x="504.0" y="540.0" width="16.0" height="11.0" fill="#334155" stroke="#334155" stroke-width="1"/>
  <path d="M504.0,540.0 L512.0,546.6 L520.0,540.0" fill="none" stroke="#ffffff" stroke-width="1" stroke-linejoin="round"/>
  <text x="564.0" y="563.0" class="bpmn-label">Send immediate</text>
  <text x="546.0" y="577.0" class="bpmn-label">result</text>
  <circle cx="694.0" cy="570.0" r="18.0" class="bpmn-event-end"/>
  <rect x="496.0" y="650.0" width="100.0" height="80.0" rx="10" ry="10" class="bpmn-task"/>
  <rect x="504.0" y="660.0" width="16.0" height="11.0" fill="#334155" stroke="#334155" stroke-width="1"/>
  <path d="M504.0,660.0 L512.0,666.6 L520.0,660.0" fill="none" stroke="#ffffff" stroke-width="1" stroke-linejoin="round"/>
  <text x="564.0" y="683.0" class="bpmn-label">Send delay</text>
  <text x="546.0" y="697.0" class="bpmn-label">notification</text>
  <rect x="676.0" y="650.0" width="100.0" height="80.0" rx="10" ry="10" class="bpmn-task"/>
  <text x="722.0" y="683.0" class="bpmn-label">Perform level</text>
  <text x="726.0" y="697.0" class="bpmn-label">2 scoring</text>
  <rect x="856.0" y="650.0" width="100.0" height="80.0" rx="10" ry="10" class="bpmn-task"/>
  <rect x="864.0" y="660.0" width="16.0" height="11.0" fill="#334155" stroke="#334155" stroke-width="1"/>
  <path d="M864.0,660.0 L872.0,666.6 L880.0,660.0" fill="none" stroke="#ffffff" stroke-width="1" stroke-linejoin="round"/>
  <text x="924.0" y="683.0" class="bpmn-label">Send level 2</text>
  <text x="906.0" y="697.0" class="bpmn-label">result</text>
  <circle cx="1054.0" cy="690.0" r="18.0" class="bpmn-event-end"/>
  <polyline points="106.0,250.0 186.0,250.0" class="bpmn-flow"/>
  <polyline points="286.0,250.0 366.0,250.0" class="bpmn-flow"/>
  <polyline points="391.0,275.0 391.0,370.0 496.0,370.0" class="bpmn-flow"/>
  <polyline points="416.0,250.0 496.0,250.0" class="bpmn-flow"/>
  <polyline points="546.0,330.0 546.0,250.0 1152.0,250.0" class="bpmn-flow"/>
  <polyline points="1252.0,250.0 1332.0,250.0" class="bpmn-flow"/>
  <polyline points="596.0,250.0 676.0,250.0" class="bpmn-flow"/>
  <polyline points="776.0,250.0 856.0,250.0" class="bpmn-flow"/>
  <polyline points="892.0,250.0 972.0,250.0" class="bpmn-flow"/>
  <polyline points="1072.0,250.0 1152.0,250.0" class="bpmn-flow"/>
  <polyline points="106.0,570.0 186.0,570.0" class="bpmn-flow"/>
  <polyline points="286.0,570.0 366.0,570.0" class="bpmn-flow"/>
  <polyline points="416.0,570.0 496.0,570.0" class="bpmn-flow"/>
  <polyline points="391.0,595.0 391.0,690.0 496.0,690.0" class="bpmn-flow"/>
  <polyline points="596.0,570.0 676.0,570.0" class="bpmn-flow"/>
  <polyline points="596.0,690.0 676.0,690.0" class="bpmn-flow"/>
  <polyline points="776.0,690.0 856.0,690.0" class="bpmn-flow"/>
  <polyline points="956.0,690.0 1036.0,690.0" class="bpmn-flow"/>
  <polyline points="714.0,130.0 714.0,181.0 88.0,181.0 88.0,232.0" class="bpmn-message-flow"/>
  <rect x="350.0" y="163.0" width="102.0" height="16" rx="3" fill="#ffffff" opacity="0.85"/>
  <text x="401.0" y="171.0" class="bpmn-flow-label">Request scoring</text>
  <polyline points="236.0,290.0 236.0,421.0 88.0,421.0 88.0,552.0" class="bpmn-message-flow"/>
  <rect x="111.0" y="403.0" width="102.0" height="16" rx="3" fill="#ffffff" opacity="0.85"/>
  <text x="162.0" y="411.0" class="bpmn-flow-label">Scoring request</text>
  <polyline points="546.0,530.0 546.0,410.0" class="bpmn-message-flow"/>
  <rect x="501.8" y="462.0" width="108.4" height="16" rx="3" fill="#ffffff" opacity="0.85"/>
  <text x="556.0" y="470.0" class="bpmn-flow-label">Immediate result</text>
  <polyline points="546.0,650.0 546.0,290.0" class="bpmn-message-flow"/>
  <rect x="495.4" y="462.0" width="121.2" height="16" rx="3" fill="#ffffff" opacity="0.85"/>
  <text x="556.0" y="470.0" class="bpmn-flow-label">Delay notification</text>
  <polyline points="906.0,650.0 906.0,470.0 1022.0,470.0 1022.0,290.0" class="bpmn-message-flow"/>
  <rect x="916.2" y="472.0" width="95.6" height="16" rx="3" fill="#ffffff" opacity="0.85"/>
  <text x="964.0" y="480.0" class="bpmn-flow-label">Level 2 result</text>
  <polyline points="1202.0,210.0 1202.0,170.0 714.0,170.0 714.0,130.0" class="bpmn-message-flow"/>
  <rect x="910.2" y="152.0" width="95.6" height="16" rx="3" fill="#ffffff" opacity="0.85"/>
  <text x="958.0" y="160.0" class="bpmn-flow-label">Display result</text>
</svg>
