<?xml version="1.0" encoding="UTF-8"?>
<svg xmlns="http://www.w3.org/2000/svg" width="1852" height="740" viewBox="0 0 1852 740">
<defs>
  <marker id="arrowhead" markerWidth="12" markerHeight="9" refX="9" refY="4.5" orient="auto" markerUnits="userSpaceOnUse">
    <path d="M0,0 L9,4.5 L0,9 L2.5,4.5 Z" fill="#475569"/>
  </marker>
  <marker id="arrowhead-open" markerWidth="14" markerHeight="11" refX="12" refY="5.5" orient="auto" markerUnits="userSpaceOnUse">
    <path d="M0,0 L11,5.5 L0,11" fill="none" stroke="#475569" stroke-width="1.4"/>
  </marker>
  <marker id="dot" markerWidth="9" markerHeight="9" refX="4.5" refY="4.5" orient="auto" markerUnits="userSpaceOnUse">
    <circle cx="4.5" cy="4.5" r="3" fill="#ffffff" stroke="#475569" stroke-width="1.2"/>
  </marker>
  <linearGradient id="grad-task" x1="0" y1="0" x2="0" y2="1">
    <stop offset="0%" stop-color="#ffffff"/>
    <stop offset="100%" stop-color="#eff6ff"/>
  </linearGradient>
  <linearGradient id="grad-subprocess" x1="0" y1="0" x2="0" y2="1">
    <stop offset="0%" stop-color="#ffffff"/>
    <stop offset="100%" stop-color="#f5f3ff"/>
  </linearGradient>
  <linearGradient id="grad-start" x1="0" y1="0" x2="0" y2="1">
    <stop offset="0%" stop-color="#ffffff"/>
    <stop offset="100%" stop-color="#dcfce7"/>
  </linearGradient>
  <linearGradient id="grad-end" x1="0" y1="0" x2="0" y2="1">
    <stop offset="0%" stop-color="#ffffff"/>
    <stop offset="100%" stop-color="#fee2e2"/>
  </linearGradient>
  <linearGradient id="grad-intermediate" x1="0" y1="0" x2="0" y2="1">
    <stop offset="0%" stop-color="#ffffff"/>
    <stop offset="100%" stop-color="#fef3c7"/>
  </linearGradient>
  <linearGradient id="grad-gateway" x1="0" y1="0" x2="0" y2="1">
    <stop offset="0%" stop-color="#ffffff"/>
    <stop offset="100%" stop-color="#fefce8"/>
  </linearGradient>
  <filter id="shadow" x="-20%" y="-20%" width="140%" height="140%">
    <feDropShadow dx="1.5" dy="2" stdDeviation="2" flood-color="#0f172a" flood-opacity="0.18"/>
  </filter>
</defs>
<style>
  .bpmn-task { fill: url(#grad-task); stroke: #2563eb; stroke-width: 2; filter: url(#shadow); }
  .bpmn-subprocess { fill: url(#grad-subprocess); stroke: #7c3aed; stroke-width: 2; filter: url(#shadow); }
  .bpmn-event-start { fill: url(#grad-start); stroke: #16a34a; stroke-width: 2; filter: url(#shadow); }
  .bpmn-event-intermediate { fill: url(#grad-intermediate); stroke: #d97706; stroke-width: 2; }
  .bpmn-event-end { fill: url(#grad-end); stroke: #dc2626; stroke-width: 3.5; filter: url(#shadow); }
  .bpmn-gateway { fill: url(#grad-gateway); stroke: #ca8a04; stroke-width: 2; filter: url(#shadow); }
  .bpmn-gateway-marker { stroke: #a16207; fill: none; }
  .bpmn-flow { fill: none; stroke: #475569; stroke-width: 1.6; marker-end: url(#arrowhead); stroke-linejoin: round; stroke-linecap: round; }
  .bpmn-label { font-family: 'Segoe UI', Arial, sans-serif; font-size: 12px; font-weight: 500; fill: #1e293b; text-anchor: middle; dominant-baseline: central; }
  .bpmn-flow-label { font-family: 'Segoe UI', Arial, sans-serif; font-size: 11px; fill: #475569; text-anchor: middle; dominant-baseline: central; }
  .bpmn-pool { fill: #ffffff; stroke: #475569; stroke-width: 2; }
  .bpmn-pool-header { fill: #f1f5f9; stroke: #475569; stroke-width: 2; }
  .bpmn-lane { fill: none; stroke: #94a3b8; stroke-width: 1; }
  .bpmn-lane-header { fill: #f1f5f9; stroke: #475569; stroke-width: 1; }
  .bpmn-annotation { fill: none; stroke: #94a3b8; stroke-width: 1; }
  .bpmn-annotation-text { font-family: 'Segoe UI', Arial, sans-serif; font-size: 11px; fill: #1e293b; }
  .bpmn-icon { stroke: #334155; fill: none; }
  .bpmn-data-object { fill: #ffffff; stroke: #1e293b; stroke-width: 1.4; }
  .bpmn-data-object-fold { fill: #f3f4f6; stroke: #1e293b; stroke-width: 1.4; }
  .bpmn-data-store { fill: #ffffff; stroke: #1e293b; stroke-width: 1.4; }
  .bpmn-data-store-ridge { fill: none; stroke: #1e293b; stroke-width: 1; }
  .bpmn-group { fill: none; stroke: #475569; stroke-width: 1.5; stroke-dasharray: 10,4,2,4; }
  .bpmn-message-flow { fill: none; stroke: #1e293b; stroke-width: 1.4; stroke-dasharray: 6,4; marker-end: url(#arrowhead-open); marker-start: url(#dot); stroke-linejoin: round; stroke-linecap: round; }
  .bpmn-association-flow { fill: none; stroke: #1e293b; stroke-width: 1; stroke-dasharray: 2,3; }
  .bpmn-data-association-flow { fill: none; stroke: #1e293b; stroke-width: 1.2; stroke-dasharray: 4,3; marker-end: url(#arrowhead-open); stroke-linejoin: round; stroke-linecap: round; }
</style>
<rect x="0" y="0" width="1852" height="740" fill="#ffffff"/>
  <rect x="30.0" y="30.0" width="1792.0" height="160.0" class="bpmn-pool"/>
  <rect x="30.0" y="30.0" width="30" height="160.0" class="bpmn-pool-header"/>
  <text x="45.0" y="110.0" transform="rotate(-90,45.0,110.0)" class="bpmn-label">Guest</text>
  <circle cx="88.0" cy="110.0" r="18.0" class="bpmn-event-start"/>
  <rect x="186.0" y="70.0" width="100.0" height="80.0" rx="10" ry="10" class="bpmn-task"/>
  <text x="232.0" y="103.0" class="bpmn-label">Enter</text>
  <text x="236.0" y="117.0" class="bpmn-label">restaurant</text>
  <rect x="366.0" y="70.0" width="100.0" height="80.0" rx="10" ry="10" class="bpmn-task"/>
  <text x="412.0" y="110.0" class="bpmn-label">Choose dish</text>
  <rect x="546.0" y="70.0" width="100.0" height="80.0" rx="10" ry="10" class="bpmn-task"/>
  <text x="592.0" y="110.0" class="bpmn-label">Wait for turn</text>
  <rect x="726.0" y="70.0" width="100.0" height="80.0" rx="10" ry="10" class="bpmn-task"/>
  <text x="772.0" y="110.0" class="bpmn-label">Place order</text>
  <rect x="906.0" y="70.0" width="100.0" height="80.0" rx="10" ry="10" class="bpmn-task"/>
  <text x="952.0" y="110.0" class="bpmn-label">Buzzer rings</text>
  <rect x="1086.0" y="70.0" width="100.0" height="80.0" rx="10" ry="10" class="bpmn-task"/>
  <text x="1132.0" y="110.0" class="bpmn-label">Pick up meal</text>
  <rect x="1266.0" y="70.0" width="100.0" height="80.0" rx="10" ry="10" class="bpmn-task"/>
  <text x="1312.0" y="110.0" class="bpmn-label">Eat meal</text>
  <circle cx="1464.0" cy="110.0" r="18.0" class="bpmn-event-end"/>
  <rect x="30.0" y="230.0" width="1792.0" height="280.0" class="bpmn-pool"/>
  <rect x="30.0" y="230.0" width="30" height="280.0" class="bpmn-pool-header"/>
  <text x="45.0" y="370.0" transform="rotate(-90,45.0,370.0)" class="bpmn-label">Employee</text>
  <circle cx="88.0" cy="430.0" r="18.0" class="bpmn-event-start"/>
  <rect x="186.0" y="390.0" width="100.0" height="80.0" rx="10" ry="10" class="bpmn-task"/>
  <text x="232.0" y="430.0" class="bpmn-label">Receive order</text>
  <rect x="366.0" y="390.0" width="100.0" height="80.0" rx="10" ry="10" class="bpmn-task"/>
  <text x="412.0" y="423.0" class="bpmn-label">Enter order in</text>
  <text x="416.0" y="437.0" class="bpmn-label">POS</text>
  <rect x="546.0" y="390.0" width="100.0" height="80.0" rx="10" ry="10" class="bpmn-task"/>
  <text x="592.0" y="423.0" class="bpmn-label">Collect</text>
  <text x="596.0" y="437.0" class="bpmn-label">payment</text>
  <rect x="726.0" y="390.0" width="100.0" height="80.0" rx="10" ry="10" class="bpmn-task"/>
  <text x="772.0" y="430.0" class="bpmn-label">Setup buzzer</text>
  <rect x="906.0" y="390.0" width="100.0" height="80.0" rx="10" ry="10" class="bpmn-task"/>
  <text x="952.0" y="423.0" class="bpmn-label">Inform chef of</text>
  <text x="956.0" y="437.0" class="bpmn-label">order</text>
  <rect x="1086.0" y="390.0" width="100.0" height="80.0" rx="10" ry="10" class="bpmn-task"/>
  <text x="1132.0" y="423.0" class="bpmn-label">Check if</text>
  <text x="1136.0" y="437.0" class="bpmn-label">buzzed</text>
  <polygon points="1291.0,405.0 1316.0,430.0 1291.0,455.0 1266.0,430.0" class="bpmn-gateway"/>
  <line x1="1281.0" y1="420.0" x2="1301.0" y2="440.0" class="bpmn-gateway-marker" stroke-width="2.5"/>
  <line x1="1301.0" y1="420.0" x2="1281.0" y2="440.0" class="bpmn-gateway-marker" stroke-width="2.5"/>
  <text x="1291.0" y="467.0" class="bpmn-label">No response</text>
  <text x="1291.0" y="481.0" class="bpmn-label">after 5 min?</text>
  <rect x="1396.0" y="270.0" width="100.0" height="80.0" rx="10" ry="10" class="bpmn-task"/>
  <text x="1442.0" y="310.0" class="bpmn-label">Call guest</text>
  <rect x="1396.0" y="390.0" width="100.0" height="80.0" rx="10" ry="10" class="bpmn-task"/>
  <text x="1442.0" y="430.0" class="bpmn-label">Trigger buzzer</text>
  <rect x="1576.0" y="390.0" width="100.0" height="80.0" rx="10" ry="10" class="bpmn-task"/>
  <text x="1622.0" y="430.0" class="bpmn-label">Hand over meal</text>
  <circle cx="1774.0" cy="430.0" r="18.0" class="bpmn-event-end"/>
  <rect x="30.0" y="550.0" width="1792.0" height="160.0" class="bpmn-pool"/>
  <rect x="30.0" y="550.0" width="30" height="160.0" class="bpmn-pool-header"/>
  <text x="45.0" y="630.0" transform="rotate(-90,45.0,630.0)" class="bpmn-label">Chef</text>
  <circle cx="88.0" cy="630.0" r="18.0" class="bpmn-event-start"/>
  <rect x="186.0" y="590.0" width="100.0" height="80.0" rx="10" ry="10" class="bpmn-task"/>
  <text x="232.0" y="630.0" class="bpmn-label">Prepare meal</text>
  <rect x="366.0" y="590.0" width="100.0" height="80.0" rx="10" ry="10" class="bpmn-task"/>
  <text x="412.0" y="623.0" class="bpmn-label">Place meal in</text>
  <text x="416.0" y="637.0" class="bpmn-label">service hatch</text>
  <rect x="546.0" y="590.0" width="100.0" height="80.0" rx="10" ry="10" class="bpmn-task"/>
  <text x="592.0" y="616.0" class="bpmn-label">Notify</text>
  <text x="596.0" y="630.0" class="bpmn-label">employee meal</text>
  <text x="596.0" y="644.0" class="bpmn-label">ready</text>
  <circle cx="744.0" cy="630.0" r="18.0" class="bpmn-event-end"/>
  <polyline points="106.0,110.0 186.0,110.0" class="bpmn-flow"/>
  <polyline points="286.0,110.0 366.0,110.0" class="bpmn-flow"/>
  <polyline points="466.0,110.0 546.0,110.0" class="bpmn-flow"/>
  <polyline points="646.0,110.0 726.0,110.0" class="bpmn-flow"/>
  <polyline points="1006.0,110.0 1086.0,110.0" class="bpmn-flow"/>
  <polyline points="1186.0,110.0 1266.0,110.0" class="bpmn-flow"/>
  <polyline points="1366.0,110.0 1446.0,110.0" class="bpmn-flow"/>
  <polyline points="826.0,110.0 906.0,110.0" class="bpmn-flow"/>
  <polyline points="106.0,430.0 186.0,430.0" class="bpmn-flow"/>
  <polyline points="286.0,430.0 366.0,430.0" class="bpmn-flow"/>
  <polyline points="466.0,430.0 546.0,430.0" class="bpmn-flow"/>
  <polyline points="646.0,430.0 726.0,430.0" class="bpmn-flow"/>
  <polyline points="826.0,430.0 906.0,430.0" class="bpmn-flow"/>
  <polyline points="1006.0,430.0 1086.0,430.0" class="bpmn-flow"/>
  <polyline points="1186.0,430.0 1266.0,430.0" class="bpmn-flow"/>
  <polyline points="1291.0,405.0 1291.0,310.0 1396.0,310.0" class="bpmn-flow"/>
  <polyline points="1316.0,430.0 1396.0,430.0" class="bpmn-flow"/>
  <polyline points="1446.0,270.0 1446.0,210.0 1291.0,210.0 1291.0,405.0" class="bpmn-flow"/>
  <polyline points="1496.0,430.0 1576.0,430.0" class="bpmn-flow"/>
  <polyline points="1676.0,430.0 1756.0,430.0" class="bpmn-flow"/>
  <polyline points="106.0,630.0 186.0,630.0" class="bpmn-flow"/>
  <polyline points="286.0,630.0 366.0,630.0" class="bpmn-flow"/>
  <polyline points="466.0,630.0 546.0,630.0" class="bpmn-flow"/>
  <polyline points="646.0,630.0 726.0,630.0" class="bpmn-flow"/>
  <polyline points="776.0,150.0 776.0,270.0 236.0,270.0 236.0,390.0" class="bpmn-message-flow"/>
  <rect x="487.0" y="252.0" width="38.0" height="16" rx="3" fill="#ffffff" opacity="0.85"/>
  <text x="506.0" y="260.0" class="bpmn-flow-label">order</text>
  <polyline points="776.0,390.0 776.0,270.0 956.0,270.0 956.0,150.0" class="bpmn-message-flow"/>
  <rect x="843.8" y="272.0" width="44.4" height="16" rx="3" fill="#ffffff" opacity="0.85"/>
  <text x="866.0" y="280.0" class="bpmn-flow-label">buzzer</text>
  <polyline points="956.0,470.0 956.0,530.0 236.0,530.0 236.0,590.0" class="bpmn-message-flow"/>
  <rect x="577.0" y="512.0" width="38.0" height="16" rx="3" fill="#ffffff" opacity="0.85"/>
  <text x="596.0" y="520.0" class="bpmn-flow-label">order</text>
  <polyline points="596.0,590.0 596.0,530.0 1136.0,530.0 1136.0,470.0" class="bpmn-message-flow"/>
  <rect x="831.0" y="532.0" width="70.0" height="16" rx="3" fill="#ffffff" opacity="0.85"/>
  <text x="866.0" y="540.0" class="bpmn-flow-label">meal ready</text>
  <polyline points="1446.0,390.0 1446.0,270.0 956.0,270.0 956.0,150.0" class="bpmn-message-flow"/>
  <rect x="1156.4" y="252.0" width="89.2" height="16" rx="3" fill="#ffffff" opacity="0.85"/>
  <text x="1201.0" y="260.0" class="bpmn-flow-label">buzzer signal</text>
</svg>
