<?xml version="1.0" encoding="UTF-8"?>
<svg xmlns="http://www.w3.org/2000/svg" width="2242" height="480" viewBox="0 0 2242 480">
<defs>
  <marker id="arrowhead" markerWidth="12" markerHeight="9" refX="9" refY="4.5" orient="auto" markerUnits="userSpaceOnUse">
    <path d="M0,0 L9,4.5 L0,9 L2.5,4.5 Z" fill="#475569"/>
  </marker>
  <marker id="arrowhead-open" markerWidth="14" markerHeight="11" refX="12" refY="5.5" orient="auto" markerUnits="userSpaceOnUse">
    <path d="M0,0 L11,5.5 L0,11" fill="none" stroke="#475569" stroke-width="1.4"/>
  </marker>
  <marker id="dot" markerWidth="9" markerHeight="9" refX="4.5" refY="4.5" orient="auto" markerUnits="userSpaceOnUse">
    <circle cx="4.5" cy="4.5" r="3" fill="#ffffff" stroke="#475569" stroke-width="1.2"/>
  </marker>
  <linearGradient id="grad-task" x1="0" y1="0" x2="0" y2="1">
    <stop offset="0%" stop-color="#ffffff"/>
    <stop offset="100%" stop-color="#eff6ff"/>
  </linearGradient>
  <linearGradient id="grad-subprocess" x1="0" y1="0" x2="0" y2="1">
    <stop offset="0%" stop-color="#ffffff"/>
    <stop offset="100%" stop-color="#f5f3ff"/>
  </linearGradient>
  <linearGradient id="grad-start" x1="0" y1="0" x2="0" y2="1">
    <stop offset="0%" stop-color="#ffffff"/>
    <stop offset="100%" stop-color="#dcfce7"/>
  </linearGradient>
  <linearGradient id="grad-end" x1="0" y1="0" x2="0" y2="1">
    <stop offset="0%" stop-color="#ffffff"/>
    <stop offset="100%" stop-color="#fee2e2"/>
  </linearGradient>
  <linearGradient id="grad-intermediate" x1="0" y1="0" x2="0" y2="1">
    <stop offset="0%" stop-color="#ffffff"/>
    <stop offset="100%" stop-color="#fef3c7"/>
  </linearGradient>
  <linearGradient id="grad-gateway" x1="0" y1="0" x2="0" y2="1">
    <stop offset="0%" stop-color="#ffffff"/>
    <stop offset="100%" stop-color="#fefce8"/>
  </linearGradient>
  <filter id="shadow" x="-20%" y="-20%" width="140%" height="140%">
    <feDropShadow dx="1.5" dy="2" stdDeviation="2" flood-color="#0f172a" flood-opacity="0.18"/>
  </filter>
</defs>
<style>
  .bpmn-task { fill: url(#grad-task); stroke: #2563eb; stroke-width: 2; filter: url(#shadow); }
  .bpmn-subprocess { fill: url(#grad-subprocess); stroke: #7c3aed; stroke-width: 2; filter: url(#shadow); }
  .bpmn-event-start { fill: url(#grad-start); stroke: #16a34a; stroke-width: 2; filter: url(#shadow); }
  .bpmn-event-intermediate { fill: url(#grad-intermediate); stroke: #d97706; stroke-width: 2; }
  .bpmn-event-end { fill: url(#grad-end); stroke: #dc2626; stroke-width: 3.5; filter: url(#shadow); }
  .bpmn-gateway { fill: url(#grad-gateway); stroke: #ca8a04; stroke-width: 2; filter: url(#shadow); }
  .bpmn-gateway-marker { stroke: #a16207; fill: none; }
  .bpmn-flow { fill: none; stroke: #475569; stroke-width: 1.6; marker-end: url(#arrowhead); stroke-linejoin: round; stroke-linecap: round; }
  .bpmn-label { font-family: 'Segoe UI', Arial, sans-serif; font-size: 12px; font-weight: 500; fill: #1e293b; text-anchor: middle; dominant-baseline: central; }
  .bpmn-flow-label { font-family: 'Segoe UI', Arial, sans-serif; font-size: 11px; fill: #475569; text-anchor: middle; dominant-baseline: central; }
  .bpmn-pool { fill: #ffffff; stroke: #475569; stroke-width: 2; }
  .bpmn-pool-header { fill: #f1f5f9; stroke: #475569; stroke-width: 2; }
  .bpmn-lane { fill: none; stroke: #94a3b8; stroke-width: 1; }
  .bpmn-lane-header { fill: #f1f5f9; stroke: #475569; stroke-width: 1; }
  .bpmn-annotation { fill: none; stroke: #94a3b8; stroke-width: 1; }
  .bpmn-annotation-text { font-family: 'Segoe UI', Arial, sans-serif; font-size: 11px; fill: #1e293b; }
  .bpmn-icon { stroke: #334155; fill: none; }
  .bpmn-data-object { fill: #ffffff; stroke: #1e293b; stroke-width: 1.4; }
  .bpmn-data-object-fold { fill: #f3f4f6; stroke: #1e293b; stroke-width: 1.4; }
  .bpmn-data-store { fill: #ffffff; stroke: #1e293b; stroke-width: 1.4; }
  .bpmn-data-store-ridge { fill: none; stroke: #1e293b; stroke-width: 1; }
  .bpmn-group { fill: none; stroke: #475569; stroke-width: 1.5; stroke-dasharray: 10,4,2,4; }
  .bpmn-message-flow { fill: none; stroke: #1e293b; stroke-width: 1.4; stroke-dasharray: 6,4; marker-end: url(#arrowhead-open); marker-start: url(#dot); stroke-linejoin: round; stroke-linecap: round; }
  .bpmn-association-flow { fill: none; stroke: #1e293b; stroke-width: 1; stroke-dasharray: 2,3; }
  .bpmn-data-association-flow { fill: none; stroke: #1e293b; stroke-width: 1.2; stroke-dasharray: 4,3; marker-end: url(#arrowhead-open); stroke-linejoin: round; stroke-linecap: round; }
</style>
<rect x="0" y="0" width="2242" height="480" fill="#ffffff"/>
  <rect x="30.0" y="50.0" width="2182.0" height="400.0" class="bpmn-pool"/>
  <rect x="30.0" y="50.0" width="30" height="400.0" class="bpmn-pool-header"/>
  <text x="45.0" y="250.0" transform="rotate(-90,45.0,250.0)" class="bpmn-label">IT Incident Escalation</text>
  <circle cx="88.0" cy="370.0" r="18.0" class="bpmn-event-start"/>
  <text x="88.0" y="400.0" class="bpmn-label">Open ticket</text>
  <rect x="186.0" y="330.0" width="100.0" height="80.0" rx="10" ry="10" class="bpmn-task"/>
  <text x="232.0" y="363.0" class="bpmn-label">Classify</text>
  <text x="236.0" y="377.0" class="bpmn-label">ticket</text>
  <polygon points="391.0,345.0 416.0,370.0 391.0,395.0 366.0,370.0" class="bpmn-gateway"/>
  <line x1="381.0" y1="360.0" x2="401.0" y2="380.0" class="bpmn-gateway-marker" stroke-width="2.5"/>
  <line x1="401.0" y1="360.0" x2="381.0" y2="380.0" class="bpmn-gateway-marker" stroke-width="2.5"/>
  <text x="391.0" y="407.0" class="bpmn-label">Simple issue?</text>
  <rect x="496.0" y="330.0" width="100.0" height="80.0" rx="10" ry="10" class="bpmn-task"/>
  <text x="542.0" y="363.0" class="bpmn-label">Resolve</text>
  <text x="546.0" y="377.0" class="bpmn-label">directly</text>
  <rect x="676.0" y="330.0" width="100.0" height="80.0" rx="10" ry="10" class="bpmn-task"/>
  <text x="722.0" y="370.0" class="bpmn-label">Close ticket</text>
  <rect x="496.0" y="210.0" width="100.0" height="80.0" rx="10" ry="10" class="bpmn-task"/>
  <text x="542.0" y="250.0" class="bpmn-label">Escalate</text>
  <polygon points="701.0,225.0 726.0,250.0 701.0,275.0 676.0,250.0" class="bpmn-gateway"/>
  <line x1="701.0" y1="238.8" x2="701.0" y2="261.2" class="bpmn-gateway-marker" stroke-width="3"/>
  <line x1="689.8" y1="250.0" x2="712.2" y2="250.0" class="bpmn-gateway-marker" stroke-width="3"/>
  <rect x="856.0" y="210.0" width="100.0" height="80.0" rx="10" ry="10" class="bpmn-task"/>
  <text x="902.0" y="243.0" class="bpmn-label">Check</text>
  <text x="906.0" y="257.0" class="bpmn-label">connectivity</text>
  <rect x="856.0" y="90.0" width="100.0" height="80.0" rx="10" ry="10" class="bpmn-task"/>
  <text x="902.0" y="130.0" class="bpmn-label">Check security</text>
  <polygon points="1061.0,225.0 1086.0,250.0 1061.0,275.0 1036.0,250.0" class="bpmn-gateway"/>
  <line x1="1061.0" y1="238.8" x2="1061.0" y2="261.2" class="bpmn-gateway-marker" stroke-width="3"/>
  <line x1="1049.8" y1="250.0" x2="1072.2" y2="250.0" class="bpmn-gateway-marker" stroke-width="3"/>
  <rect x="1166.0" y="210.0" width="100.0" height="80.0" rx="10" ry="10" class="bpmn-task"/>
  <text x="1212.0" y="243.0" class="bpmn-label">Review</text>
  <text x="1216.0" y="257.0" class="bpmn-label">findings</text>
  <polygon points="1371.0,225.0 1396.0,250.0 1371.0,275.0 1346.0,250.0" class="bpmn-gateway"/>
  <line x1="1361.0" y1="240.0" x2="1381.0" y2="260.0" class="bpmn-gateway-marker" stroke-width="2.5"/>
  <line x1="1381.0" y1="240.0" x2="1361.0" y2="260.0" class="bpmn-gateway-marker" stroke-width="2.5"/>
  <text x="1371.0" y="287.0" class="bpmn-label">Incident type?</text>
  <rect x="1476.0" y="210.0" width="100.0" height="80.0" rx="10" ry="10" class="bpmn-task"/>
  <text x="1522.0" y="243.0" class="bpmn-label">Apply routine</text>
  <text x="1526.0" y="257.0" class="bpmn-label">fix</text>
  <rect x="1476.0" y="90.0" width="100.0" height="80.0" rx="10" ry="10" class="bpmn-task"/>
  <text x="1522.0" y="123.0" class="bpmn-label">Apply</text>
  <text x="1526.0" y="137.0" class="bpmn-label">emergency fix</text>
  <rect x="1656.0" y="210.0" width="100.0" height="80.0" rx="10" ry="10" class="bpmn-task"/>
  <text x="1702.0" y="243.0" class="bpmn-label">Verify</text>
  <text x="1706.0" y="257.0" class="bpmn-label">resolution</text>
  <polygon points="1861.0,225.0 1886.0,250.0 1861.0,275.0 1836.0,250.0" class="bpmn-gateway"/>
  <line x1="1851.0" y1="240.0" x2="1871.0" y2="260.0" class="bpmn-gateway-marker" stroke-width="2.5"/>
  <line x1="1871.0" y1="240.0" x2="1851.0" y2="260.0" class="bpmn-gateway-marker" stroke-width="2.5"/>
  <text x="1861.0" y="287.0" class="bpmn-label">Fix worked?</text>
  <rect x="1966.0" y="210.0" width="100.0" height="80.0" rx="10" ry="10" class="bpmn-task"/>
  <text x="2012.0" y="243.0" class="bpmn-label">Notify</text>
  <text x="2016.0" y="257.0" class="bpmn-label">reporter</text>
  <circle cx="2164.0" cy="370.0" r="18.0" class="bpmn-event-end"/>
  <polyline points="106.0,370.0 186.0,370.0" class="bpmn-flow"/>
  <polyline points="286.0,370.0 366.0,370.0" class="bpmn-flow"/>
  <polyline points="416.0,370.0 496.0,370.0" class="bpmn-flow"/>
  <polyline points="391.0,345.0 391.0,250.0 496.0,250.0" class="bpmn-flow"/>
  <polyline points="596.0,370.0 676.0,370.0" class="bpmn-flow"/>
  <polyline points="776.0,370.0 2146.0,370.0" class="bpmn-flow"/>
  <polyline points="596.0,250.0 676.0,250.0" class="bpmn-flow"/>
  <polyline points="726.0,250.0 856.0,250.0" class="bpmn-flow"/>
  <polyline points="701.0,225.0 701.0,130.0 856.0,130.0" class="bpmn-flow"/>
  <polyline points="956.0,250.0 1036.0,250.0" class="bpmn-flow"/>
  <polyline points="956.0,130.0 1061.0,130.0 1061.0,225.0" class="bpmn-flow"/>
  <polyline points="1086.0,250.0 1166.0,250.0" class="bpmn-flow"/>
  <polyline points="1266.0,250.0 1346.0,250.0" class="bpmn-flow"/>
  <polyline points="1396.0,250.0 1476.0,250.0" class="bpmn-flow"/>
  <polyline points="1371.0,225.0 1371.0,130.0 1476.0,130.0" class="bpmn-flow"/>
  <polyline points="1576.0,250.0 1656.0,250.0" class="bpmn-flow"/>
  <polyline points="1576.0,130.0 1706.0,130.0 1706.0,210.0" class="bpmn-flow"/>
  <polyline points="1756.0,250.0 1836.0,250.0" class="bpmn-flow"/>
  <polyline points="1861.0,225.0 1861.0,30.0 546.0,30.0 546.0,210.0" class="bpmn-flow"/>
  <polyline points="1886.0,250.0 1966.0,250.0" class="bpmn-flow"/>
  <polyline points="2066.0,250.0 2164.0,250.0 2164.0,352.0" class="bpmn-flow"/>
</svg>
