<?xml version="1.0" encoding="UTF-8"?>
<svg xmlns="http://www.w3.org/2000/svg" width="1802" height="480" viewBox="0 0 1802 480">
<defs>
  <marker id="arrowhead" markerWidth="12" markerHeight="9" refX="9" refY="4.5" orient="auto" markerUnits="userSpaceOnUse">
    <path d="M0,0 L9,4.5 L0,9 L2.5,4.5 Z" fill="#475569"/>
  </marker>
  <marker id="arrowhead-open" markerWidth="14" markerHeight="11" refX="12" refY="5.5" orient="auto" markerUnits="userSpaceOnUse">
    <path d="M0,0 L11,5.5 L0,11" fill="none" stroke="#475569" stroke-width="1.4"/>
  </marker>
  <marker id="dot" markerWidth="9" markerHeight="9" refX="4.5" refY="4.5" orient="auto" markerUnits="userSpaceOnUse">
    <circle cx="4.5" cy="4.5" r="3" fill="#ffffff" stroke="#475569" stroke-width="1.2"/>
  </marker>
  <linearGradient id="grad-task" x1="0" y1="0" x2="0" y2="1">
    <stop offset="0%" stop-color="#ffffff"/>
    <stop offset="100%" stop-color="#eff6ff"/>
  </linearGradient>
  <linearGradient id="grad-subprocess" x1="0" y1="0" x2="0" y2="1">
    <stop offset="0%" stop-color="#ffffff"/>
    <stop offset="100%" stop-color="#f5f3ff"/>
  </linearGradient>
  <linearGradient id="grad-start" x1="0" y1="0" x2="0" y2="1">
    <stop offset="0%" stop-color="#ffffff"/>
    <stop offset="100%" stop-color="#dcfce7"/>
  </linearGradient>
  <linearGradient id="grad-end" x1="0" y1="0" x2="0" y2="1">
    <stop offset="0%" stop-color="#ffffff"/>
    <stop offset="100%" stop-color="#fee2e2"/>
  </linearGradient>
  <linearGradient id="grad-intermediate" x1="0" y1="0" x2="0" y2="1">
    <stop offset="0%" stop-color="#ffffff"/>
    <stop offset="100%" stop-color="#fef3c7"/>
  </linearGradient>
  <linearGradient id="grad-gateway" x1="0" y1="0" x2="0" y2="1">
    <stop offset="0%" stop-color="#ffffff"/>
    <stop offset="100%" stop-color="#fefce8"/>
  </linearGradient>
  <filter id="shadow" x="-20%" y="-20%" width="140%" height="140%">
    <feDropShadow dx="1.5" dy="2" stdDeviation="2" flood-color="#0f172a" flood-opacity="0.18"/>
  </filter>
</defs>
<style>
  .bpmn-task { fill: url(#grad-task); stroke: #2563eb; stroke-width: 2; filter: url(#shadow); }
  .bpmn-subprocess { fill: url(#grad-subprocess); stroke: #7c3aed; stroke-width: 2; filter: url(#shadow); }
  .bpmn-event-start { fill: url(#grad-start); stroke: #16a34a; stroke-width: 2; filter: url(#shadow); }
  .bpmn-event-intermediate { fill: url(#grad-intermediate); stroke: #d97706; stroke-width: 2; }
  .bpmn-event-end { fill: url(#grad-end); stroke: #dc2626; stroke-width: 3.5; filter: url(#shadow); }
  .bpmn-gateway { fill: url(#grad-gateway); stroke: #ca8a04; stroke-width: 2; filter: url(#shadow); }
  .bpmn-gateway-marker { stroke: #a16207; fill: none; }
  .bpmn-flow { fill: none; stroke: #475569; stroke-width: 1.6; marker-end: url(#arrowhead); stroke-linejoin: round; stroke-linecap: round; }
  .bpmn-label { font-family: 'Segoe UI', Arial, sans-serif; font-size: 12px; font-weight: 500; fill: #1e293b; text-anchor: middle; dominant-baseline: central; }
  .bpmn-flow-label { font-family: 'Segoe UI', Arial, sans-serif; font-size: 11px; fill: #475569; text-anchor: middle; dominant-baseline: central; }
  .bpmn-pool { fill: #ffffff; stroke: #475569; stroke-width: 2; }
  .bpmn-pool-header { fill: #f1f5f9; stroke: #475569; stroke-width: 2; }
  .bpmn-lane { fill: none; stroke: #94a3b8; stroke-width: 1; }
  .bpmn-lane-header { fill: #f1f5f9; stroke: #475569; stroke-width: 1; }
  .bpmn-annotation { fill: none; stroke: #94a3b8; stroke-width: 1; }
  .bpmn-annotation-text { font-family: 'Segoe UI', Arial, sans-serif; font-size: 11px; fill: #1e293b; }
  .bpmn-icon { stroke: #334155; fill: none; }
  .bpmn-data-object { fill: #ffffff; stroke: #1e293b; stroke-width: 1.4; }
  .bpmn-data-object-fold { fill: #f3f4f6; stroke: #1e293b; stroke-width: 1.4; }
  .bpmn-data-store { fill: #ffffff; stroke: #1e293b; stroke-width: 1.4; }
  .bpmn-data-store-ridge { fill: none; stroke: #1e293b; stroke-width: 1; }
  .bpmn-group { fill: none; stroke: #475569; stroke-width: 1.5; stroke-dasharray: 10,4,2,4; }
  .bpmn-message-flow { fill: none; stroke: #1e293b; stroke-width: 1.4; stroke-dasharray: 6,4; marker-end: url(#arrowhead-open); marker-start: url(#dot); stroke-linejoin: round; stroke-linecap: round; }
  .bpmn-association-flow { fill: none; stroke: #1e293b; stroke-width: 1; stroke-dasharray: 2,3; }
  .bpmn-data-association-flow { fill: none; stroke: #1e293b; stroke-width: 1.2; stroke-dasharray: 4,3; marker-end: url(#arrowhead-open); stroke-linejoin: round; stroke-linecap: round; }
</style>
<rect x="0" y="0" width="1802" height="480" fill="#ffffff"/>
  <rect x="30.0" y="50.0" width="1742.0" height="400.0" class="bpmn-pool"/>
  <rect x="30.0" y="50.0" width="30" height="400.0" class="bpmn-pool-header"/>
  <text x="45.0" y="250.0" transform="rotate(-90,45.0,250.0)" class="bpmn-label">Expense Reimbursement</text>
  <circle cx="88.0" cy="250.0" r="18.0" class="bpmn-event-start"/>
  <rect x="186.0" y="210.0" width="100.0" height="80.0" rx="10" ry="10" class="bpmn-task"/>
  <text x="232.0" y="243.0" class="bpmn-label">Fill expense</text>
  <text x="236.0" y="257.0" class="bpmn-label">report</text>
  <rect x="366.0" y="210.0" width="100.0" height="80.0" rx="10" ry="10" class="bpmn-task"/>
  <text x="412.0" y="243.0" class="bpmn-label">Submit with</text>
  <text x="416.0" y="257.0" class="bpmn-label">receipts</text>
  <rect x="856.0" y="90.0" width="100.0" height="80.0" rx="10" ry="10" class="bpmn-task"/>
  <text x="902.0" y="123.0" class="bpmn-label">Receive</text>
  <text x="906.0" y="137.0" class="bpmn-label">rejection</text>
  <rect x="546.0" y="210.0" width="100.0" height="80.0" rx="10" ry="10" class="bpmn-task"/>
  <text x="592.0" y="250.0" class="bpmn-label">Review report</text>
  <polygon points="751.0,225.0 776.0,250.0 751.0,275.0 726.0,250.0" class="bpmn-gateway"/>
  <line x1="741.0" y1="240.0" x2="761.0" y2="260.0" class="bpmn-gateway-marker" stroke-width="2.5"/>
  <line x1="761.0" y1="240.0" x2="741.0" y2="260.0" class="bpmn-gateway-marker" stroke-width="2.5"/>
  <text x="751.0" y="287.0" class="bpmn-label">Approve?</text>
  <rect x="1166.0" y="330.0" width="100.0" height="80.0" rx="10" ry="10" class="bpmn-task"/>
  <text x="1212.0" y="363.0" class="bpmn-label">Higher-level</text>
  <text x="1216.0" y="377.0" class="bpmn-label">approval</text>
  <rect x="856.0" y="210.0" width="100.0" height="80.0" rx="10" ry="10" class="bpmn-task"/>
  <text x="902.0" y="243.0" class="bpmn-label">Check</text>
  <text x="906.0" y="257.0" class="bpmn-label">threshold</text>
  <polygon points="1061.0,225.0 1086.0,250.0 1061.0,275.0 1036.0,250.0" class="bpmn-gateway"/>
  <line x1="1051.0" y1="240.0" x2="1071.0" y2="260.0" class="bpmn-gateway-marker" stroke-width="2.5"/>
  <line x1="1071.0" y1="240.0" x2="1051.0" y2="260.0" class="bpmn-gateway-marker" stroke-width="2.5"/>
  <text x="1061.0" y="287.0" class="bpmn-label">Under</text>
  <text x="1061.0" y="301.0" class="bpmn-label">threshold?</text>
  <rect x="1346.0" y="210.0" width="100.0" height="80.0" rx="10" ry="10" class="bpmn-task"/>
  <text x="1392.0" y="243.0" class="bpmn-label">Process</text>
  <text x="1396.0" y="257.0" class="bpmn-label">payment</text>
  <rect x="1526.0" y="210.0" width="100.0" height="80.0" rx="10" ry="10" class="bpmn-task"/>
  <text x="1572.0" y="243.0" class="bpmn-label">Send</text>
  <text x="1576.0" y="257.0" class="bpmn-label">confirmation</text>
  <circle cx="1724.0" cy="250.0" r="18.0" class="bpmn-event-end"/>
  <polyline points="106.0,250.0 186.0,250.0" class="bpmn-flow"/>
  <polyline points="286.0,250.0 366.0,250.0" class="bpmn-flow"/>
  <polyline points="466.0,250.0 546.0,250.0" class="bpmn-flow"/>
  <polyline points="646.0,250.0 726.0,250.0" class="bpmn-flow"/>
  <polyline points="751.0,225.0 751.0,130.0 856.0,130.0" class="bpmn-flow"/>
  <polyline points="776.0,250.0 856.0,250.0" class="bpmn-flow"/>
  <polyline points="906.0,90.0 906.0,30.0 236.0,30.0 236.0,210.0" class="bpmn-flow"/>
  <polyline points="956.0,250.0 1036.0,250.0" class="bpmn-flow"/>
  <polyline points="1086.0,250.0 1346.0,250.0" class="bpmn-flow"/>
  <polyline points="1061.0,275.0 1061.0,370.0 1166.0,370.0" class="bpmn-flow"/>
  <polyline points="1266.0,370.0 1306.0,370.0 1306.0,250.0 1346.0,250.0" class="bpmn-flow"/>
  <polyline points="1446.0,250.0 1526.0,250.0" class="bpmn-flow"/>
  <polyline points="1626.0,250.0 1706.0,250.0" class="bpmn-flow"/>
</svg>
