<?xml version="1.0" encoding="UTF-8"?>
<svg xmlns="http://www.w3.org/2000/svg" width="2162" height="740" viewBox="0 0 2162 740">
<defs>
  <marker id="arrowhead" markerWidth="12" markerHeight="9" refX="9" refY="4.5" orient="auto" markerUnits="userSpaceOnUse">
    <path d="M0,0 L9,4.5 L0,9 L2.5,4.5 Z" fill="#475569"/>
  </marker>
  <marker id="arrowhead-open" markerWidth="14" markerHeight="11" refX="12" refY="5.5" orient="auto" markerUnits="userSpaceOnUse">
    <path d="M0,0 L11,5.5 L0,11" fill="none" stroke="#475569" stroke-width="1.4"/>
  </marker>
  <marker id="dot" markerWidth="9" markerHeight="9" refX="4.5" refY="4.5" orient="auto" markerUnits="userSpaceOnUse">
    <circle cx="4.5" cy="4.5" r="3" fill="#ffffff" stroke="#475569" stroke-width="1.2"/>
  </marker>
  <linearGradient id="grad-task" x1="0" y1="0" x2="0" y2="1">
    <stop offset="0%" stop-color="#ffffff"/>
    <stop offset="100%" stop-color="#eff6ff"/>
  </linearGradient>
  <linearGradient id="grad-subprocess" x1="0" y1="0" x2="0" y2="1">
    <stop offset="0%" stop-color="#ffffff"/>
    <stop offset="100%" stop-color="#f5f3ff"/>
  </linearGradient>
  <linearGradient id="grad-start" x1="0" y1="0" x2="0" y2="1">
    <stop offset="0%" stop-color="#ffffff"/>
    <stop offset="100%" stop-color="#dcfce7"/>
  </linearGradient>
  <linearGradient id="grad-end" x1="0" y1="0" x2="0" y2="1">
    <stop offset="0%" stop-color="#ffffff"/>
    <stop offset="100%" stop-color="#fee2e2"/>
  </linearGradient>
  <linearGradient id="grad-intermediate" x1="0" y1="0" x2="0" y2="1">
    <stop offset="0%" stop-color="#ffffff"/>
    <stop offset="100%" stop-color="#fef3c7"/>
  </linearGradient>
  <linearGradient id="grad-gateway" x1="0" y1="0" x2="0" y2="1">
    <stop offset="0%" stop-color="#ffffff"/>
    <stop offset="100%" stop-color="#fefce8"/>
  </linearGradient>
  <filter id="shadow" x="-20%" y="-20%" width="140%" height="140%">
    <feDropShadow dx="1.5" dy="2" stdDeviation="2" flood-color="#0f172a" flood-opacity="0.18"/>
  </filter>
</defs>
<style>
  .bpmn-task { fill: url(#grad-task); stroke: #2563eb; stroke-width: 2; filter: url(#shadow); }
  .bpmn-subprocess { fill: url(#grad-subprocess); stroke: #7c3aed; stroke-width: 2; filter: url(#shadow); }
  .bpmn-event-start { fill: url(#grad-start); stroke: #16a34a; stroke-width: 2; filter: url(#shadow); }
  .bpmn-event-intermediate { fill: url(#grad-intermediate); stroke: #d97706; stroke-width: 2; }
  .bpmn-event-end { fill: url(#grad-end); stroke: #dc2626; stroke-width: 3.5; filter: url(#shadow); }
  .bpmn-gateway { fill: url(#grad-gateway); stroke: #ca8a04; stroke-width: 2; filter: url(#shadow); }
  .bpmn-gateway-marker { stroke: #a16207; fill: none; }
  .bpmn-flow { fill: none; stroke: #475569; stroke-width: 1.6; marker-end: url(#arrowhead); stroke-linejoin: round; stroke-linecap: round; }
  .bpmn-label { font-family: 'Segoe UI', Arial, sans-serif; font-size: 12px; font-weight: 500; fill: #1e293b; text-anchor: middle; dominant-baseline: central; }
  .bpmn-flow-label { font-family: 'Segoe UI', Arial, sans-serif; font-size: 11px; fill: #475569; text-anchor: middle; dominant-baseline: central; }
  .bpmn-pool { fill: #ffffff; stroke: #475569; stroke-width: 2; }
  .bpmn-pool-header { fill: #f1f5f9; stroke: #475569; stroke-width: 2; }
  .bpmn-lane { fill: none; stroke: #94a3b8; stroke-width: 1; }
  .bpmn-lane-header { fill: #f1f5f9; stroke: #475569; stroke-width: 1; }
  .bpmn-annotation { fill: none; stroke: #94a3b8; stroke-width: 1; }
  .bpmn-annotation-text { font-family: 'Segoe UI', Arial, sans-serif; font-size: 11px; fill: #1e293b; }
  .bpmn-icon { stroke: #334155; fill: none; }
  .bpmn-data-object { fill: #ffffff; stroke: #1e293b; stroke-width: 1.4; }
  .bpmn-data-object-fold { fill: #f3f4f6; stroke: #1e293b; stroke-width: 1.4; }
  .bpmn-data-store { fill: #ffffff; stroke: #1e293b; stroke-width: 1.4; }
  .bpmn-data-store-ridge { fill: none; stroke: #1e293b; stroke-width: 1; }
  .bpmn-group { fill: none; stroke: #475569; stroke-width: 1.5; stroke-dasharray: 10,4,2,4; }
  .bpmn-message-flow { fill: none; stroke: #1e293b; stroke-width: 1.4; stroke-dasharray: 6,4; marker-end: url(#arrowhead-open); marker-start: url(#dot); stroke-linejoin: round; stroke-linecap: round; }
  .bpmn-association-flow { fill: none; stroke: #1e293b; stroke-width: 1; stroke-dasharray: 2,3; }
  .bpmn-data-association-flow { fill: none; stroke: #1e293b; stroke-width: 1.2; stroke-dasharray: 4,3; marker-end: url(#arrowhead-open); stroke-linejoin: round; stroke-linecap: round; }
</style>
<rect x="0" y="0" width="2162" height="740" fill="#ffffff"/>
  <rect x="30.0" y="30.0" width="2102.0" height="100.0" class="bpmn-pool"/>
  <rect x="30.0" y="30.0" width="30" height="100.0" class="bpmn-pool-header"/>
  <text x="45.0" y="80.0" transform="rotate(-90,45.0,80.0)" class="bpmn-label">Policyholder</text>
  <rect x="30.0" y="170.0" width="2102.0" height="400.0" class="bpmn-pool"/>
  <rect x="30.0" y="170.0" width="30" height="400.0" class="bpmn-pool-header"/>
  <text x="45.0" y="370.0" transform="rotate(-90,45.0,370.0)" class="bpmn-label">Insurance Company</text>
  <circle cx="88.0" cy="250.0" r="18.0" class="bpmn-event-start"/>
  <text x="88.0" y="280.0" class="bpmn-label">Receive claim</text>
  <rect x="186.0" y="210.0" width="100.0" height="80.0" rx="10" ry="10" class="bpmn-task"/>
  <text x="232.0" y="250.0" class="bpmn-label">Register claim</text>
  <rect x="366.0" y="210.0" width="100.0" height="80.0" rx="10" ry="10" class="bpmn-task"/>
  <text x="412.0" y="250.0" class="bpmn-label">Verify policy</text>
  <polygon points="571.0,225.0 596.0,250.0 571.0,275.0 546.0,250.0" class="bpmn-gateway"/>
  <line x1="561.0" y1="240.0" x2="581.0" y2="260.0" class="bpmn-gateway-marker" stroke-width="2.5"/>
  <line x1="581.0" y1="240.0" x2="561.0" y2="260.0" class="bpmn-gateway-marker" stroke-width="2.5"/>
  <text x="571.0" y="287.0" class="bpmn-label">Policy valid?</text>
  <rect x="676.0" y="330.0" width="100.0" height="80.0" rx="10" ry="10" class="bpmn-task"/>
  <text x="722.0" y="370.0" class="bpmn-label">Send rejection</text>
  <rect x="676.0" y="210.0" width="100.0" height="80.0" rx="10" ry="10" class="bpmn-task"/>
  <text x="722.0" y="250.0" class="bpmn-label">Assess damage</text>
  <polygon points="881.0,225.0 906.0,250.0 881.0,275.0 856.0,250.0" class="bpmn-gateway"/>
  <line x1="871.0" y1="240.0" x2="891.0" y2="260.0" class="bpmn-gateway-marker" stroke-width="2.5"/>
  <line x1="891.0" y1="240.0" x2="871.0" y2="260.0" class="bpmn-gateway-marker" stroke-width="2.5"/>
  <text x="881.0" y="287.0" class="bpmn-label">Cost above</text>
  <text x="881.0" y="301.0" class="bpmn-label">threshold?</text>
  <rect x="986.0" y="450.0" width="100.0" height="80.0" rx="10" ry="10" class="bpmn-task"/>
  <text x="1032.0" y="483.0" class="bpmn-label">Get assessor</text>
  <text x="1036.0" y="497.0" class="bpmn-label">approval</text>
  <rect x="1166.0" y="210.0" width="100.0" height="80.0" rx="10" ry="10" class="bpmn-task"/>
  <text x="1212.0" y="243.0" class="bpmn-label">Send repair</text>
  <text x="1216.0" y="257.0" class="bpmn-label">order</text>
  <rect x="1346.0" y="210.0" width="100.0" height="80.0" rx="10" ry="10" class="bpmn-task"/>
  <text x="1392.0" y="243.0" class="bpmn-label">Wait for</text>
  <text x="1396.0" y="257.0" class="bpmn-label">repair</text>
  <rect x="1526.0" y="210.0" width="100.0" height="80.0" rx="10" ry="10" class="bpmn-task"/>
  <text x="1572.0" y="243.0" class="bpmn-label">Receive repair</text>
  <text x="1576.0" y="257.0" class="bpmn-label">completed</text>
  <rect x="1706.0" y="210.0" width="100.0" height="80.0" rx="10" ry="10" class="bpmn-task"/>
  <text x="1752.0" y="243.0" class="bpmn-label">Release</text>
  <text x="1756.0" y="257.0" class="bpmn-label">payment</text>
  <rect x="1886.0" y="210.0" width="100.0" height="80.0" rx="10" ry="10" class="bpmn-task"/>
  <text x="1932.0" y="236.0" class="bpmn-label">Send</text>
  <text x="1936.0" y="250.0" class="bpmn-label">settlement</text>
  <text x="1936.0" y="264.0" class="bpmn-label">notice</text>
  <circle cx="2084.0" cy="250.0" r="18.0" class="bpmn-event-end"/>
  <rect x="30.0" y="610.0" width="2102.0" height="100.0" class="bpmn-pool"/>
  <rect x="30.0" y="610.0" width="30" height="100.0" class="bpmn-pool-header"/>
  <text x="45.0" y="660.0" transform="rotate(-90,45.0,660.0)" class="bpmn-label">Repair Garage</text>
  <polyline points="106.0,250.0 186.0,250.0" class="bpmn-flow"/>
  <polyline points="286.0,250.0 366.0,250.0" class="bpmn-flow"/>
  <polyline points="466.0,250.0 546.0,250.0" class="bpmn-flow"/>
  <polyline points="571.0,275.0 571.0,370.0 676.0,370.0" class="bpmn-flow"/>
  <polyline points="596.0,250.0 676.0,250.0" class="bpmn-flow"/>
  <polyline points="726.0,330.0 726.0,250.0 2066.0,250.0" class="bpmn-flow"/>
  <polyline points="776.0,250.0 856.0,250.0" class="bpmn-flow"/>
  <polyline points="881.0,275.0 881.0,490.0 986.0,490.0" class="bpmn-flow"/>
  <polyline points="906.0,250.0 1166.0,250.0" class="bpmn-flow"/>
  <polyline points="1086.0,490.0 1126.0,490.0 1126.0,250.0 1166.0,250.0" class="bpmn-flow"/>
  <polyline points="1266.0,250.0 1346.0,250.0" class="bpmn-flow"/>
  <polyline points="1446.0,250.0 1526.0,250.0" class="bpmn-flow"/>
  <polyline points="1626.0,250.0 1706.0,250.0" class="bpmn-flow"/>
  <polyline points="1806.0,250.0 1886.0,250.0" class="bpmn-flow"/>
  <polyline points="1986.0,250.0 2066.0,250.0" class="bpmn-flow"/>
  <polyline points="1081.0,130.0 1081.0,181.0 88.0,181.0 88.0,232.0" class="bpmn-message-flow"/>
  <rect x="565.5" y="163.0" width="38.0" height="16" rx="3" fill="#ffffff" opacity="0.85"/>
  <text x="584.5" y="171.0" class="bpmn-flow-label">claim</text>
  <polyline points="726.0,330.0 726.0,230.0 1081.0,230.0 1081.0,130.0" class="bpmn-message-flow"/>
  <rect x="871.7" y="232.0" width="63.6" height="16" rx="3" fill="#ffffff" opacity="0.85"/>
  <text x="903.5" y="240.0" class="bpmn-flow-label">rejection</text>
  <polyline points="1216.0,290.0 1216.0,450.0 1081.0,450.0 1081.0,610.0" class="bpmn-message-flow"/>
  <rect x="1107.1" y="432.0" width="82.8" height="16" rx="3" fill="#ffffff" opacity="0.85"/>
  <text x="1148.5" y="440.0" class="bpmn-flow-label">repair order</text>
  <polyline points="1081.0,610.0 1081.0,450.0 1576.0,450.0 1576.0,290.0" class="bpmn-message-flow"/>
  <rect x="1274.3" y="452.0" width="108.4" height="16" rx="3" fill="#ffffff" opacity="0.85"/>
  <text x="1328.5" y="460.0" class="bpmn-flow-label">repair completed</text>
  <polyline points="1936.0,210.0 1936.0,170.0 1081.0,170.0 1081.0,130.0" class="bpmn-message-flow"/>
  <rect x="1451.1" y="152.0" width="114.8" height="16" rx="3" fill="#ffffff" opacity="0.85"/>
  <text x="1508.5" y="160.0" class="bpmn-flow-label">settlement notice</text>
</svg>
